<mxfile host="app.diagrams.net" modified="2023-10-05T14:13:28.847Z" agent="Mozilla/5.0 (Windows NT 10.0; Win64; x64) AppleWebKit/537.36 (KHTML, like Gecko) Chrome/117.0.0.0 Safari/537.36 Edg/117.0.2045.47" etag="pBexRzMiG8nmv0jCfgOa" version="22.0.2" type="github">
  <diagram name="第 1 页" id="zusZAxVYBKf6wO3884qA">
    <mxGraphModel dx="837" dy="459" grid="1" gridSize="10" guides="1" tooltips="1" connect="1" arrows="1" fold="1" page="1" pageScale="1" pageWidth="827" pageHeight="1169" math="0" shadow="0">
      <root>
        <mxCell id="0" />
        <mxCell id="1" parent="0" />
        <mxCell id="OF40uoXXn-pdmVkBGDkX-1" value="&lt;font style=&quot;font-size: 16px;&quot;&gt;HiStory&lt;/font&gt;" style="rounded=1;whiteSpace=wrap;html=1;verticalAlign=top;fontSize=18;arcSize=9;" vertex="1" parent="1">
          <mxGeometry x="390" y="40" width="370" height="270" as="geometry" />
        </mxCell>
        <mxCell id="OF40uoXXn-pdmVkBGDkX-2" value="Hierarchical event-based narrative framework" style="rounded=1;whiteSpace=wrap;html=1;verticalAlign=top;fontSize=16;arcSize=9;" vertex="1" parent="1">
          <mxGeometry x="2.4868995751603507e-14" y="40" width="380" height="220" as="geometry" />
        </mxCell>
        <mxCell id="OF40uoXXn-pdmVkBGDkX-3" value="&amp;nbsp; &amp;nbsp; &amp;nbsp;Multimodal data" style="rounded=1;whiteSpace=wrap;html=1;verticalAlign=bottom;" vertex="1" parent="1">
          <mxGeometry y="270" width="380" height="41" as="geometry" />
        </mxCell>
        <mxCell id="OF40uoXXn-pdmVkBGDkX-4" value="Hierarchical event-based narrative model" style="rounded=1;whiteSpace=wrap;html=1;verticalAlign=bottom;fillColor=#ecf4ec;strokeColor=#141414;" vertex="1" parent="1">
          <mxGeometry x="24.000000000000025" y="154" width="246" height="96" as="geometry" />
        </mxCell>
        <mxCell id="OF40uoXXn-pdmVkBGDkX-5" value="Time reasoning&lt;br&gt;algorithm" style="rounded=1;whiteSpace=wrap;html=1;fillColor=#fff2cc;strokeColor=#d6b656;arcSize=5;" vertex="1" parent="1">
          <mxGeometry x="290" y="154" width="65.25" height="96" as="geometry" />
        </mxCell>
        <mxCell id="OF40uoXXn-pdmVkBGDkX-6" value="" style="shape=image;verticalLabelPosition=bottom;labelBackgroundColor=default;verticalAlign=top;aspect=fixed;imageAspect=0;image=https://cdn-icons-png.flaticon.com/512/4404/4404094.png;" vertex="1" parent="1">
          <mxGeometry x="66.5" y="272.88" width="33.25" height="33.25" as="geometry" />
        </mxCell>
        <mxCell id="OF40uoXXn-pdmVkBGDkX-7" value="" style="shape=image;verticalLabelPosition=bottom;labelBackgroundColor=default;verticalAlign=top;aspect=fixed;imageAspect=0;image=https://cdn-icons-png.flaticon.com/512/5261/5261286.png;" vertex="1" parent="1">
          <mxGeometry x="24" y="275.5" width="29.5" height="29.5" as="geometry" />
        </mxCell>
        <mxCell id="OF40uoXXn-pdmVkBGDkX-8" value="" style="shape=image;verticalLabelPosition=bottom;labelBackgroundColor=default;verticalAlign=top;aspect=fixed;imageAspect=0;image=https://cdn-icons-png.flaticon.com/512/1375/1375106.png;" vertex="1" parent="1">
          <mxGeometry x="110.5" y="271.63" width="35.75" height="35.75" as="geometry" />
        </mxCell>
        <mxCell id="OF40uoXXn-pdmVkBGDkX-9" value="" style="shape=image;verticalLabelPosition=bottom;labelBackgroundColor=default;verticalAlign=top;aspect=fixed;imageAspect=0;image=https://t3.ftcdn.net/jpg/06/22/78/72/360_F_622787274_wVcLtwHNuyHWcaEFj5v3gOXPu5Hmnpmp.jpg;" vertex="1" parent="1">
          <mxGeometry x="260" y="275.38" width="39.16" height="28.25" as="geometry" />
        </mxCell>
        <mxCell id="OF40uoXXn-pdmVkBGDkX-10" value="" style="shape=image;verticalLabelPosition=bottom;labelBackgroundColor=default;verticalAlign=top;aspect=fixed;imageAspect=0;image=https://cdn-icons-png.flaticon.com/512/4698/4698171.png;" vertex="1" parent="1">
          <mxGeometry x="319.5" y="271.63" width="35.75" height="35.75" as="geometry" />
        </mxCell>
        <mxCell id="OF40uoXXn-pdmVkBGDkX-11" value="Event tree" style="shape=image;verticalLabelPosition=bottom;labelBackgroundColor=default;verticalAlign=top;aspect=fixed;imageAspect=0;image=https://cdn-icons-png.flaticon.com/512/1/1549.png;horizontal=1;" vertex="1" parent="1">
          <mxGeometry x="109.00000000000003" y="150" width="65" height="65" as="geometry" />
        </mxCell>
        <mxCell id="OF40uoXXn-pdmVkBGDkX-12" value="Event &#xa;graph" style="shape=image;verticalLabelPosition=bottom;labelBackgroundColor=default;verticalAlign=top;aspect=fixed;imageAspect=0;image=data:image/png,iVBORw0KGgoAAAANSUhEUgAAAJ4AAAB8CAYAAACYCQnyAAATUklEQVR4Ae2dBdAcRROGgztBExyCOwSnKCxoQoJrgMIrIQQKJ2iQ4BacIMFJgGApvICEBHcL7gR3d/qvZ376Mre3d9/K7O7t3UzV1e7JzvS8895IT3dPJ/HJI1AAAp0KKNMX6REQTzxPgkIQ8MQrBHZfqCee50AhCHjiFQK7L9QTz3OgEAQ88QqB3Rfqiec5UAgCnniFwO4L9cTzHCgEAU+8QmD3hXrieQ4UgoAnXiGw+0I98TwHCkHAE68Q2H2hnnieA4Ug4IlXCOy+UE+8JuHAd999Jy+//LI8+uijcs8998jIkSPl8ssvlwsvvFAuuugiGT58uIwaNUrGjx8v7733nvz1119NInkyMTzxkuGW6qk33nhDhg0bJgMHDpQePXrI3HPPLZ06dYr1mnLKKWWppZaSHXfcUc4991x57rnn5J9//kklV54Pe+LlgPaPP/4oN910k+y1116ywAILhBJsttlmkxVXXFE23nhj2WmnnWTPPfeU/v37y3777Sf77ruv7LbbbrLFFlvI6quvLnPNNVdoHnPMMYfsuuuucvvtt8vvv/+eQ82SF+GJlxy7hk/++++/MmbMGEOE6aefvoooiy66qCHWxRdfLE888YQwzMZNP/30kzz55JNmGO7bt29NrznrrLMa0r766qtxs87l9554jmH+9ddfzdC3yCKLVMjGsNizZ0+59NJL5eOPP3Zc4qTsXnzxRRk8eLAsueSSlbIZwjfZZBMZN27cpB82wZ0nnqNGoAc6/fTTpUuXLpVGX3bZZc3i4KuvvnJUSvRs6El33313mWaaaSrybLTRRvLCCy9EzyTDX3ripQR39OjRctZZZ8nss89uGniyySaT3r17y9ixY1Pm7Obxzz//XA477DDR4X7yySeXfv36ybfffuumgIS5eOIlBI7H6FHs1SgLg5deeilFjtk9+umnn8ree+8tEA+ZWaDccccd2RXYQc6eeB0AVO/ra665RujdbOKtttpqcuONNwqr2GZNzzzzjHTv3r0iN73fb7/9lru4nngxIUdXNmjQINNwM800k5x//vnCyjFs7tSsejWUz8cff7yw6OGPAxE//PDDmEik+7knXgz8HnvsMWHBQGOh+M27sWKIGumn7ILMM888pj5du3aVp59+OtJzLn7kiRcBRVQkKHUh3FRTTSVnnHGGoKdrhcTcjykCdZthhhnkgQceyKVanngdwDxx4kRZeeWVTcOwtcVeaqsl/libb765qSPqF/aKs06eeA0QZk9Vt7hWWWUVoXdo1fT3338LOyD0fNNOO63Zdcmyrp54ddBl9cfeJw3BHim9QqsnyLf99tubOnfu3FleeeWVzKrsiRcC7VNPPSUzzzyzaQA29mmQdkl//vmnbLjhhqbuCy64oGS16+KJF2AU5kWzzDKLAX7//fdvmUVEoJoN337//ffG5IrefoMNNsjE3MoTz2oC5nS69YU5UjunN998s9LrDxkyxDkUnnj/QcqeZrdu3UxPh+1bq6hL0jBmxIgRBg8UzYwEJFb5Lua7nngiZsuIVStDC+ZLZTcrT0O24LO60sVI9ZhjjpHppptOvvjii+DPYr/3xBMxxpqQbvnllxfMm3yahMBnn31WZVoFTi4sW9qeeDjTACZzu/fff38S4v7OOBdhLQ0+9svFn7Otice8BU09pkL33XdfIVRr5mH97rvvFtuSWsnnwp+jbYnHBFlNxI888shCSEehmCS5mKxnVQFIdsIJJ5i5nRLPhdVN2xLvkEMOMcPHSiut1DSLiWbu/fDl7dOnj0wxxRROON62xMMFcPHFF29Ki2F2Sl577TUnDew6E1dTkrYlHg3idXWuaRk9v0yIx5zl8ccfF8zDzzvvPPO69tprjQ9pEWbWCkdZ5DrnnHPk6quvNiZYv/zyi4qf+/Xnn382ITOuuuoqQSaXcjkjHsMDsT169epVo/fRSSlXVpGbbbaZ3HrrrblsvpddrqmnntootW+55ZZc8GKeefPNNxtfXIxe7baz79PK5YR4999/vyyxxBJ1hbQFtu+J/fHggw9m9k9uNblYhVOnrBIGoMx77TaKcp9ErlTEw4QGC44owjX6zYEHHuh0ZdnqcoE5dXSV/vjjDxOfpVEbRfkujlyJicdcjWG1nkBsuG+77baGmAjE/UILLVT39zhBu1BMllWuhRde2BhhHnDAAcJru+22qxgthGEM9i7my8x7CXERVgafZSVXIuKhQNxmm21qhMXPFCdnYnjUS7gBYv0R9EmlkjvssEOqlWbZ5GLHhKhQxMWrl3AQB9MwvGiDNMpcnt1yyy1r2jEPuRIR78wzz6wRlt6M6EVRE6te9Wew/23EekuayiQXPUkcd0JioWARbGPFPeEzkqbTTjutJr+85IpNvHfffdc4g9gAsEjAiiFuwnlGt600P8xuPvjgg7hZSZnkWmaZZRKZFoExWCtWXHHMSWLc8M477wgrUzuvPOWKTbxgvBDisCUhijKLrRg1NVcQiPERN5VFLgIwpnEEh2RBvPbYY4+4cFVMwRTzvOWKRTwcP4K6HZSLaROxfhUArpTxzTffRM62THKhVE+brrzyyhq84jjlYG2t4SsU97zlikU8AguqoFyx1XLhgYXSkrmFnTdkjJrKIhc6sjSLAcUDzIPmSpdddpl+3eGVSKQ21kXIFYt46nOpQrt0AsH0RvPlSlBpO7F1hKsh/9ZgKotcp5xySlD0xO9POumkKrzAwE6N8ApqJPKUS2WMRbzgQoCVlqtEQBybeEsvvXRV1li98j3+rkTeROmpqSxy4a/rKqEVsPECAzs1wmuxxRarejZPuVTGSMR7/fXXze8J6mJXNknQaC04eP3666+r8iYEGOoRfZ188slV3zPUYNpEKotc+Ku6Svg92G0BBooV10Z4oTmwn81arrA6RyIesdTY1goqMV3M71Qo5nk2GBq50v4s7L5McrmY3yleYG/jEWwb+zv7Hrzs99xnLZfKbF8jEY84IlRU4+iq4D/88IOdV6p7ek/Nl+uMM84oWAnri20k+3ucc5gkl0kuF04yCjK9lI0HbaNYcW2EF7o/+9ms5VKZ7Wsk4ukDwbnBs88+q1+lvjLPsMHA2sVOOmdBDcDer+1iVxa51CnarlfSezoDGy8wsFMjvIIahDzlUhljEW+rrbaqqmya7RoVQK8sGGwgMSqwE0ASLn/ChAn2x+a+LHKdffbZNbIn/YDgkDZeW2+9dVVWjfAi+pX9bJ5yqZCxiEe8X1vg5ZZbLtWmvgrBHIPtGjtvDo6Lmsoi1worrOAEL0z2NSSuYoZ/cNQ0dOjQKqyLkCsW8T755JNKuHqtMJbEaRPnfGl+XPFkCtPX1SunTHLddttt9aoR+XMshG28WIjFCRrJ6ULBxVvecsUiHshgJ2ZXmvCsX375ZWTQgj+EYMFD4Yg3HDeVRS6CXafBi7glQbyCyuMo2DE02+2Yt1yxicccK7jPt8Yaa0iSFS4rMw38rCCwT0u4sLipTHKtueaaic7CAC9Ob1SsuNIWqmeNgxlHJDCy2HnlKVds4lE5ogbZAnNPwJs4hMFvNDhPIR90hklTmeRiXkUMuqgJcoXhddxxx0XNouZ3Rx11VE075iVXIuKh7CVSZJB8eJBxblajEwo/+ugjo28K2oKRF0cypVFKl00u9GlHHHGEiTlXw4r/PgDLQw89NNRzj5Cx1Dlpwm9j/fXXr2nHPORKRDwqytBK1xwkH+/RojOEDhgwQDAk4MVhv6uuumrN7oc+v9ZaayUafoKgl1UuhlCikLLVxYt7MKy3IwH2SaY3QbzChm9tE8rOSq7ExKMCWEBgRaKCJr3usssuTgPXtLpcLL6oo6uE43ZwcZakLePIlYp4VByd0g033FBzQnQUweedd14ZOXKkE91WsBFaUS5WnhzSl0XoDfK87rrralbMUdoxiVypiacNjpvcJZdcYobTjoRlCMF404V7npZf79oKchEmF2ypS9aJnhTlvZ5m1Kgt08jljHg2IOjmOAsV8xxWTry4v/POOxM5udh5p7kvi1wsONgSw+wriRNVGozsZ1FKo1hGFmRyKVcmxLOF9/cegTAEMicecxKMOjFh8ikaApiIEQa22RLzwEceecSJWJkTDzUJ8wT2Bh9++GEnQrdaJpjxjx07Vo4++mijvmBHAf1asySGXFQ8WH3zcpEyJx7HpKtpOkrjvM5DdQFOHnkwIig+9kTepQNOknqgyB89erQ5TtTeIiXOiouUOfEQkvBXCip7sahffPo/Agxf++yzTwUfxSlOeIsssMTRHrM3lUevAwcOdFJcLsRD0n79+lVVgmElC32UE1RyziRo1IlXv0s/iKTVQX0TNErAls9Fyo146IdwWdR/Dle67TQmQi4AKDIPtrzsHQMi0IMLfq/NkFClBC1YXC16ciMeQGKKow5DGgoDe748jiJvhoa0ZeCIefV9ABOmH/RyxEFBuV50IvIoRh/8ETD8uOKKK0yAoDgWNY3qkCvxEITJNJVhlTvffPNVekCC7tgOPI2ELvN37IsedNBBFQtgTJ34Q2qCfCzIikxjxoypHKhC9AZNzz//vLNIpLkTj0qoHRj/dIYatcDgKHZ1WdTKttKVfen555+/8sfD3MlFFFSXGBGTWkelnXfeObO5ZiHEY1GhVi2EOSO0vj3/YzXF/KJVFh/0IFhp09Pz4gjOOEEsXRKrUV5saarPLaRLYxvZqBy+K4R4FIzSFENGGmLOOec0J+xwjgJE1AbCGjavMPsdAZXk+3vvvVfWXXfdSn26dOliNvuzbNAkcvLM8OHDKy4NhMfNelVdGPGoLPMd3dmgUYgFzDyPQ+1spSrDE8akLg7oTdowUZ/DsBLrDrsH79y5szHpL3ruVq8OgwcPrvw5Dj744FxGmkKJBxA0hpIP/ZVGoCKID4DQG2oPiAZ90003NUMzDdwsCX0XliR4e+lQhcys2E899VRpJlltzDBL0ykP82yXjt12OWH3hRMPoej5dNhlYnvXXXdVZGXyzXFUa6+9doWANCpLfXw0iEBACIash4aKQP/doFbARg6vfLt3pgF79OghI0aMcLYCDJbt4j3hg7t3724wBXMX/tFx5GoK4iEwcz5MpyEVSssLLrigph4EjD7xxBONR5v2gnqlt4SIhx9+uFHZ4MVmx9CrySziBzjTvP3228aWkGCIEK1r165VfwJkwHCSKOpp4kFHFCn1z1ACE/QIuYm8j5ok79Q0xKPirGJV1QIoBOGup25gLxHVC3FTFEQloV7pfZg7QgrOc+jfv7/RobFdx5yRxQzhLxhisL6gbJySiNuyzjrrmANO7A1yzZcr+aIKIgRsI6+6vBu0UXn8EYkkpeorPAXjxE5ulHfc75qKeCo8SmYNHoiZfEfh9CEsfqf4DKCcpedDOa0A24SJe4+im16B7T0m3pTx1ltvqailuXJQC1oC6k+dmD/nPT2xwWpK4iEgJwBpgGnC66NWiZvoLZmLoUdDeUtgG8yNWDVrDDlCnkFWPqMX5DfMz7AdZIit1+PGlaWo39PLMT1RP2YOaRk3blxR4lTKbVriISGrQYY97aVQaroMf1tBoUVvIJit1kE/58IX1wVcTU08rSAb1EQIhYCoKJL0fppXO1wnTpwo+CrrH5YDDV0d6e4Kv1IQj8oyz0NNoWBy2HIZ51quGi4sH3Sixx57bGWvleF10KBBTp2/w8pN8llpiKeVY2sHYwIIiGkVE36Uze2csHXEfVRxAZs+ffrECqKUN36lIx4AcdwUsUXUSJGzLzigpVnmL3k1IvNdFkT27g4Ww2Vwqiol8bRhURLb8XzZE8XpOE40Uc2rTFdURwRE0nkvPRzWy1iXlCWVmngKMhHje/bsWZn/Mbfp27evcPpNqySG0+uvv77K2gXCYf1SRgvuliCekos9Wza97d0GgnqzlcVKr2yJ+HWYVnGiOU7xEI0XynVM5IvY6nKFYUsRT0FhC4vooKhetLHYxSCmHB5drvwGtDyXV7aw2B1h35qpg8rPlSA5KLhbQZfZksRTIqhTMnuqugWnDYkGH4UqwxfGB0UlgvJgGcLuCVtawW0+TuQm3GySOMdF1SlKuS1NPBsADhxhK4yh2LZyViKyMuzVq5exbsEUn5NzXG6gkxfm7vRm6NZ69+4txJXT8vXK/JTNew6vaeae2cY2yX3bEM8Gh56QY0pRwdDI9upQCaBXbO3oddZbbz0hRD8WM7j7YeHC88wfeWHdgvIWBx4iA7DVx8Sfo7Fsez3NV6/M3VCMMzUgvEceMfBsLIq6b0viBcGGiJjdc8w9pxtydBVDMVYcSpC0VwjGUAohIRlGC0TJbxWHpiCmHb33xGuAEKtK7P7Gjx8vo0aNkmHDhpnFCSZFDJf0bli50ANi3cJRCewg4JDNaUUPPfSQ8ZltB3/hBjCGfuWJFwqL/zBrBDzxskbY5x+KgCdeKCz+w6wR8MTLGmGffygCnnihsPgPs0bAEy9rhH3+oQh44oXC4j/MGgFPvKwR9vmHIuCJFwqL/zBrBDzxskbY5x+KgCdeKCz+w6wR8MTLGmGffygCnnihsPgPs0bAEy9rhH3+oQh44oXC4j/MGgFPvKwR9vmHIuCJFwqL/zBrBP4HNk4ipZMgiVQAAAAASUVORK5CYII=;fontSize=10;strokeWidth=2;" vertex="1" parent="1">
          <mxGeometry x="54.00000000000003" y="163" width="25.48" height="20" as="geometry" />
        </mxCell>
        <mxCell id="OF40uoXXn-pdmVkBGDkX-13" value="Event&#xa;graph" style="shape=image;verticalLabelPosition=bottom;labelBackgroundColor=default;verticalAlign=top;aspect=fixed;imageAspect=0;image=https://d1nhio0ox7pgb.cloudfront.net/_img/i_collection_png/512x512/plain/graph_connection_directed.png;fontSize=10;" vertex="1" parent="1">
          <mxGeometry x="205.00000000000003" y="172.5" width="20" height="20" as="geometry" />
        </mxCell>
        <mxCell id="OF40uoXXn-pdmVkBGDkX-14" value="" style="shape=flexArrow;endArrow=classic;html=1;rounded=0;entryX=1;entryY=0.75;entryDx=0;entryDy=0;endWidth=6.274509803921569;endSize=4.592156862745099;width=5.098039215686275;exitX=0;exitY=0.905;exitDx=0;exitDy=0;exitPerimeter=0;dashed=1;dashPattern=1 1;" edge="1" parent="1">
          <mxGeometry width="50" height="50" relative="1" as="geometry">
            <mxPoint x="131.74000000000004" y="167.02999999999997" as="sourcePoint" />
            <mxPoint x="81.74000000000004" y="168.98000000000002" as="targetPoint" />
          </mxGeometry>
        </mxCell>
        <mxCell id="OF40uoXXn-pdmVkBGDkX-15" value="" style="shape=flexArrow;endArrow=classic;html=1;rounded=0;endWidth=6.274509803921569;endSize=4.592156862745099;width=5.098039215686275;exitX=0;exitY=0.905;exitDx=0;exitDy=0;exitPerimeter=0;dashed=1;dashPattern=1 1;" edge="1" parent="1">
          <mxGeometry width="50" height="50" relative="1" as="geometry">
            <mxPoint x="164.00000000000003" y="182.29999999999995" as="sourcePoint" />
            <mxPoint x="204.00000000000003" y="182.29999999999995" as="targetPoint" />
          </mxGeometry>
        </mxCell>
        <mxCell id="OF40uoXXn-pdmVkBGDkX-16" value="&lt;br style=&quot;font-size: 11px;&quot;&gt;Atom events" style="rounded=0;whiteSpace=wrap;html=1;fillColor=none;dashed=1;dashPattern=1 1;" vertex="1" parent="1">
          <mxGeometry x="104.00000000000003" y="192.5" width="80" height="27.5" as="geometry" />
        </mxCell>
        <mxCell id="OF40uoXXn-pdmVkBGDkX-17" value="" style="group" vertex="1" connectable="0" parent="1">
          <mxGeometry x="34.00000000000003" y="78" width="340" height="66" as="geometry" />
        </mxCell>
        <mxCell id="OF40uoXXn-pdmVkBGDkX-18" value="Atom &lt;br&gt;event" style="rounded=0;whiteSpace=wrap;html=1;verticalAlign=top;align=left;" vertex="1" parent="OF40uoXXn-pdmVkBGDkX-17">
          <mxGeometry x="180" y="6" width="140" height="60" as="geometry" />
        </mxCell>
        <mxCell id="OF40uoXXn-pdmVkBGDkX-20" value="Actor" style="rounded=1;whiteSpace=wrap;html=1;strokeColor=none;fillColor=#eeeeee;" vertex="1" parent="OF40uoXXn-pdmVkBGDkX-17">
          <mxGeometry x="226" y="13.25" width="75.70636744626196" height="17.6" as="geometry" />
        </mxCell>
        <mxCell id="OF40uoXXn-pdmVkBGDkX-22" value="…" style="rounded=0;whiteSpace=wrap;html=1;verticalAlign=top;align=left;" vertex="1" parent="OF40uoXXn-pdmVkBGDkX-17">
          <mxGeometry x="-10" y="6" width="50" height="60" as="geometry" />
        </mxCell>
        <mxCell id="OF40uoXXn-pdmVkBGDkX-21" value="Action" style="rounded=1;whiteSpace=wrap;html=1;strokeColor=none;fillColor=#eeeeee;" vertex="1" parent="OF40uoXXn-pdmVkBGDkX-17">
          <mxGeometry x="225.99966337704478" y="41.14999999999997" width="75.70636744626196" height="17.6" as="geometry" />
        </mxCell>
        <mxCell id="OF40uoXXn-pdmVkBGDkX-24" value="Atom event" style="rounded=0;whiteSpace=wrap;html=1;verticalAlign=top;align=left;" vertex="1" parent="1">
          <mxGeometry x="82.50000000000003" y="84" width="52.5" height="60" as="geometry" />
        </mxCell>
        <mxCell id="OF40uoXXn-pdmVkBGDkX-26" value="" style="curved=1;endArrow=classic;html=1;rounded=0;exitX=1;exitY=0.5;exitDx=0;exitDy=0;" edge="1" parent="1" source="OF40uoXXn-pdmVkBGDkX-4" target="OF40uoXXn-pdmVkBGDkX-5">
          <mxGeometry width="50" height="50" relative="1" as="geometry">
            <mxPoint x="224.00000000000003" y="174" as="sourcePoint" />
            <mxPoint x="274" y="124" as="targetPoint" />
          </mxGeometry>
        </mxCell>
        <mxCell id="OF40uoXXn-pdmVkBGDkX-28" value="" style="curved=1;endArrow=classic;html=1;rounded=0;exitX=0;exitY=0;exitDx=0;exitDy=0;" edge="1" parent="1" source="OF40uoXXn-pdmVkBGDkX-49" target="OF40uoXXn-pdmVkBGDkX-20">
          <mxGeometry width="50" height="50" relative="1" as="geometry">
            <mxPoint x="220.00000000000003" y="129" as="sourcePoint" />
            <mxPoint x="270" y="79" as="targetPoint" />
            <Array as="points">
              <mxPoint x="370" y="110" />
            </Array>
          </mxGeometry>
        </mxCell>
        <mxCell id="OF40uoXXn-pdmVkBGDkX-30" value="Narrative&amp;nbsp;product" style="rounded=1;whiteSpace=wrap;html=1;verticalAlign=bottom;fillColor=#eef4ed;strokeColor=#36393d;" vertex="1" parent="1">
          <mxGeometry x="400" y="77.06" width="350" height="73.87" as="geometry" />
        </mxCell>
        <mxCell id="OF40uoXXn-pdmVkBGDkX-31" value="" style="shape=image;verticalLabelPosition=bottom;labelBackgroundColor=default;verticalAlign=top;aspect=fixed;imageAspect=0;image=data:image/png,iVBORw0KGgoAAAANSUhEUgAAAasAAAGyCAYAAABayOs+AAAAAXNSR0IArs4c6QAAAARnQU1BAACxjwv8YQUAAAAJcEhZcwAAFxEAABcRAcom8z8AAP+lSURBVHhe7J0FWFxX+v//v637tt2tS+q2tW13u223snVvGiEJCSE4CQSIu7u7u7u7e0LcXSAExgVmsBlm5v2/3wOXDpOBQIIMcN7n+T4Dw8i9l3vP577nfM97/p8MGTJkyJAhQ4YMGTJkyJAhQ0aFRP2HHnqoBT/G5v4qQ4YMGTJk+E4EPvzwwzNr1ao1u1evXnOCg4MPPPXUU1v4eQktGTJkyJBR4RH4f//3f/O+/vrrhbNnz16amZl53uVyXePHc4mJiZsktGTIkCFDRkXGewqkRo0aNVuBlKfMZvNBCS0ZMmTIkFHekQ+pHj16TDxz5szmwkDlLndo8WfsZD0jPk2GDBkyZMgoxRCQev/995eWBFKeArR27NixPQ9a81gSWjJkyJAh45bjCVa7V155ZcqtQMpTHtAaxJLQkiFDhgwZNxWBpQ0pT3lAC+NZEloyZMiQIaNYIWzogNTGjRvnlwWkPCWhJUOGDBkyihtebejlKUBr06ZNGx9//PELvD0SWjJkyJAhIz++L44NvbyUk5NzGdCaPHnyNgktGTJkyJBRwIaelJS0t6JB5S4FWp07d94roSVDhgwZ1S9uaq5URUmBFsazJLRkyJAho+rHE4BUjRo1VlcGSHnKHVqyGoYMGTJkVM0ocxt6eQnQSklJ2SGhJUOGDBlVJ/Jt6PHx8SsrM6Q8xfsii+XKkCFDRiUPYUP38/ObU1E29PKShJYMGTJkVL6o8LlSFSWMZ0loyZAhQ4ZvR4ElO/R6/TFvDXp1EKAli+XKkCFDhm9FpbKhl6cktGTIkCGj4qNS29DLUx7QQteghJYMGTJklEOU+pId1UESWjJkyJBRPlFl5kpVpCS0ZMiQIaNsQsyVioqKmlZeS3ZUBwFasliuDBkyZNx6VFsbenlJVniXIUOGjJuPAjZ0Camyl6zwLkOGDBnFD2lDr2DJCu8yZMiQUXhISPmYZIV3GTJkyPgznmC1k3Oliq/0zMyU0+cu6c5dTNAePXFGv2nbLuPOPQcMi5atTr1wOUGbmpamMhhNqmybLdnb+0sqQEuWcJIhQ0Z1DmlDL6YSk65pTp+9qBszeUZ6135DsxqFt3D4NYl21G7czNkwNMZRJ7Cp649GEa56QdHOxk1bOfoPH5cxY94Sy7Zd8cZsmz05x+G4ZXDx/0cWy5UhQ0a1ivwlO6QNvWipNDr1vgNH9P2HjssIim7j+M0/zOXXpBnVahxJzVp1pq59h9CwsZNp/NTZFNuhB0W26EhBTVvTL/VD6Hf/cAqL7eDo1n9E5tLVG81Z2aWTaVkslhMSWjJkyKjKIW3oJRDDJWXG3CWWqNZd7DUbRrhqBURScHQbmjxzHu3avY9OnTlLZ86dJ51OR2q1Sigx8Sqt27SF5ixaRl36DmZghQlohcZ0dIwcP9168vR5nbfvuhlhPEtCS4YMGVUpJKRKKGt6ZsrBo8f1cR162NG9B1D1HTKKNm7ZRknXrpFWoxGQgrRaLT9COtLr9aTPezxw+ChNmjGHwmLa028NQok/wzVm8kxr0rUUjbfvvFkBWrJYrgwZMipzFJgrlZSUtFeCqnhKTlGrR06Ybq3duJnr1/qhFN26C61Ys56uMagUQBUmBVoaBtq5Cxdo0IhxVDewKQMrjGLadbdv3LrL7O07b1USWjJkyKhsIW3ot6Zki9WqGjBifAayIUAGY1FLV60lHUPoRrBSBGCpGVgz5i6moKjWIrvyD4t1TJox35qT4yyV8Stv8oAWugYltGTIkOFTIZfsKCVdU6nV0+YutARHtXVgzKlheCwtW7WOEhMTyWAweIWTpwCrBH79/KUrqX5wNCFDqxPYzLVoxdrUNItF5e17S1MSWjJkyPDFkDb0UlSaxao6cvyUvkOPAdl1GTBw93XrM4SBtZ7OX7hEJpOxyAwLoDLoDbR24xbq1HMA/VIvmH7lzKpxs1Y5x06c0WVmZqV4+96ykISWDBkyfCHyIRUfH79SQqr0lJOTk7x6w1Zzu+79sv2aRLmQYSFDGjVxOq3fso0OHjmWm2VptKRWqxleerpw4aIYq9q+ew+NmjCN/ENjhSMQoGrZqY9tyar15sys7HIDlSKlGoYslitDhozyDjFXys/Pb450+JWdbDZbikqtUQ0ZPTkjNKato06TZi7MsfrdP5TiOvSg9t37U59Bo2j8lFnUe/Ao6t5/KEW36UKNI1tSvaBoMU4VFtvB3q5Hf9uBQ8cMqWll3/1XlCS0ZMiQUV4hbegVoMysrBRUsJizaHnawGHjMlq072mvHdCU/JpEu5A1YSwKRoxf64dQQHicwz8kxtVn8JjMybMXp23Zudek1hnUpVHForTkXndQQkuGDBmlGXLJDt8QgJN8/vIVrVpvUu89eMQwf9mqtOVrNpoXLV+TdoGfP3r8lP7qtRQ16gOijqDH+31KhUBLhgwZMkoc0oZeSWS3230mcyqp3KElq2HIkCGjJCEg9f777y+VkKpYnb94Rbt24xbTtNkLLLv3HTIcOnZSZyuliuq+Jj7HZLFcGTJkFCvEkh3Shu4byszMUq3dtN3UtFXnnHpB0Shi65q/ZGWaSmNQe3t9VZGElgwZMooKOVfKx4SuPWNqqmr1hi3m6XMWWgCqo8fP6FHk1tvrq5pkhXcZMmS4h1yywwdlSU9PsdntKbacnOSs7Ny5UbCy5+T4jquvvITxLAktGTKqb0gbuo8KmdOKNRvNnfsMzho6enLG0lUbUs+cu6hzOr2/vroI0JLFcmXIqD7xvbSh+67Q9Xfw2Al9q869swObtXL4BUU7u/YfnpmYlKxx+NBcqYqUhJYMGVU7CtjQ5ZIdvqtsmy0lIyNTtXVXvHHTtj2m85cTtOVRfLayyQNa6BqU0JIhoxKHnCtVSaTSaNTnLl7WXryapDWYU31+Uq+vSEJLhozKHXLJjkokE8Np9sKlaaHN2+Y0DI91DB41OWP7vgNGazlWSK/sktCSIaPyhbShVzJpjUbVhGlzrXHte9hi2nezd+0/LOtqUnKpLkFfHSSL5cqQUTki34Yul+yoPOIGVhgnsrOzU2BP1+iNKr3RpK7MJZQqWhJaMmT4Zggbulyyo/IJy3bMX7oqbceeA4ZjJ88ZEhKvyWyqFFVIsVwJLRkyyjnkXKlKLJ3eoF6xdpM5OLpNjl9wc1eDsOZOVFA3p6ZV6XJKFaFCoCVDhowyjgJLduj1+mPeLlAp3xa6+dQarWrq7IWWngNGZE2atdBy7NQZnez+Kzu5Q0tWw5Aho+xC2tCrkDKzspLtdjFeJSSt6uUnvm5ksVwZMsogKq0N3eFwXHM6ndeSOIewpGemnDh9XodxGRgILl5J0OI1eQ221/dXRWn1RtXC5WtTm7ftZp+9cFnatt37jFqDUU76rQBJaMmQUXpRKZfsSEpWadZt2moeOnZKRsuOve0dew/OCoxs5agX3NzpF9TcWS84ytmiYy9bmy59s7v2HZa1eMW6VAMDLCvblqy446qokvcdOmro1HtIVt0mURQa09bRe/CorGsqtXT/VaDQNSihJUPGzUVlnCuVbEpNUy1euSGtXbd+2ahr92uDUKrVMJz8A8IpJiSCgpqEU4uwCAoNCqMGjcPIr1E4/eYfTnUaN3U2DG/h6NF/eObBYyf1JpNZhYzMy3dUeqWlWVQXryRqN27ZbVq1bqP51NnzcpzKR+QOLb4Gd7IktGTIKCTEXKmoqKhplWzJjuQrCUnawaMmZdQKbOb8zT+UavqHUfuISJrcKopUg1qQekgLSh/VkqwjW9KVgS1IP7QFHesTRzNaR1HTYAYWg6tWQFNX/ZAY5/zFK9JUGn2VcsWlWdNTEq4maYzmNBWkPC9B5XsCtGSxXBkyvEeltaGj206l1qhbdOxp/yMgkn7mbCo8KJzGtIiidAYTjWmdq7F5j+4/86NtVCvSMMiGxTajYM68fudMqy4DL659D7tKp1dXhQxLZzCqB4+ZlNkkuo2jcbPWjnHT5lg5u5JzqnxcEloyZPwZBWzolQlSipxOV/KhIycM9YKiXL81CKM/GoZRn+imdK5/iz/hVAxZhrekXd1jqX5AOP3CWVlAZAvHopVrzZU9w8rMyuaM6pqmz9DRmVGtu9jDYtrl9Bk2NvNKYpKEVSWRB7TQNSihJaPaRJWxoWdxYzxzwdK0Jpwx/MqwahwYTtu7N6dMzpi8QcmrkGmxLgyIo3YRkVSrUSjVbtzU2W/Y2AwskeHteyubAC1UrDh87KTeas2U7r9KKAktGdUpqtxcKSy1Pn3eEmtYbHs7YOUXEEaDYppSFmAFCHmDk6f4dS5+PNAzlmJDI+hXzs5qNY50de8/LCtFpa60mZVap1PvO3DEsGP3fiOyq6vXZDmlqiBAa9OmTRsltGRUxXiC1a6KLtmRjLlD02Yvsv7MsPrVP4wigiNoQ9eYXGB5gsmLHKykgXE0uVUzatQojH6pH0r+YXGOFWs2mZGNePlOn5aTpdMbNahOERTdJqdx01aOsJgOORu37jZZrBkyq6oCUqphyGK5MqpSVIslO06du6Dt1GtQds2ASNdvDUMpNCiCRsQ1o+N94AJsTc7RLDdAIZNCRmUa1pJO9Imjns2akn9jBhUDr06TKFevgaMzdQZjpc1EjOZU1d6DRwyDx0zK6DN4TOakGXOtickqWfevnKQYc9KsVlVi0jXN8ZNndDt2HzCu2bjVhEz38NGTevx8KSFJk2axqowmkyrbZiuxM1NCS0ZViPwlOyqZDf2mhOUtLl65qp01f6mlUXgL16/+EVQ7IIwaB4RTm7AIWtahOS1sF03LOzWnLd1iaD7/PLttNDUPiaCGjXPnW8GgEdmyk33Zqg2pcBjiM719l68LjV6OwyEavtRUi8qek5NisWSopE297GWxpqcYjGbV2o07zFNmLrC07TrA1rRl15yG4XGOOoFRzrqsWo2bOusENnPBdeofEutA5hvVtqt92Ngp6aiCvzv+kPHq1ZJ12brXHZTQklFZolpXQ0e33dnzV7QLl65Ji23X0+4XFO36nSHEDYTrtwahVIcB9qt/KP3Bgs0d3YYNwmKdYbHtc9BtduDQUUNlrpPH+69eumpd6uhJ09JnL1iWdvL0Wa1Gp5MZVRkrzWJJOX7qrG7IqMkZYc3bOvyCYx2olPJzvTBq1jyYGoeGUJvWwdSvRxMaPSCQZoxqTO3aBlNUDCs2mOoHhZJfEz5PA5o6azaMcHXvNzxr5vylaYePn9R5+77CVAi0ZMjwqZBLdrjJZnekmFPTVOcuXtEuXbXBPH/Z6tRRE6enjxg/LWP81NnWsRNnWucuWpG2cetOE0oQJVeBkkPcSKk2b99lDIlum1OnSTMKiGzpmDB9jlWjM2K+mMyqykA4Z1ARhLPxtEDOkH6qxzdAfBPUrHkI9e4WRNsXNKTjGxuQ8XB9Sj9TjxwX65Hzau6jnZV+qj6d2Vqfzm1pQIsnNaL+PYMohuH1c70I+r1hBLXt2t+2cdtuozW9ZDdQ7tCSJZxk+EoUmCuVlJS0t7qDqjBl53brodHOb7irWtfY2XMXtWfOX9YtWbk2dd6SlWknTp+V5ZTKUMkqnabnwJFZ/qFxDgCmbmAo9e7ehM5v8Ke04/XJftmPKLEu0RV+VITn3B8T+O+JfmQ/xyA740eHVvrTwN5NKJqzrl/qR1BAeEvHkDGTM66p1Bqle7e44rZAFsuVUeEhl+yQypfNZk9OVmk1RnNqitMpnpOAKmNhwvikGfOsjTmDBVTqNwmhZVMaUdLe+pRzuZ4AUD6UiiMBLj9yXKhH6n0NaMW0htQwGO7UcApq1tYxYuL0jDPnL5WoW1CRhJaMiohKu2SHVNkI9abmLFyehkryUa0756CbE8ugyIyq7ORwOpPPXLykC2nezoGakr80CKXOnZpQwnZAKi+T8gak4oiBRVf9SHegPs0aE0D+wSEEwxC6dVev32JOs1hvekwVXYMSWjLKI6qFDb08hOzDYDKr9h44bNi6fY9p7Yat5isldGD5ghwOV/KO3fHGXoNGZeIOP4gbz4nT5lkwXuft9VKlI1Sv37Rjtyk8tr0DTtLwqCDavtCfMk7nguaWYAUBWPx4bnN9atkyWDhbazdu6powba5VpdPf8nnqDi1uV2SFdxmlFvmQio+PXykhdesyp6aql6/eaA6JaZfjHxrrDI5u7dix96Ah1WKpVE5AR94YBgb51TqDelf8QYNaa5A29TIWpjXMXrjM0jiylePXBuHUMDiYYdWQnBf/BM0tCbDjDM1yqh61YljBvYoMrm33/tmbtu02Kf/3WxWgJYvlyiiNEHOl/Pz85kiHX+kKjc35iwna0RNnpfcePCZz4bK1qafOnNNZMytP3Ty1huG055Dx5JnzOrjFTOZUaVEvJ2GFaUy6btu9nw3z8/wah9LAXo1Jc6h+7liVNwCVRAAe69K2BtSpfRP6vWEo1Q5s5mrbo3/2hSsJ2tKClSIJLRk3G9KGXk7Kysqd+JuXiVSabMRisaomzVpgwcB709ZdHO35jnvb7nhjTtVe6diXlKzVGzRjp85OB0R+qRdGHRgqG+Y2IvPxereWXQmjRV1ynPejJZMDKDAsmJC9oQeg37CxmVqDscxuqDygha5BCS0ZXqPSL9lR2YSB8gNHT+oPHj2hh9V7574DRjzn7bU+pOSEpGTNqvWbTX2GjsuMjOuUM232AqvGYFBLWJWfcs+dE/oe/Udk1mnSzFU7IIRatQqiLfMaUephBpY3EN1IANVVPzKfqEdrZzSi6Jgg+rU+ugAjXbghuXA5EasAlPn/WEJLRmEhbegVIDTsKrVOM2HqHGsDvmvF4o1d+g7L2ht/2FBZxnxQRgl1AJFp8e8SVOUsVDvZf+SEvnv/4Vn1QmKcv9QPo5i4YBrZvzEdXuVPlqP1yH6WAYRMqzDTRV6XH/6eeaEeHVjpT/PGBVCDIMyzCqM6gVGuQSPGZ6zfvN1U3ucloCUrvMtACEi9//77SyWkKkbo+0ctQFR6GDt5lnXO4hWWI8dO6r291hd0JTFJu3LNRvP0uYvTNm7dZTSazKqqsJqxryg725acmZ2djPJJ3v5emC4kJGgXLluV2qJTb5tfcHNRZim6eTB17hhEc8YG0NF1/qTeX5+Mx+qRTVSuYDAxxOwX/ChxT33S7K1PmzgjmzYygOoFotsvjH73j6AmUW0dQ0ZPzkhIvKZDjUdnBdyQKNUwZLHc6hliyQ5pQ/cNwf4NZWZmpeDO1UezKmxT8qp1m8wh0WJuD8W062GbMX9JGmdWsvuvFHT+4hUtHH7N23W3t+rSz4YyXAyv4kILxz/l4LET+uV8M9G579DsgMgWTr/gGOfv/mFUNzCEAkODqVnzIOrUPohatgyiFi2DKTIqiNq1DaKGwSFUKwCACnf93jCcott0s/caPCbz/KUEnRnFiH3gnJTQqn4h50pVEmHpBnNqWgpWI75wMUGLhR4vJ1zVXrx8RZuUkqLed+iIARM01VqtCg1dikqnvnzlqhaZjoWfT2f4ZWZlJafn1XUrhQwo+fjpc7olq9abp81ZbEGh2iu8PV5eJ1WEkD2dYwhcvZaisVrT8w02p86e0zZr1cVeL6S5Kzi6bU67bv2y1VrdTc1pwpjikeOn9MvXbkrtP2xMRlTrLvaw2A45jRlgwVFtHDUbRVCD0BhXw/BYJ6ZPtOjU19a2a//sSbMXWVas3WhGTcvU1DSVL96EKNBC16CEVtWMarVkh68rKztbNAJ6o0mlMxjVmLuybXe8CV2BM+YvS+s3fGxmu+79bbHtetqCm7dxxHXsaQuJaeuIiOvoCIho4agT2FQ0Olj6AY9tuvS1+QVFOcP576hqENu+u33omCkZyH4GjByfMWn6HOvGLTtN23ftMx47eUZ36NgpHbogsR38WGKQ2Wz2FNjvfTQL9Bl51NJLPn3uonbC9LnWJtFtHI3CWzhQ3dxkzp1AjeOZotGpYbbZsmOPiW8ENKWwTEwyPiPNYlGpNXoVVgU4yTccFy4naFG3cXf8IdzwqIxGsyrvu5Lzalh6+yyfUiHQklGJQ9rQK1jW9Ny758uJSdr4w8f06OoZPGpSRrd+wzNbde5rA1zqBzd31myIweymrtqNI10Nw+L493DCWkN1m0RRg5DmzlC+A2Zg5bRmMDVr1dkeFtM+p2nLzjnRbbvZ23brn4278ibNWgNWOQERLZ1+TaJddYOiCZ+Dz68VEMmf38wFq3NEi445zVp3tsd16GlHqaS1m7aadu07YLx6LVkDee6DVPGFCvOoQYX/9dzFy9MOHz9lYBAIaGkMJvXiletSG0bEuWLb97CPHD81/fzlBB3gj7/jBqK05zBVdblDS5ZwqpzxvbShV4zQNWcyp6rOnLuk27pjn3HspFnpvQaPzqzPwEH2g7I1NRtGEEPIBadVRItOOTFtu9tHjJue0Xfo2Mzd+w8Zl67ZYD574bL23IUr2uOnzuhwR4xF9bAsPO6ENXqjGEfI4rtgZGeZ2dkqlVqntmRkiNed4Tv4E3wHjXJOyNomzpxnGTN5pnUwZ1k9B47MDGnePicgspWT4ShAhkdkbg1CmzvbdO5n6z1wdObm7XtNp89e5MTPpELXlbd9lUKR1qz8xSYdnJnAhDJywrT0hmF8w8D/75j2PWybt+8xKeYEuCfxv0pISNJkZGT6ZFdbZRS3cbJYbiWLAjZ0uWRH+QjjQhqdXr1r3yHDvCWr0qLbdMkJiW7rgJ0Yc1QahMW4/IKjXC0797G16NDLPnvhCsvyNRtS1RqtCuMLsCCj4UJlAm+fX0rCZyejywfAu6ZSq1et32yet2hF2qiJ09K79xuW1Z4zNIxn+AVHO2txhocuxyjeF9SEA/QOHzuh50YXd7PVuoHFjcL5y4naBUtXpQ0YPj5j3NTZVm1ezTz8Hw8fO2kYOnZyRtvu/W2jJ89KT9HqtJWle62yS0LL90POlaoAnT1/WWQwWKqhU69B2fW4ka/ZKJK4oScMZqObDysAb9u1z3iWsyQAAnOS7IU09nxXrjl9/pJu38GjhqMnz+gTr17T5C25UabKyralIHu7cOWKduvOfcYxk2end+T9CWre1hEY2dKBrkSsdBzdtqu9Y48B2djfFN6XyryqcXEEMEPIXrFkvDU9S+wvbioWrVibGhDZwlG7STOCQ3LR8rWpWp0hvwsVBgXl5kN27ZW/0DUooeVbIZfsKEehuwcNVkLSNc3cRcvTOnODjoHy2o2bIhtx1W3c1NVn0JisKbMWWFQqnUajNxR7qQzcea/dtM2ErAxdhnBqTZ+zJC0jM6tC6gWmWTLQXaVZt2m7afTE6end+4/Iqs/7iDGvWo0iXI3C40SZpZ17DxrQmCvjMlVF+F9fuXpN23fY2MyuA4ZnYV/RnafUb0Q33pKV61Ln8HmwaPnqVFNqqpgYXRFzkaQKlzu0uL1Ehfc6ouWUUa4hbejlKDM3RvGHjhn6DB6diXEmdPH9wVlUMN9V9+SGfOmqdamHj5/SY4n6zKzsEmccgBoa/Znzl1q69huaNW3OQsuqdVtSMT7l7fXlLWSFp86c1y1dvT4tuk1Xe4OwGGECaRjRwhHTvqdtzsJlaVicL/UW1juqCGVmZaU4HM7kk6fPaTFFwGwW0BFjS/sOHDHif9EoooWzWesuOTPmLBYZpfv7pSOycgjQksVyyz/ybehyyY6yl0ZnVOOOunXn3tlw29VtEu3CpFg0YDMYLPsOHNWLLp8cR0ppjOUgw4JgJcbcKm+vqUjxPoouw937DhlQ5ic0tp2jXki0qMpdp0kz56iJM9L37T+iT05R+7yrUGRPCVd1XfoNyQqKausIbd7eMX7qnPREzpwVCGGc7mqKSgPLd1Xv9qwOktAqnxA2dLlkR/lIpzOoDxw+Zhg4cnwGVsCFe69+aIzLPzzWOWX2Qsv2XfuNqDrh7b23ItzpY8mNfQePGJau2WjeHX/YYM3wzaVD4Ho8ceqsHgaMlp162lE14Y+ACFetRpGugSMnZmD8C5Nfvb23PIUJ0ilqvTCUrN20w3z81Fkd3xAIGKWodJrp85akYQpAqy59bOjWg/FFZkxVWx7QwniWhFYphJwrVY6ypKenXOOsYOqchZbm7brZFUgFcCY1dsqsdFS6hmXc23tLQWJSJroC/SPi0PCL5cSnzlmUZrf77iA9uj1VGr16/pKVaR17DsgOboYqCeGumg3DXQNHTMw4yXBQabXlAi3O/MRjdt7Ea0AHXamDR03MaMLbBVdmmy79bGfOXxbVN1DqClksXpORma0qixsQKd+VhFbpRIElO/R6/TFvB1uq9GS1ZqhWb9hi7tp/aBYghe4+/7BY58iJ09N3HzgsZvt7e19pCk5BzNWZt3hl2pBRk9IHcWO/fc9+o6YM1xEqLWGeF4wGi5atSW3fY4AtsGkrYYEPat7aMXrSjHQGQpnVEbRY0lP2HzmunzFvsaXXwJFZ/YeOyxDz0fj70N139MQZfc+BI7Kgjdt2mlBSCBmst8+Sqn4CtFDh/YcffjjKba+EVjFD2tArQCfOnNXNXbwiLbZdT7tfUBSyAuoB48TKDWmJSSmaMsymvEopaZRtyxFVDSrT3CZMXlbr9OrpcxdbgqPbCrckw9/ZolOv7MUr1qVm3eIkY5M5LQXjR6j6rrgQ0dWHCdWoCIIbjICIlo4FK1anWTMyhCECGRYrJfdYSiu51PXia0wWyy1mSBt6BQjZ0vFTZ/U9BgzPgg0dXW8RcR1yho2dkoFKEBV19426fSdOndNt33XAsGLNRjNq+pm4cfb2Wl+VRmtU7dxz0IjxKxgwMOE4okVHx4hx09KPnjh9U0uh7Np30NBvxLiMVl372mLbdbfPnL/YovwN1Tv27D9sXLqajxcfO5VGqyrvmwypyi8JraJDLtlRAeKGTLVu8w6zWLwuOBqlkKh52x62Veu3mFU6vbYi58wYjEb1AG6UkeXVDY52hTRvm7Nz30FjZVw/ChOiZ3CWFdO+px01ELFsBSzhW3fs5uQot5Crpy4nJGmTUlSa9Zt3mHDDgP1Gpnn6wiX9oFETMwKatnRg0Upkw6fPXdS5GSLwKDMnqVuWAi2MZ0loFXOuFJxLqG6w5+ARw+74Q8YtO/cZl6xaZ160YnXq4DGTMzbv2GNCqZ898UcMKER6KfGqz9uGK1pavUG1Y+8BQ/se/bP9gqKdqNfXfcCwrDUbt5q1RqOqoruK0DAfOX5aP37aHGu/4eMy12zcZjpz7oJYKsTb631dWIZ94/adps59hmQ1CI1z1mkS5QqLaefAkhScEeXPXUI33XmGW+feg7MCm7ZyoIrGsLFTM44eP5WfiWHO14UrCVqMgRmNJunckypTFQKtahNirlRUVNS0opbs2MWN6dxFK9K6DxyRGduhp61eSKwYsP6jEathpKt2QITr1wYRrjqNI1w1+bmg6LYO/7A4B2rQ9R08LnPF2s3mpBS1WlnTSCpfybAxd2BQ/dEoglDpPK5DD9vBI8fLxURRAiVnZmWrUA7J/Xk06Mr/1L3IrC2v0fbV7AvH9vDRk/reg0ZlogIGugXjOvaybdi604gJ0crrtAajavaCpWmdeg3OhnMPizzCAl/GtROlpIqUO7SqQwmnYtnQl69Zb+7UZ1BWk+h2jnpNop2/1g+n0MgQahgcSl06BNHIAYG0fGoArZ/XiMYMbkzjhwTQqIGB1LdHEHXu1EQsC1EnIJIB1tQZ2aJDDhbKQ/UBZbmK6qzcMaoz+q59h4muv9/9wwmN4qbtu43m1DSVL9Vxw7gVoHQpIVFz+NhJ/eIVa1I3bNlp7j14ZMbkmfOtPQaMyOrFDf/k2fPTeg4amTlh5nzLvKWr0jC/ac/+Q0bORnToIsNnKfOKKkqcEeZXe0Dtw1Hjp6U3jmjp/KNhBLo4HXDoGU35GZZ4Hca8YCVHlimzJylfEbfbVbpYbgEbemGQSky8phk6dnJ6o4gWjj8aNXXVaRRG0THBNGVEY9qzzJ/0B+tT5tl6RBf8iK4oqitk5+czztSjpPj6tH1+QwZXE4qICqE/+DN+qRdBEbEdHfOWrExLvJasqeiGqyJ18Uqits+wsZl1A6M4Q42gsJh2OctWb0i1Wis2+1SyofOXE7TnLyZoUW4J614FNcUaVW0cfk2aYSkPZ12+ecF2/9EonCWyQqoVgN8j+CZFPLr+4BsVuO9qN27matqyU04Lzl5QHXznngPGy4lXtSlqXYGSQWUhLMmO0kWcNZmmzV1kmb1wadrFywkCnJjbZDSlqrr0HZrlFxSda7yI65izZsM2E2eSEkpSlUJVDVrFtqEfPX7a0Kn34Gw0Mr/5h4lMas74xnRpewPKZAjRZQYTBEApP7tLeT6xLjkS/Mh+rh5d2OJPYwcHUlB4KP3C2VmtwGbOmfOXWM6ev6zjlLZaNQowS2C9oYnTZ1tDYzs40LCHM8CRoaSoNcUuOFvawhL0Gp1BvXz1ptQBIydkxnboZWsUEefAYomADbLkqFZdbJgfNGTM5IxJM+ZblzJc12/dYdoZf9CALGXLzt3GXfsOGvEZYyfPTkdV9C59Bmd16jUwGws5YtFF1DHE2Fy9kGhn3yFjMmBMQHUMnAe3mk06nLlZYNafoBETbVdv2m6OatPVXj801olJzoNGTsy4eu1a/lL45y5c1mIb/YKbEwCLCdA7GKj8v5Dd1lKVRugarMzQKtFcqWSVRj1k9OQMNCa/NoigyOhgWjQpgCxH6xcEUUmU6EdOhlbG6XqcmQVQcGQw/dIgHKvFOtt072/T601lfnftS8IA/15unBuFx4nMBBAYOmpyBtaT8vb6shYa95Onz+pQADe2bTc7bPMwHQAqYbEdcjCxdTnKLR04bIChABNcFagArPjZHTKAMSa/4jmAgp9LhlEkKVmNslH64eOmZbTr0T87okUHOzIZfA+yrp4DhmctXrE2VW8ouVEB32cwpaqxNtcwBml02+45mJgLAOPvcPFh8cgpsxdYFq9an4btQB1F5f0oLXX+SoK2U+9B2XUYzIBzbPueto1bd5qV15SnbDZ7sjIGiJ/xWB5LtEhVDblDixmACu8fCxr4aDzBalfCuVLJsOe26ton+5f6YVQ3MJQmDQ0k0+H65LjEGdXNgMpdV/0o/VR92jy/ETUICiWMf2GZ9PlLV6W6u7CqupKSU9QDRowXNwR/cFYV1bqbHXOALNbyrxLOANEsW70+NbJlJ3vdoCix7Eb9kOau9j0GZO/nBh1dgXnzu0ptyQlkUCjltOfAEcOCpavTeg4YmVVLrL3VlFCGqF23/tmzFy1PS02zeC3ICxci/gY7OdbkyntelDLqNWhUVj3RnRdOXfsOz9yyY5/R7b3JMEYUBkKA9cDh44YOPQeIhR+xkjLqMZ48mzvWVpYCoC9cSdRypmpetX6reeL0eVYsltix98BslInasfuA8RRvB84db++XkvImQMvXi+Xe1JIdNrs9ZemqDakNw+IcvzYIo9CmwTR9dABlnWNQcWbkFUAlET6DgXVlh78wYfzGsEIXWJ8hozNQXbo6zOZHNQiULIIDDW5KbhCdk2bNZ06VL6jQaGPMrGWn3jaMSyqQatGhh+38pSu61FRLudmwE65e02zesds4ePTEjDpNmgpoBUW1cXTtNyxz/aZtJmRNeB3OD1SLWL56vRlmjuDoNg7Yz09wVpiX2SUbzGb17n0HrMvXbsw8dOSY1T17KoaSsd+zFywT1S6Q9cZxdrVq3WYz4Ojl9bcs3KAsW7vRNHrijPTAqNYO/9AY/l80FWNn/D9BlyTh51r8/8FKzz04y8XN3bGTZ25qIrNU9ZQvQit/yY6ibOiFCQPRi5avMwdGtnL8xplVk7AQWjk9gNIxTlUasEJmluhH2vj6NH5IY/qNgVi7cTNnbIee9rMXL+dPpkSDlGZNT4HrDHeTR0/8Oa8Fgn3anGZRmUypKvfuksogrPI6ZtJMKzJKjAW169LPtnXHHmN5gxqLK6Khr9OEG8HGkYSiqhOnzbUCYIWtHuyuNIslxc7bfCUhUYvCsEdPnNZt3x1vOHfxsvbUmYv6aylajVqjV2s52/H2fm9KupaCibfm3oNGZqFrEAJM5y5ckXb2wkUxvgT4rN0oxp/EwpDIAFG7UIAsPd1oMBgyLBZLWkZGhjGVyaPX6zP59xJ15aFAMMoxoTsQwpphlxKSNKVtw99z4LBhwvS5loZhsQxGvnFjKIXGtMvpM3hU1qZte0x7Dx4xQKhl2In/V9Ftutmx+jNu8Dr2HJg9d/GK1OMSWlIlkAe0MJ5V7tAqlWro6HLZsn23ke9Yc7C8ApYPnzuuEZmP1xcZ0S0DK68b8cR6fxrQkzMrhtXvDcMppl0Pu0qrzx+v0eh0alQarxccJRbV69x7cPbRU2f03FgkZ2Rmqs5evKTnCzqjRYfeNri4Nm7dYbLkLV2BumwHDh/XDxs7JX3a3IWWsVNmWjFvRgEhYIHJylhy4/zFK9pDx04W6OIB/JLVWg0aY8CbG+7r5go5brLRwt3/8dNn9a279LGJO2bet2HjpqartYaS3P3fkpDZbd6+zxgR2yEHzj1UcGjVqY9t0/bdprzxJa/vg8xpaaprKSrNtPlL0rBEfkSLjjkhzds7xArFnA0gS0TXGcYim7fpbodjEDb2keOnpWOpdZPZrFIqkBclTDgeN3VOenhcrvkkhLMcTEg2mVNFFxiAlZiUrEGRXVjKNVqdGZACnLKysnCe4HUqPPI5rSkptFC5fdvueJPopm0U6aoX3NyJlXj5s0slu9LpDer5S1emNYlqJUpqAVKRLTvbYUhJUem0ufZ4ccMgjhUciw6HM2XnvgPG4eOmZKACP96D8weV5SW0pEqqioBWaS/ZkWw2p6HfP7NhWAvnL/XCyD84hKaOCKTsc37kuhVYAVQsy7F6NHtMAGdtweJiaxge55w4c54F84qUbTCYzKql3Dh06z80e8iYSRmDRo3PuJxwVZQcAnS27txjjGnX04b3hsS0c2BZ94ysbPF+XOjrt+wwo8uEszZq3LSlY+Hy1WkMH/w9+czFS7rh46emoxsOjRE+X1nnCO/de+CIoWWnntmRrTo5Yjv2su85dNTAwBKNFOrh7ePfsc4Q7M/jp862pqh1+d2XGMzHiq5YDBDbm3A1mf/2Z5aCz0d1jyjcIfO+Y9tEI5yaqnY3KJSV+PhdQ7batms/G6CCbi5Aa0/8YUNR3WU6vVF98cpVbf/h4zJi2nbPgfkCjSXejzGm5u2623HOdOUbh6hWXeztuw/IxnMR3ADDzg4HYD0Uj+3Yy7aYoXX2/GVtUfPs0O2nN5pVY6fMstYNjHIC7OG8nfOWrk7F88rr+HhqFUjxuQ83If6P+HsBuUNLq9Vmc9Zl4Oev+153nb+SoGvXs7/NjzPPBqHNnR179s8+fvLsDceutHzjweeT9uz5i9pLCVc123bGG69cvYabH5WBb5pYapwf4bHtUVSXQRgtssNd8YeMap3hRucBxg0LQovPIwVafF4ytG6uzqFU9RSghQrv77333inmSZlAq8BcqaSkpL2lACpFySqNTj2DsxKMKf3oF05hzYJp7vgAOrnRPze7KqnRgl/vvOhHGUfq0czRjSk8CqAKIz9uwHpzhoQlEjzHR7hBEdkQVoJFI69cxHjE2Bru8LEExOmzF3V4RNalvPfkmXNajIGsXLvJPG/JylRjapq4I4ddXKXTaSbNWmDpOWB4NhpXhoVFpdaIv/MxVJ27eFkXFNXaiTWjUIVjxbrNqYAn/q7BHfGSlWmopA0zQtOWHXN2xR804i4YUMKAPwbn64fGOPjvzjmLVljcM0ZW8vR5iy2Yq4QGplnrzvbFDGU8r/z9yIlT+vWbt5ngzIN1eu+hI/kNK5Y8B1hVOr36+OlzOp3BqEYmmf93Z65jDGV/0jkL8DymmE80dMykdDSQmAPFd/Y5i5evSU0vBBzYJ/4OzfS5SyyRcR1z4JBrGBbnaty0lXMoZ67rNm83IbOxZmaprJyxwlEHZeRmucmnOENavnZzaqvOfWyBka2d+H/je/FZmBx+hhv0oqB1+hzfWIybllE3d/6Tq2mLTjk79sSbdDq9XoEUuvsAIiWbKkp4DZ9LOrwP7+f34Xmv341jOG7yTGtoTFtHLf7uOM7+sUqzt+5aZHkbNu8wDRw+MSOuQy9bCL+ncWRLR/2QaKcfnwfo8sW4YERc+5wufYZkNW7agrPaSBcmgUdydrpp627+3AJdrxrOQI38f0nn/bPwOW/gbdeyxLECsIqC1qZtO00Wq09VP5HyYfG5VybFcsttyQ64wOYsXGHB3fDPnGHVDQihDu2Caesif7KcrEfOCwwggEjJtvIyp3yQ5f1s59dlcDZ1ar0/de/chBqGhIhuj0ZhLRxdew/NFBmTs0yLfV732YAfGgeLJReI7q9BQ5ualqa6kpCkgVvNbYKueN0xhsnWXfHGdZu2mVau22g+ffa8GNzH5xj5rh9VvQGsngNHZa7ZsBXtYn6jkZWdndJv2PhMNNhoWEKat8vZsGWHSfk7ujhRD7BZK85IApu60M22iGFiZXADQufOX9EOHDk+s0FIrCMsroOj+4DhmSkpfy4kiOrhmP8U3aarvV33/tkzFyxNQ1dm3t+TsRx6TLvuNowF1Q5s5uw3bGym3vCnDd1DyTC9jOPsJpCzJ2Q3DUJjnCMnTEuPP3yc+Z2qQneZ++shblCV/RV/w3HBzcXZ81d0PQaMzIRxwo+/GwDo1m94ZlHQwtgkqtDHtu8huk1rcSbCNzeOU2fOZpUEUp4qDrRwjlzju5gtnMXvPXjYEH/4qB7jb+7HChOmVzKMG4XFOurwtmH7kEX683GKad/djlqPGGeKbtPFHs6ADohs6eQbBVdN/9wCulBky472GXMXKdXakYkbOXI4A3RxAyLE2+jEc3ytW/nvOm/Q6jVoRFZ4XIccnFcYA5PQkiqp+NwqFWg9CEjxB6wpa0gp4gsi2Z7jSNmyM97UocfAbNzd/lw/jGo1CqXmMcE0ekAgbZnbkA6s9SftgXqUsKsBGY7Up8wT9ejcFn9S7c21qC+d2oiimgdRvaBQ+r0Rv79xU8LkTGQUcIF53v1XdvE/XKxRhHWUPOvHmRlcoyZNt9Zt0kyMxTXnhuz0mfM6W97rMjhDSeK8Ft2a6GbEkvUwnmCcCX8H2CfOnG9pxsePsxV7/xHjMmB5zvv85CPHT+mHjZ2cjoY9JKa9o8/Q0VmqvAoR+Gx0rTZt2Vk0aPU5u1q6Yl2qB3Dyha64RSvXpKH8kOgubNnJMWz8tAwUbUX2lPc6fLeGwZHKykhLS3PwQ5bFYsnkpMDK5xC6zZRjgMdkBrjpemgNy5yZB6281woBDFiEcu6SVWm52VUkhfJ+TZuzMONmIOUpd2hhPMsbtLzpAkNq6854I8b6GqLCS+NICmvR0R7XoYd9JWfi6CqG3T+Nb4Yys2wpOBcOHj2pT7iaol26er0ZY7BB0W1yMOEeY7ZDRk+07Yk/CEdoBoPJodfrCdLpdMTQIn4OcvHvLt5WdGNeBy2M5+1iaOGz64fEiJshBVqY0yehJVVcKdDCeFaJoXXnnXe+ec8990x46623lq5fv34tn6yXvH1JWQgNpcFkUu85eNg4eNTkjCZNWztqBTQjlAiCvT2kaQj5BYZyxhQs3IONQoMpOjaYAjiD+oPBppgoGoa1dEa37mpHlXZcuHD8efu+qizAZtTE6VbchaMxiWjRIUer02sUa7abRMPuJvE8QCju+FPUosqFW2Yo3oNGMeFqkub0+Us6LOHhfjOQlmZRzV28MrVRRAuMAbmaNGvtwAKB6BpVPt9dGr1BxVl1Nrazpn84te7cy75tz/78LJCFbTEyoLK4AXXxo2hg8xpW8bPJZHJwA5zJ0CkSWqjJ90fDcAEtvokxK84/iD/DHH/wSBZDOqttt/72vkPGZMUfPGoymFKRkReAz82quNBKVqnVAFHPQXnrjTGk8D9s02OAbdW6LWbMqPe8QckDitjn3N9FxpmMrt5eg0baR4yfmrNh63bnxUtXnHq9Thw7BVKe8oQW37CmAlr43DylmM1pDK2DXqEFE4aEllRxVQi0ihd/+ctfmvz973+fXbNmzTVHjhzZVp7QYiWjcVRrtKptu+KN6GJCjTe48WCBDghv4QyPa+/wD4sRxUCRNWBy56Tpc6wLV6xOxbIKKpWuwkoJ+YLSLNaUxavWpQoAsFDYF+NSNlvBBq4shGxo/abtZoyjoBs2NLaDffaiFeh+8vrdKIPVtmufbJgAMFaFxi8hKdeIkidVVlYWMyrNiUbUs2FFgwvhb4AWZ1qZ/B68X/k+PDK0tpg69xma5Q6t7v2HZS1YujrjwOEj2QwPuPD0DBMABfBV2+x2DQPwljMrTwFaDACjRqOxeUIrO9umWrl+q6lZ6y6ii9aPM72WHXvZUFYq8WqyFpOcldeysJ1GZEqsLIw98WfBiajsP9bE0mm02szExKtO/j4AqFBIecoTWnx8CoUWuiPdodWhx4DsYydPA1rV7mZR6uYEaPG5thfQKnEJJ3donT9/fl85QytfMD8gK8D4BX5GBQGsaGvJyFBhnAVjFfy6QisGVDdlZWWnzF200hKAJSm48QiLae9Ytmp9KrIlb68vTfH/IhmTSTmjEt2ATZq2ykGVCJgyvL3+wsUrmu79h2fCCAC14oY5OUXtPtcIBg7MZXIYjcZCG1qlEVaghUyL3+sVWl0YWpy55xXHjcCiiLYlK9djjhVMJtfBpazkCa309AzN6bPntegOrxcS48RYE8YOkZlyLqZym5cGiOoBKewry8US+45jBGADXPyZmfxcDmDj3t1XEinHlN/v4t9vkGkduA5aE6bNsUpoSZVEfH6JYrl+fn4A1i5WoABSccJXoCVVPKFLFfPHmjRrxcCIIKz3hUKvWVllDytoy449xuZte+SIOTqNIlxtuw/ISs2rnecpbGv84WOGOo1z54M1jmzhGDVhWjoMD3mvQQONeVNmbjDR8BbZ6Cp/LwxaDGzY0DOXrlib1bnnYHsutMJdUPf+Q7OXripbaDFwRKZmYTCZUy2abJtdbTSliq7BS5eu2Ddu25lROyDX7o8KL8vXbE7FGCS/RzlmGr6Y081mcw4g5Qlw/OwGphJlUkUJn+EJLWRaeV2vyrYlm82palS6B7TqBTcX0MIcOQktqRJo36lTpzY99thjGf/3f/83jRGEkn4lC0DrkUce2Tx06NAlElo+reSTpy/oB4+amAFYYZn4/iPGZeqNRmGCKGsh+0VB2tqBuTUAw2M75mzZsddQWPUMjcGgHj9tbnpetiOW+hg1aYYVc52QqeW9Do2cgBayhRtlCvgbXoMGFg07N6wWfkR/omJDh0VbvWbDttRufYdlY/qAO7Q2bd9l1uoNGNO6DjglUY7DoYaSklO023fvN4+eOCtj9KRZGa0698NE8+zApi0dkS07OQaOnpTZc9DIrLbd+znqNmkmwB0U1cqxZMXaVNj1+bNwDDB1Qc/7kc2QEiDytu9lKQVa/Ci6B/l4ekIL/69kLMszYfocqzu0Ytt1t0toSRWhfawVP/30U8Jzzz23hpFTI5c8Nxn33nvvE4DWa6+9tkFCy2eFCc/qIaMmpWMcCBbytt36Zx89floPa7qX15e6sIxHDDdOcAzCldhjwIjMk2fOud+FuwurA6dMn7vY0qx11xy/4ChqGB7raNmhtw3zzbKybbCqK68V0OKMKb2k0EKmxZmVhT8LWZsyFoVH9ZpN2wtAKyCihaN7/2HZu/ceNKdnZCIzuw5ENxK69Q4dOWnqO2RUVmTLjo76wc1F1x66yeqFNHdhCXs+Nq7Gka0cjZu2dNbhmwrFag6hNNW4KbNsySkq90nfKv4ZhpNsZDlF7XtZCt/rCS0OEx/bfLBC3qCF8SwJLSk3CUhFREScKhVIeYYCrU8++WSdhJbvCQPx0+cussCNByt2cFQbB2z87pN7y1Iag1G1eMW61Fad+9q48SfUBUSliIuXE/Mt9J7C8h47dx8wMmQz6gahlmBTQgWQ0oZWamqq3WKxICNIY3jp7XY71jrTGYxGHaAV2apzDiZjI8sLiGhZYmihi+/8xcuGrn2GZmGBRVTiwP43iohzDh0zOXPBktWWs+cvGc5fuqK/ptJod+49YNp74JBp7ebtqZ36DM5GJQt0A9YKiHDVC27m6j1ohIM/z8qfrex7MrIZzrBsN9rvsha+W4EWPzoKgxa6Bq+HVv/s2QuXpXrW5JSqNjrNEpB66qmnTjNWvsylSxmFAi2MZ0lo+ZSS4w8fNbTu3DvXaRfYzNWux8BsU2oaBva9vb60lQxX5xxRWbxdDrI71OAbMHxsBu6oM7OyvAILSkxK0aCKA1YNBjQ8oYWCwp7QYvikc8PtQONZVOONvynQUh75ObwPXWsZ3NAa9AaDbs3mbV6hhfGswqCF8ShY3fmmwNK2a39bLqSaUp0mTV19h4/J2rJrrzkzs2jgpaamaY+fOmcYM3lGOhZmRGbqx5/Tqdcgx5HjJ4VrkV+H/VYD1EXta3nK7VjmQ4tvAlARo1BoiTFNCa3qqHxI5Y1LdWeUlG42VVS4Q2vKlCmrAS2PDZQqZ2HCKBp9VIRAwwCr/4x5SyzJqj+rUZS1jEazGhNUUWMRXV/YDsx7Wr1hixlrXHl7j6IC0GrSTEz0LgJaKgZBGjeaoioDGvGiGnL8DQ0sDAoKuDQaDSUnJzv55yz+LFNuprUtFV2DdcUikUVDC11+IyfO4G1lSAWI5fddfYeNyVq9aVuaB6RQm08Lxx7DEalIGhyPeF55DbNXe+b8Jf2I8dMyOPMyHz9zHhZ1pRoGJkSnm0wmO29rhXUFehOOoye0MJ7lCS04B0dOnJYR00FCqxoJScyKfv36HagQSHkGoMUbMUxCyzd0JQGFYceKBrROYJQrqk0X+77Dxwzl1R3IwpSCFJSE6jV4ZEbjyJbOuk2iMX/IOWbyTCuWmccyH17el69caO1laE0uAK02nftmb9iy08TAMXEjmcHKZNm40XQBPAqQPBtURfg7hMYV0ILwendoIdNSugc9oJUzaPTETEArIzNLYzSn6voMGZUlKk1wFhnTtkfOuKlz0lMwyelPUAFGGnQ/ohFn4IgyR/wzsXKYXcjsME8qH1oeP6MMk6jkwdt2wyyyIoVjWmJoNWRo+TO0ug9gaC1naMliuVVI25YsWbLXJyDlGXfccYeoLyihVbFCUdndew8Zolp3yUFDy3JOn7vQgordbllJmQsVF7hBV02ZucCKSa7+YbG8LdEuFOsdOHx8BuY/nTxzXhgwCnMNumdafkFRhC66hvw5PQcMdxw9fjL76tWrOUlJSXTt2jVSqVQMHh2ZjIBRwbJCnlIafQVaeY3sDaDVLLdYbotOOROmzksfzhmQMFBwhgDL+ZRZi6x6g9HdTSggxdlRNjfc+fOilG3CzwwujKflYCyKAWdFtpXXlWYAxPj9WIIE43MolXTTc6fKU9ivvP2EzR6uTKs3aO1kaI3Ih1ZuNRMJrSqhfT4LKc+Q0Kp4wWyBhfXQiKLLpUFYjLNr/2FZnF15hUJZChOTYaSYyo15u+4DbKGx7XKw5D7uqlt36WdDYd6pcxZZsEBiWpolJT09M8XNvi4qZFxOuGqYOX+JPSy2PWdoAlqYgEo9+g+jA4eO0JUrV8ioS6Esq5ZcdiNRjpmsabkZVlENPJ6H0LgqWRZ+V6DFz2UCWucuXDb2HjQqC9DKq/COycXCNICfsZzMrIXLULVDARUqqggHH+ZGFbUNSuPOwuuE045/dkD8O8CZv53e3u+rUvZJ2R/AuHBoTc+HVsPQWAeghQzaYpElnCqRxFypd955R8ft/3ZGge9CyjMwniWhVXFS6w2ahctWp/oFiSXMXYFNWzuwbDs3vuUOLAhWdYPRrN64dbdJrFDbexCMIFQrAIaEZpxxxTnCYzs4xk2ZbR01eaZ14fLVqXviD5l27N6Xff7ipeyEq1czjx0/lTNtzkIXQwtzyQS0GoXH0oLFiynh8imyZajIma0jsutZRsrJMgpooaFH41lYg6/AAK9RoIXnka2p1eocC4c7tJpEtRVrRv3eIJSwHAf/7Jw8e76VM0kls8JEXow1oaGudKApTWH/lWOAMbfCoIUlcVAguUlU7jI3ElqVRmjXy86GXp7hDq2dO3eul87B8lNSshpzrzIwdoVMpmmLTvYZ8xZbMInX2+vLSVjoLzkhKVlz5OQp/dJV61PbdO1vC41pn9M4ooXTPzROmEMAMExuRk3ISTPmOs5fvOhCd99lzqIOHT1Og0eOQw1EAS3M0wpgaC1emgetdFUesP6EVrqlgBvQa8PqDi1FeJ6zrALQWr1xW1rvwQytZm0cmCsFeE2YPtd64WKCgRtibWpqahZDT5RFUj6juks5nji+yDi9QQsLdQJamDztWXcQXYMSWj4lTxt65YWUZwBaSgknCa3yEYwOV64maUdOmp5eC+s2sSJbdHRMnD7PeinxapEmh/ISJr/ydiZjrG3vwSOGtRu3pk+ft9g+auL0nLgOPVxd+g6jBUtW0Zmz58TYlEadQhlpGkpPS6GkpHM0ctwEatoyF1rItAIjWwhoJSWeYWipSw1a6BpEpsUQQl0/q81mM6xat8WyeMU6y849+60pKo3Zmp5uSc9Iz2ZYibJISoYm9aeU46lAC/PHAC23cyIPWgeMXfoMcYNWnAPdyOcuXta6TZiWKn9VrA29PMMdWugalNAqe505d0mH7rXQmHY5WMQPFdInzZpvuXL1Gpb09/qe8lZ6erqRGzHh8GMoZHM240JGk5h4la4kJFJK8lUBqZwsHbnyAaSnLGsKJV89K6AVLroHm1G94GgKjWqdB62zpQYt/Iz35D06OXOC+UEsYIhMCk4/BVKFfaZUrtyPaVHQ2r473ojK+bXRXRwY5WzbtV/27gOH8le5lio3VR9IeYaEVvkJGVaqxaqaMnuBNSiqtVj0EKaAjr0HZe8/crxCnVfukOJGLJuzJ9Hdp0jJpHIyC0LKU2nGRDp2NJ6hNZ6h1a6Y0DLlQ6s4gMHf80CV/3r3n2/0fqmCUo6fcty8QYvbBdWGTTvNcW17ipWo4cqcMHOuBU5T9/NIqsyEdnndwoULt1U7SHmGhFb5KTEpWYPl7lt26m0Ty6A3DCesG7Zq/WbT1eQCa0qVuWw2m0aBFDdWWZxN5XiCKtWoznP4FQRTURLQOlYQWhjPyocWZ2F/QsvAMpIt00RGQ0HweDasUmUnBVosOCKd3AbAWYn5ZtccDleySq3TjJ44Ix2FkgEsmHMOHT0Be7/sDixbVR4benkGoCWL5Za5YG5I2bxzn6nfiPGZjcLjXHWaRDlR5mfCjHmWo6fO6ix/VvwuE7lDCo9qtdruCSmTXlViSHkqOemcB7RyTRgKtDLSUtycgxJaviAcc8xH4wwrKycnBxm/gBFnWslbduw1RbbomJNbc7GFY8jYyem4wXKW49zBaiT3JTsqlw29vEJWeC8fYVE/LFWPNbDCW3QQDQAW/2vWqnPO4pVrUzHnyW3hv1IRNz4qwAlZVFGQyrRoyGljgOQUhM/NKhda+2nk2PFUPyQ6P9Nq26mngFaW1d3ungstdA1KaFWMMObHEutnMYjQ1SfOQ4PRrBo3dZa1fnC0E2Wt/MNiHfOWrErFvDz380zqllR1bOjlFbLCe/kIwDp97pJu0MiJoiwSiqg2btrKEdu+h33l+s1m1BTkTOiWoaWMSxUFKW/midJU8tVztHPnFgGtesFRooRTcaCl1/05VuWtcZUqXfE5IoDFGZbDvTsQDsBrKrW637BxGVj6H0ahZq272Ndt2m4qr2VwqrAkpG41ZIX38pHJnKrad/CIsffAUZkBEXFOFGUNiW7riGFoLVm1NvXClataj9VriyV3SHFDVLh5ogwh5SlAa8euLTRm4iTOJqPpD0ArLJba5EELc7TcoeXMNlCqGc41aUMvD+GmIC+jRR1FO98soeCvuGFCZRY4Adt3H5CNeYMAVr9hYzPPXUwobN00qaJVYK4U2lpudiWobiVkhffy0cUridrcSgJjMrE4IDItLBjYslNf28Tp87Amky6rGIPaxXb4lQOkMtOSxWMKQ+rEsf20b99OWrd+DU2ZNpVad+nODV7u8vqQd2gZyJZpJCPDSmZX5SdkWAAWsiun05lv/knlm6axk2ZaMSEbrtao1l1sK9duTk3zMtEdz1kzM1PcVl6WylX1taGXV+RVeJclnMpYSckq9fFTZ/UjJ0xPx9pMtQObIgtxhsS0d/QYOCJr1fpNZs7GRAPgXoT2RpBSpSQXy4Z+K3LZ9OS0MVRSLtDhQ3to8ozpNHDYSJTvocaRLVEZQ4AJK/MKSDUKo98bhtFvDUL/hFZ4LLXv2psOHtxDGanXBKzMJs6u9BJW5SXcGKA7ENkV7OzKOQbtOXjY0H3AyEwUv8XK2E1bdMxJSLym4cxLnIsYx7pw+aoWVf7j2vewd+o1KBvFnS2War9KMXqlVkgbejmGLJZbPjKlpqrOXb6inbd4RVpEi045fk1gdw+jekFRzoi4jo7FK9ebd+w5aDh34ZLx2rVkLNdRqjb0kio7XU3nzx6hEeMmUKsOPbCsCFbfpbpNmgpzRevOPSm6dUcaMnIMjZs8mbZs3UDT5sykoaPG0MDhI6lNl9y/o4upLgO6YVgM9Rk0hPYfPECo7q7Ja0S9Na5SpS8+n0R2xdCy8/mIuovivMS8wdNnLugbhsc5cXNRLzjaOWbKLKtGZ1AnXE3WYoXqiJYd7QAZVl9G4eRGYS0c7boPtB09cVpXTaElbegVGbfddtsPElplL4wVYNn6+ENHDf2Hjcv0D4111g6MFI0Exg3adunn7DlgmGP+0pWOAwePuA4fPZ4PqdKwoRdXacZrtHvnNmrbtQ/5h8WK7AndfDHtO9H8xQvowrmjZDUncWanEa93ZOuE0N1nz1AzUBPp+LH9IhsLiW6NAsAi8wLsho2eRPv2H6SExETUCfTauEqVrnBjkNcd6LRYLBl8LuZ3B6ZZrKrpcxdZApu2dNQKiHQFRbd2dO03LCskum0OVmzG8jgBkS2cbbr2tUW06GivH9KcoRVZHaHlDqlp3GxKSFVkYDxLQqt8lJmZmZKi0mlmzFts7z1wpCOmbU9nw7A4wmRNbiSocdOWFNu+Ow0bM4G279pGx4/Hk1Z9kSzmq9fBpbQF6ORkaunqlTM0fdYsatGxGzXgjAqFcTv27EdTZk6nkyf2UzoDy9v7FWVaUujK5TM0c95CCovrwJlWGP3aIBjL1dOk6XNpb/wBCa1yEDIrrPkFKzsrx+l0wkghAGPjG6gz5y/revQfnoXlWlD9/o+G4VgoE8VvXZ37DsnaE3/EqFLr1FqjSbX7wEEjliFBrUEFWuMmz06vwtASc6V++umnBOnw88EAtGSx3LKVm8MvU6PR2HfvO+hav2UbTZg2m1p37kUBEbngahDSnDDWhQwnmLOU/kNG0PhJU2jeggUMjAN06eJx0jHEchgwevVlAQl7Rm7Gc6vyhFZLQCs0hmpyptSxVz+aOH2agJa39+bKQPZME+m0ajp95gL1HzqGwmLbXQet+AOHBLRk12DpCpDCeBUgxeeZk2+Q0vJKMOWPj6o1OvXufYcMfkFRzt/yxh/9Q2Ncse172HbFHzJeSUjSoECy8nqn05ViMqdq9uw/xNDqkQ+t0OYdqhq0cKMubeiVJSS0Sl8qtcZ86MiJrN379menqFTZSUlJHuaJJDLokuha4lluxHfR/CULafjYcRTduhM1b9eZwdUM6z6Jyu8wOfiHNacO3fpSZFx76ty7P40YO4EWLF5EazespsXLltDmrRvp/NljdOrEQTp96iAdOLCTDvHnJiedEZmPd8gUlAKtvXt30IxZsxla3QtAa97CeYVAK9cBmGbObTRRcf3YydPUb+jofGj95NdErKUloVV6wvFTQOUBKUBEgEel1Wo4o9J27TckK7BZK+EI5P+pC65VFGs+fOyk3h1SLld6iitHI+Zq4TNQwSUxWaWZNHuBxR1asW172vn96UdPMrSslRJaVXfJjuoQ7tBC16CEVsmFTEql0mSOnjA9JzS6nSu0eTtq26UvLVq+WkDKuw0dk2pz6/ShDt/x4wcoft9OAY3hY8ZzBtaDuvUdyFlYC1EGCQLEcHeMcSZ06dThrAzyC4pmQLRl2EXynXNzCmrWmpYwzArCpRDZ9MJ5mJGq5m1R0Y5d2znTArS6ifEoqFOh0DKQw22OFRpQlVqdDy1ki4DWbw1CKLBpywLQ8tYQSxWtQiCVX8FCgdTQ0ZMzvELq6Ek9xlaV89blMqpc9uN6l6Znlks3MNNlXWV2OSzK371Dq1Ektesx0FbJoCVt6FUpJLRKLncb+oWLl2zjp8929RgwXIClS5/BnPnsIIspRcCg+OYJgzAywOBg1ieSXnWJLl86TkcP76U169fQhs3raPWa1TR30QLqN2Qk9eg/iIaOGUv9hw2n/kNHUMee/an3gKF05dJJzpq8ff6fQlYFiMLgkZKcLMCafC2JdJpk2sPQHD95MrXgTOtG0ML32DL0AlpGY251hUQG0ubtOyW0SkHukEJNQE9IWdLTMTaVD6majcKxblk+pPYeOGIwGs2qP0FlyoWUfly6S93W5tI0clFifXJdDXa4VN2yXembTZ7Q2h1/yDhplie0Btimz1+cdvjEKWxPgWvDRyQg1a9fvwMSUlUwJLRuLM9q6CluNvRTZ84IqVMSStnhl5uJKQLMYEOHsvK6/LIsyZSemkwZ/Ajgub++gDibyrIUhJQAVfI10mpSeLuRBWrJntc9mAutG2dagFZWem6mVRS0MJ4loXVjKZBiiTqARUEKJcAEpJo0y4fU9t3xJrVGXxBSrqsaV9qcNAGpZIbU1fpECfVylViPXFca8EvyoJW511AYtGIZWn8ERFBNVtvu/X0NWmiztkkbejUJQEsWyy0oz2roKSkp9m0797hgnJg6ewGt3biVNKqkcrOhl1h5kDIbVGLysTukVKpkMc/Lls7bjiK5ee+Bbb3k0DIwMAtCC12DRUGLM1Mx7uWt0a5ucoeUyWSye0LKZrcnA1LLVq9PVSBVu3FTAalOvQdnXQ8pVKdQINUxW0AquUEuoC77FZQ3aGWd0HlCCwaN0ZNmpcd26FkAWjMYWkcrFlpyrlR1DFnhPVeFVUPfumM39R8+DtXYyT88lrr2G0SnzxwlyimYBVW48iCValKLzCm/y48hBeXO89IUgJSnYMLwBi2MqQFam7ZsuM7ufiNoobo7ugYBreZtu+VC6wKg5b0Rr+pyhxSfZ87s7GwzgwrzpvLNEKj2v2rDVpMCKWVcqkPPgdlFQ6pzlisl1OFK8nd5hZSnGFjFgdbu/T4DLblkh4zqXSzXzYZeoBo6lpO/lpxCW3fsoOmz51CfIcNp6YplZDVfK9BgV6gYPhgv84SUAipACsuNFAUpT7lDa9DwUcJ+D+cgoAX3oDdoYTzLG7RWrN4goFW3STP6vk5jYRZp27Uvrd2wmbdPVW2cg26Qws8uPuesnpCCeaIoSF29plL/CSk4/a5qyLoyNR9S1xoWD1KecodWUkiOSz8yo0hote9pB7DcoXXk+MmyXGlb2tBlXB/eoOVx4lQZuUOKG5T8Gn5JSdfoKuvCxXPcoF4SDj87xncy1Lk1925gaigv3QhS+fUHSwAqd+G9Jv1VUfS2d//BBaDVqUc/Onk83iu0sKRILrRyG2dAa/mq9ZyhjqXWXfrQgiWr6NTpM5SSovLasFclAcbKcUAmxTeA1qysLHNaWpoV5x0yekBqT/xhA2zo6DpVIMWZqH3OomVpBR1+gJRe5craZcyHFLr8EvPGpbzBqLgCsBLruwS0rkXluMxTrO7QArCUMS1v0FqzcbsZFTXcr7Fb1BGWtKHLKDqqcoV3d4cfNyjXFZq9fPkiTZ05i9p360e9Bg2hJcsWcqZROhN1S0Nw+AFSOu31kNLr8iz0twApT+Vk6XOhFb+TOvXqK6AFp1hAeFwetK6vhiEyLauR0lJzG2ooISGRLl66TMkMKb2+6q+NpWRTgFRmZqaFMykDn3+o7ad2Op3qaykppsPHTmYMHjnBVjwbuul6SCnmCW/wuVm5Qyulja0oaPUbNi4T9TIBLP/wOEcpQauADR3tEDdJElQyio6qVCz3RpCCISHTouXG9yB14Ea4QVgsNYqMo2mzZpAm5QIDoIKBxfDxtKFDgBSyq9KGlKdsmdz46hJp954deSWcFGgpmVZR0BK17YQ8G/WqJndIWa3WDHdIsVSWjAzNmQuX9cPGTM5UIFU3KArV8J1jJ89Ohw39OkjBhg5IJTUrO0h5yh1aGM/yAi1zapp69/7DRpR7ahAS43KHFroGSwgtOVdKxq1HZYaWu8MPulE1dGRRJn0iJVw+QSdPHKSkpHPkyNIWaITLVQyfomzoZQop/kxkcumpGnGM4CjUalR8TC4LaLXs2APZgIBWeGx7mjh1WpHQQvdgVYWWG6RgQ7cVBSlPG/rYKbMztuzYYz177mK2wWRKRfdgkTZ0b3ApK7lDS90l25W2IM2Vw9uVd30BWqlpaao9DK0O3Qdk1w1s5kIdSv/wWEfbHgNsx06e0VuLXnYfY+NyyQ4ZpRuVqcK7AiluOLidyDCyTAaDDhmVaOjxmOuSA6QMdOTIHjpwYDeprp13a2wr0PWXB6kibegZBW3opSZ8Jgs2d3xPisf36xiS2VYdmTjTWr5yBbXs1POmoFUVugIVSLFKDKkBI8dn7tgdn6rR6rVZ2dkadA9mZmrNBsNxe7Z+RpZT1SEXUoXZ0MtLVxlYKQG8VwxNE2dYzjTsW745RG8wqTZs3WnijCrbr0mUKKhbt0mUM7R5e8e6LTuMRcBK2tBllG2gH9lXoaXY0CFAin/XOB05WleO1Zpp1TngjkM2Ais35hjZOJM6dGgPde09gBpFxIn1m6bNmkmJV04WaGjLTXmQuhUb+k3LDVIW8/WQAjTTeLsUhyGs644sPV1LOEcz58wtAC10DRYFLWsaspDcLKsyQssdUiaTKcdut5v4/MuHlM1uVyddS9EtW7PB4j5XCutPdeg1yKZAKptvqvB6lyuDH6/qnKmzrchgnMlBTleSf4VDiq4xqNQt7C7TZKvLnsL7hy7K3MVGAanN2/YYewwclRnYrHUO9q9ecIwzLKZDzvI1m0xag7GwbkB3G7pcskNG2Qeg5UvFcjEuZTabRSYlIMV3qi5HltmVk5rlsutdBRrlvJ/h8rt48TitWL2S2nTuyepFu3dvI4ux7JfzKCDeJnTnlaYNvUTKgxS6/MT354HKHZLpDHlv358LLR1D6wxDaw5D68/uQXdoub/HZTNUSmi5Q4pviBTzBOYbCUhBaq1Wt3rDtvwJvfk29CIg5UqbYxHdbCWZK1VWSmApkDIMy8iFVBZvay6ksArx7n2HDROmz7MGNmslIFW3STRni22cg0dOStcaC4cUa4VcskNGhUVFQ0sxT1itVjNAxY0HZ1OZDKm0TAGpnIKNqzehsbWYkgSkUHi2PMepBKSMZWdDL1JukNLDYegBKYMupVBIeQrjWzhu8fE7vUJr3oJ5hULL4uPQwjZ5gRTmFxWA1N79h3PnShWwoXfPAaQuXkmAwy8PUnZ+H0Mga4c5H1KYKwUbujeAlIfcIaXtle2ybjG5HKjWngsp6OyFy9qZ85elKZBiUUB4S+eA4eMzbgQpOVdKhs+EO7TQNVjW0PJ0+CUnJzshg17tsGfoHQWyKV8UAyAnQ0tGBpInpMrChl5A/JkO/uzrIJX3/YCU1awm+018vzdoAVgKtOYytE4cjy/wHgVaGM/yNWgp2ZQbpDAuBegIUAFSng4/QCrXhj4n/fDRk8Y/IQWZGFK7/4RURZknFF1hAVKqZjn5kMpR8/YWhNTS1RvNgFSdwD8h1a5b/+wiIOW5ZMeXuS2FDBk+EmUNrRvZ0BOuXCaDJpGOHo2nI4f3cuM4nxYtWUijxk2gpcuX0J7d22jL1g2kV1+h7HRVgUazvAUYAQoKMMrD4YcssihIYVyqNMwb7tCaMHVqAWh1BLTm+za0CoFU/riUN0jVC0F3WC6k9h04YroOUvbjRgGp8rShFyWYJ5JDnPmQ8hiXAqSUcSlkjAqk8selvINK2tBlVK4obWh5VkP3tKGfPXuOtu/cScPHTKBWnXtScHQbqh8SI2rc1Q6IoN8aRojl3Ws3jkSjQk2ataGeA4bQMYYaugDdG81yFUNBwCmbG2uojCCl2NDhMFQgJUDFkNKoc80TZeEwxPeiyjsmFpcEWpl5zkEFWuUFLjdI4ftgoLCh8oTT6RTg8Zwr5e7wA6TQ5Wc0mt3GpRhSGJfSj8twqdvZqzCkcH3LJTtkVM4ojWK5ntXQ3Wv4QUmsEyeP0+JlyyiqdQexlHwdBlLDgHBqEx5JI2Ob0ow2UaxomtU2mkbHNaPokHCq5R9GP/uHU/3QGGrTrS+dOX2o7DKtsgBQcYTvZRVmQy9LSClyMICzrVqx+CNchjv37MiFVseC3YMrVi5naBUc0yK7kexZZlHGyWTUk9ViZpjoyGTKhUkeUITcYaY8p/xeHCmQMgFU/B2oEs83RHyckiHn1WvXsk+eOW/2ZkNXIFXQPJEHKWGe8CFIXQtwuTRdbC7zLEvRDj8BKRff8N0IUpBcskNG1YibgZZiQ+cGp0A1dKWxhWBAMGiviuXgsRwFlo6vxZDq2SySTveNJdOwlpQzuhXRGNbY1kTj2lDGyFakH9yC9nWPpaZBYfR7gzCRcYU0byPGU0qtWgU3/rCZo5sPoIBRAdAoKygUkBukimND9/oZtyh8LiCY5gFJjSaZLJzhxe/fxdCaxplWT6rFwFKqYWzYuI4z3Vw3JqYX5H6ekWXgLC139WJ7Jiq+8/FNx/L7JiHM4Uq3mETFDAsLcDNyVmY25RbYzS3/lPszwKTADeLsSTxvNnEmaOPPg+nDrBFlrbBm1+59B2jOwqUUENmSz5U/l+zo3HtwdtEOv442V0qwwxfmShXfhp5rnigmpORcKRlVM4pb4V0ZlyoKUhjbsaVr6ML549S17wA0IPQrg2dEXBQd7xtHjtEMJwAKGuOmvOcArXP9WtCQmCj6FV2ErH6Dh9G1hFN5DeRNihtpdOt5c/jhOYwZeX1faSkPUoXZ0Evi8Lsp5aASiO46SEJqMaFZJf7u4O+HAK3eA4cK52CtRk2pYWgste7ck6bNnkUnTx6ilKSzvC/XODvzzHqVSdt4vF7oSoRysvBoFKAT4p+zMwxCtkwjC5kbgGcUIMx9f+53XEs6TytWr6bGfCPkZkOntt360fpN2+zXklXGrOxsbvg9IeUjNnR3SBViQwekPG3ogNSNbOiYK/XOO+/oGFJyyQ4ZVTcKq/DuDimtF/OERp1nQOAGH+WRkAVduXSK4jp0o98bhtPv/mE0qWUUZ1R5mZQ7pDzFWZaBM6957aKpfqMw+s0/nNp07SXKLKGR+7NRLL4EpDhjKcyGjkwGYzje3nvLcoPUrdrQb0p5kML3e0IKxwKuR3y/0+P78XuaMYkOH9pDw8eMF5OzawVEoouN6gdHU68BQ6htl540ZsIkWrhkIS1dsYT2M+COH99Pe3ZvJYsxkYy6BEq5eo6z2CR+PCs+15aO450izhF7RmHZ8p9wc39eq75AGzatoybNWuVDyp8hFd2mC61et4kOHTkuVkDmG6kci8VksdkumZ2Z21ML2NArElJ5NvSc5FhnjqpnjiP9gLShy5BxK6FA69tvvz3eqVOnlHXr1pmKAyn3hkWvvkyDR44mLA5Xi6HTKiyStnSNITtnToUCKy+7ShnckgY2b5oLOs6s2nTtKQwXJV0KBAAqz2roBcSfWVY29OIK3XUYlzLoCpo3IJRnsvK2eULKm7BsfxJntouXLaZeA4dQ+259KCS6DdULbs43IvgfoQsukuowyKAmTVtwAxtH9UOiKDSmDQVGxlHHHn2pDcMtqlUHmj5rNvUfNpwmTptOU2fMoHGTJtEuBtwBht2WbZsogb9Lp77I33ladD1eOHeEDh7Yw4AcREFRrXIhFRZDQQythUsX0qGD+/hGhOGbt48q1SkyqtZSVmIHl+NaiKvCx6X+nCuV49L2tpF1a6o9O8WYlma2cJjRtV4YpEpoQ5eQklHtIvD//u//5t11112rbrvttoRPP/3UHhsbSwsXLsxtDLhRyG/ovTRukC1DTTt2bKG2XXvTbw0wBhVKXSMjaE3nGLoysAW5GEoQIJXbNdiGjMNbUeKgljQyrhmFBeW6BENj2tFQvrM38V16Nn+mt+8qIDS+LGwfsiZPSFUlG7pXuX0mYGk25oIK343tAKTw/QJSxZiY7S6RDbGSEs6QLuWiWAxy45Z1tGz5Uho9fiINHzdedB3GtutKzdt05oynE7Xo0D3PARotuu3qBjWjhgyyP0QXbzj5BUUJ+GDlYihAlNeK5ewtihrxI8Y849p3FSW34CBVIDV5+nQ6fnS/OM+wbdgfW8YlStevp+yrHYghRQwpoqQ8SF3xI9dFFsPDfpYfL+X+LOYzuYOlNIXPTmJIpcDhlwspV45G53LljqOhmsvxU2fS5ixa4WjdpV+Ou8MPkNq156ChEFBJG7qMah+ikvt9993X54knngh48MEHJ95+++1nGFhOfp4+/vhjGt6/PZ04sKZQSBWUgXbu3Ezd+w+iJlGtuYEKo1r+odQpIoKGxMANGE2bujanhe2jaU6bKBoYHUmRIXyn3iicanHD5R8eQ5NnTKNLF497+Wwv4gYLmURFQaqibOhFCccD3ZzI4rBt2enaYmVTxZN7N11ut52VszBkdCiZlZmmEtMPLl04TqmGRPF/3L9vJx05vI82bdlIJ44fFCW1Js2YSuMmT6FREybR4NFjKLJFe87GWgqIoQs5F2rNBKQmTZtKBw7sEl2Lf373FaKsfUS60QyHZkQpDKlr9cl+qR6p99Wjs5sb0PTRjWn+hAAa0T+QxgxqTFNGBAjtXuZPmvh6pD/MQEMGVFrwyreh97blpG6yOLKTjVlZFlN2dqYhOztbf+rsefOmrbvTegwclR0Q2dKZBykKbd7euWzVhlQJKRkyvEc+pJ566qn6HB++/vrrze64445r/LwLoLr7rtvpt88eo9pfP0G92v5GGxf3pqSzG90aDO9Co2U1J9Oadaupz6BhfKfdTZgmkDXB8Yes6zdukOoEhIvncPcNB+CYiRNp+/ZNpFdd8vq514kbYGQ0MAoooAIklGro5VFotqJs6GIbvD3vrrzt9Pq3CpC3MUKz/gpdTTxDYydNEsCq2yRKjJEpmdTuPdtJp7rglmEzpOwniczTidRt8yGFJTQubGtAc8YHUGTzYKodEEq/1g/hcy2E6jcJoZ/9QvnGiR/r5T7WDwqmIb0Dad3shnRpR4Nc2NwstPJs6E5NL7tdPyPLqD2To9Fcy0lJuebkc8J1+sw557KV66lL36HiXAek6gXHuBhSrvmLV9rPXrhgx1xFpXswD1IwO62TS3bIqM7xBJ/4wzl7mgFINWzY8J/r1q2rMWfOnFfef//9IIbVaYAKevD+22lg1CuUtfdbmt7rXWrww1PUq/VvdHDzqGJBS7nzPnXqAMXz3fUebngmTptGvQcOyburnkzrNq6l/Qd2klZ1kdKMV0W3k/fPKlz2zFxbOIwDgAQyi7KGVIXZ0Fl2hiAyRgjdfoV+VxlsA4Dj5BsE3CTcyj7i/5zIkFq8fBnFtO/CjXeU6B4MjmpFQznTwrmi43NC6fIj+zWWAqkOuZCCDZ1BYT9Xj3YvaUjhUUGcmYXSTwykJuEh1KJVEG2Y04iWz2hE2+c3pPkTA2j0wMbUrk0wNQ4NoR8ZYDU56x/cuwkdXuVPWWcYPCUBVp7Dz6lul2PTTrCZdGcZOledyclJ4pw4ffosccZUAFKYHM+QojkLltHJM2fwOowJu1JSUhxw2+ZNsE+QNnQZ1T0CGUYD3SHFd29PQdOmTXv9ww8/DLr77rv38QUiugBfefY+6hT4Al1Z+QXR2Z+JjvxA03u8Q03rvS6gdXLPdMpKxZ3u9Y1RYULZHwiNlWj4SmigKEqoOuHt+VJRHqTQreYrNnSMiSGLBLzKOoPCfmHJFMAY+4/sEWNhyB69vb4ooZtwX/wOim7TWYxriUomDKtWnXrQrt3bSK++5AYpZGMX8yDViSEVzoDIW7IDYEnwo4tb6lPPbk3ol/qATwiFRIbQ6umNSLe/ATkBFXT1QYl+5LhYj3JO1aOV0xpRx/ZBVCsghGpxptWpYxBd5sws+yy/7kbAyoOUIyXOYddNzDbrz9nyIcUZ/ulz52n1xq00ZPQkUZ2lTmAzBnE0hcd1okmzFtLFq0mk1mgoOSVF/B8V7du3zzVr1qwMhhSuPzNfrz1yL1sZMqpPBN52220TAKnPPvvsc3dIKcrIyHiGL5TX/vrXv87n16YBVrfffhvVePJemtjuTUpa/jk54r8jOvZjqUCr0sgNUoXZ0DE2VNaQwve7Z3IQuj4xVofuTq/vLSXh+7GPmJuFfVa+H7/jeW/de0UJGTQW2GzZvjvVF+7CMAGr5m270IH9O/kzPZaFyT5BlDqPSNctF1KKww8AuuRHIwcEUr3AEJFRNQgKoVGcPTku8WsYTteBJw9wpiP1adM8f2oYwpkYMiwG1sa5/mTm5wuFFb4PmZQqLidHO9SWpt1hV6sT8zOpy1cSaM/+QzRjwXIKim4nXJKo4hLYrDUNZHClmM2URUSZLheLyGSxUopaTQcOHqQVK1aQn58fMaiIr7/022+//cRf/vIX9HJg7lRs7mUsQ0bVDeHww7jUW2+99as3SHno6W7duv2zRo0a3fhCMbByAK2n/nY3NfruSVox4F3SrPmSHPsZWkd/uA5a6BqsMtBi+KCL7TpIQXmQQpZRZjb0PEihS/FWbeg3K3w/uho9IZXCP5sMKsrkv6FL0Nt7i6M0QyLF790hnH+YxwU7fIMwTPTtTUeO7HODVt78q4y9RMZpuRnWlVxoOS/Uo3WzGnE2FSy69QLDQmjm6ACy8fMCLoVBh3VuSwMKCAmhH+vmjm8N69eYknZ5gZU7pFQ9cyzq1Tka1al8SKEM1OGjJxlSyxhSbfMh1SiiBQ0YNZFSTLmQ8pSJgZWQnknhzWPomeeeo9tuv110vytiaBkktGRU9fieT24BqRdeeKF2MSCVr1OnTj3XrFmzj/h93e+6667TfKFY+bMcuHie/jtD6/sqDi1AqiJt6Awp1PArClL4/puxoRdXgBS6/LD/AJX79+M5dEUKSJXS/udDq0NXzrByoRXSvDWNHDeeobWXrHkln66DlqYT2c/XZ8A0oF5dg+jn+oBOKA3oFUh7l/uT8SgD6yqDJi+bEo/8ew7/fGFrfRozuDFnYgw5hlXjsGDas9SfMk7nZW0QXo+5UikhYkJvhm5dttYDUgcPH6PFqzcKSMEYokCqXY8BdPLSFa+QsrA4F6Y2PXrQh19+SbGTp1GfbXsoaNAwevSpp+n2O+4oAC0GVooCLb62d7IktGRU+ijg8GvVqtU/SgIqd61YseLlgICALzjL6sPQOusOrX+98WDVgxY3vBVtQ4f9uyhIYbtK14ZeUAqkYFTxhBS+v7Qh5alrV8/S1JkzC0IrughoZTK0TAytlE60dV5Dat02mN+D+X0hFMaZ1pQRjWnrAn86uMafkuPrk+5Afdq/2l84AGPicserfuBsDF2B4xhcqYBbYt1csOXZ0OHwA6R0qpPOlJREPhdyx6UAqfXbd1OfoWMFqBRIYY7gsvVbvGZTCqRaM6SerVGD/Lt3pykJCbSGn1vLWm5z0vgLVwW0Hnjk0cKgdSoPWvNYz4irXoaMShQFIOVpnrgVKdB65JFH5nqDVkyd5wW0cnZ/Ry6MZzG0NJu/EtAKqfs+rZrV3vehxY1vRdrQi4IUvr+sIQWTizukkEUq3w9I4bjg+JQVpDwloDVrJsW6QQvlt7xCy5bEJNhLWaohlLQ7iMYPDaSIqBBqEBgqbOqQf3AwZ05B1Dg0mGo3YkDVCRWQ8uPXdO4QRHuXNCTT8XrkSGRYYUJvEZA6fuKUgFTvIWPyIeUfHlckpDJYgNSS7dsLQGoVP+cuAEtCS0ZVDa82dG/QuVUVAi1x8VRmaCGbAig8IVWe1dA9bfAQoFH2kCqYSbmPS+Vnclb+fn6dt/eXtU6fOlQktJTXAbapxiuUqt9B5oSBZD7chLOnRjRrbGMaOyiQwpsFU1TzYIqJDaaWLYNo9IDGNG5IIJ1Y14DU+xuQHZlUsh9DKsAFG3q2dpoNc6U8HX7rtu6k3oNHU3DzXPMECukWBSnIxFp2A0h5yh1a485fpbc++6I40ELXoISWDJ+MQm3oZSlA69tvv/0D0OLvv1AYtNA16AktdA36HLQYBLB+w44NGziggQynIquhlzWksF+KDd0TUjgG+ZC6BfNEaSp+3w6aNmsWxXXoLoClQGva7Jm0L363+H9hHzCGpEq5QHr1dspO7OByJgS6Mk/VpwyW7Vw90h2qT9n8mHGKsygYMMQYFj/ewIa+dvOOW4LUN0FBxYKUpwCs1U6XgFafbXsltGRUurihDb08NGjQoH988sknDUsErU3XQ8tb41QRwhwtTC5Gd1dZQ6owG3ph1dBLU/h+bzb06yBVhttws0LZJkwmd4dWbIceNHLCVNq4dXvucUxJcWRmZprsNpPBmXXU5NJ0trmuBDpzLe95pglPh592qA2Q8rShA1KTZi3Id/j5cXYX3LwtDR47uUhIHUpMpHoMqJ+aNLkpSHnKHVroGrwBtI7wtXiJ2wkJLRkVFiW1oZeLoqOj/10UtDo1fpFOz/k4F1owYXhAa+Oi4pVwqtTycRs6IJVvQ/dBSLkrg4/h1q3baMjoiRTVJm85GgGtnjRm8iz73v2HLCgWy+cmyhapXU6L1pV9zOhSM7QSmuRCK7l+6dvQWYp5orQg5anCoKVcbxBffzZAi29oj/HP57jdkNCSUW5x0zb08hTGsxRo8YWiV6D14H23C2gNiXmN1Cs/LwCtY/M+zS/hVCWhVQ1t6GUlQApzu9xhu3b9FhrMAIlq092pQKtlp972idPnWg8cZkApwIIcGq3LssTiMgzJylH3FzZ0T0i529DdIQUbemGQcnf4ffDll2UCKU95Quv1Tz6lBx5+pAC07rrrriPPP/98h4ceemgcX4/7uR2R0JJRZlFqNvTyFKD15ptvRgFaDCwT74NwDirQmtbxzWoBrepuQy8tYT88IaXIaDRmcJh27z1oHjlxRkZMu1457tCavXCZJSlZpefzUkArOzvbkJaqSUd3nzcbeodeg66zoe84cMQrqAqzoXuDS1loNUtAy+GkRRkOajIQmdaX9MK779PfnnnW+cLrb6yPi4v7bO3atS9NnTr1Fb4e+7tBS4aMUokys6GXp24ELYxnKdCi47ljWugarOzQUiCFBtYTUtXRhn6zKg6kHA6Hxq3LT7Un/pBp1MSZDK2eAlr1QqKdgNai5WszriWnpKekpKAKeu7nMKT2HzxynQ29uHOlhk+fXiGQ8pQCrZUOFy21uWjy5USanpDkWmo0Zm92uQYdcbm+1blcr5y+cuV5BVp8PS7hdkZCS8ZNR7nZ0MtTHtBC1+B10MqfWOxWd9C9wrs24U+bsq8KpgxpQ791YfsAKWyzJ6Q0Go3dG6TcZU5N1QJaXfsOtdULjnblQYti2/egOQuW0vkLl+jUmbP5NnQFUvVv4PDDXCkDq6Q29IoSALbW5XKsdrmyNrlcw065XF8dOH78NWRaX3zxxQ933333Ur4Ot3G7I6Elo0RRITb08lRh0PJawskNWpWhWC6W+K8oSEGAUGWxoRcljEspNnT341gcSLkrKyvLoFKr0zZu2WHv1HOgS5mjhceIuPbUoddAahLdRoxL3QhS0M3MlfIVAVrrGVozElPS67fpOOfhvz+2k0F1kNubK3xjfJSvRVl3UEaxwids6OUpQOuVV15p41kNo7h1B30OWgwhdPshE1AaV9jQlSVDyhJSEDI6uPzcQVkZbOjuAqSQEXpCCjZ0QMput+uKA6mcnByt1WpN1el02cnJyaLL79z587R241Zq3rY7+YXkVnivFRApViEGpIpjQwek3i4n80RZCF2F489epI9+r+26+/77Cxgx8uzusliujELDJ23o5aWqWHcQwEJ2Y2GVtQ3dU8pijACUUnVDdPdVAkihyw9w9QQVxqWQIZUUUu7jUnD4afR6MqSmUYrBQLsOHBEW9/BWnWjAmElFQqqsbejlJYAKWpHjogmXrlGToks4KcVyZQknGZXDhl5eulHdQQVa9l3f5k8s9vliuWUJiBt8dpkuPlmK8mZDd4dUZmamsTiQwmsAKZPJVMA8ISpZqDUCUpZsG2U4Xfkg0lvThdzhpCiNpUAK1dCnXGFIOZyisV+Z4xAFZ/H7GtefEFCA4AkJX5MsliujuFEpbejlpZupO6hA649vXvBNaJWi4IxDlx4qT6QZWZw9+XrW5E034/ArTMi6UlNTrZ4OP5Va7RVSRcnKAqRadetGzz5fg+q0aUd9Nu+kjktWUNOxk+m32Fb0U9MYajlzPsXNmE+tZs2lbms2Ut9N22hZNsOMv2s9v98bJHxNwnjBArRQd7CY0ELXoIRWFY8qYUMvL7lDq6R1BytNhfcS6Dobel4DjyK71lS1zzv7FJUHpFJUKgGptKysEkFKza9t0aUrPfXMM/T+tz/Qky+9Ss++/gbd9+CDdNvttxVowBXdc//9aMzp+X+8TW9+8hlFT5xBw/cdoLl6My3Lys3AfD3bArBk3UEZiCppQy8v3UrdwaoArWLZ0NPLsIZhKelWbejuAqQsFkuaVqu1KeYJQApdfjqjkUzW9GJDCjZ0QGrh5q0MqWepxtvv0r0PPFSgkX7ooYfor3/9K/373/+mN998U+idd94Rjw8//LAQXsfnpnj8+3PP0VcNA6nVnEU06WISLcu0V4ruwRJCC3UHJbSqUFR5G3p5qUTQQtegG7TQNVjZoAX4AFLShv6nAClPh58CKZgnSgIpyMyCDf3pZ5+j1z/+lO6+9093HAD12muvUa9evWjYsGF05MgRSkpKgiuReHuJt4VOnDhBhw4dovnz51NUVBTVqFFDQO3OO+8Un/HUK6/Rl40Cqfem7bTYkl6puge91R10hxZff+51B2Wx3Eoc1c6GXl5C16A3aBVVd9CXK7x7E7rKKms1dHeVpQ0dUiBltFjIard7BZI3weF3OM+G/mltP3r3q+/oocceF43wPffcQ4899hg1b96ctmzZIqBUnOD9oYsXL9K4cePogw8+oHvvvTc/0/r3bzUpbsZcWmy20Dp+bWXIsiBPaIm6gwwtBViQhFbljWptQy9PuUOLL5LrSjjdCFq+WsIph0GForLuc6WUauhYTqSyQKq8bOglMU8oNvT6QUH0c5Mm1Icznu/Dm4oxJ6Xx/fDDD6lnz56UmZnJryx5AFoHDx4kvkmlBx98UHwmPr/GO+/SgN0HaGVGVq6TsBJJgRbqDgYPHsFZ6Cf00N/+nn/MIAVa/HhaQsu3Q9rQK0iAlls1jCLrDlaGYrmAFcCEBSCVda0qczV0d0iVpQ29KHmdK+VwUc8NW+ndr7/LhxVfv9S6dWs6e/Ysv/rW4ujRo9SiRYv8z76LM61ardrRjBQdrcuzu3sDQ3kL26FIQAmPvH0rOVNFt+XiNCut5t8nXbxCE0+fo/7b9lD/nfvpjY8/pbvuubcAsCB3aPHvcmKxD4W0ofuIPKCFrsFCoaWUcPJlaKG2oIPB5evGCchXbeieS3b03bYtv4FekmmnwH6D6d687IfPGWGa2MavwZjUrQa6D0ePHi26A/H5tzG0XvvoE2q3YCmt5c9fya/xBEdpS3EiAkLK3KpVThKwnKc30yo+lkPjj9CEM+do0N6D1HL6TGo5cx791qINNe43kP712x/0ztff0Kv//phe+ueHnB2+x9C9jyF1j3BBYr8KUx60ZDUMHwhpQ/dRFQWt3z97TECrqGK5VWVZkvJQaUMKDj9PSN2MDf1GS3aIDMLhpF6bd+XD6rbbbhNjVd26daOcnBx+xa1FdnY29e/fn/7+9z+7y5585TXqtnYTrbbnCIi4g6W0JLIhg4lmJmup36atNGDHPuqxdjODaA792rwFfdEggN7//if6OjCYs6P/0sNPPkn3P/IIw+dBevDRv4tsCWBVttmbAOD7GVYwlHD7Jx7/9a9/iecUOCvi42qR0KqYkDb0SiJAC3UHPaF1o7qD7hXeUzUnvDbS1V2lbUNHl19p2dABqRst2QFYwegw6vhJ+qJhY7rnvvtEw3rXXXfRH3/8IYwStxLIzC5cuEC1atUSXYv47Dvuvpv+yZCYeOEKrcmrhOG5Xbcq7NOYE2cpZMgoevr1N+iRp56hBxnACnxu5/3D418YzHgEoMW23XFHviGErxfhaHzrrbfo5Zdfpo8//pj+85//UKNGjahZs2aimzQ2NpZ68I3AxIkTafLkyTRr1iyaNGkSDR06lLhNFFZ+pftTEboGJbTKL6QNvQwVHx//wtGjR2uMGjXq7S1btrzk7+//v9q1a3/dokWLf//www8/9ezZ892QkJBP8RpuyJ719hmeKqru4OvP31c5i+VWsHzVhl6SJTuUrrG5ah2FjxhHz7/1dn6j+tJLL1HXrl1p//79/IqbCz4WNGDAAHrxxRfzgfAgZ1iNevajefydZWFhxz6h9FPX1evp+XfepTvvuUd8L74fEHr++eeF4ePdd98VIPr++++pbt265OfnRxERERQZGSks+iNHjhTgAYgmTJggbPkLFy6kuXPnikf8rmjBggUFfsbf58yZIz4H0ML3FQUtblN3suqI1lVGqYS0oZeRAB6+G3vr559//o0vpl58ci/lO7ztfDInsEx83M0sC8vEvyfzzcLZ+++/fwvf+S358MMPG7Vt2/bfw4cPf2fTpk0vevt8RcUtlou6gxJa3uXLNvSbWbJDAdYCo4l+iYqjx2q8yI16bsN+N2dBaGxnzJhBx48f51cVLwwGA23nbcF7H3881woPwe79c3QsjTtzQXxnWbgBxefmOIRp5Pm338nPppAx/fjjj/mZ0OzZswV4IIAFkFFAo/ysAGjevHklljdooXuQr9/84wHx7+7VMGTdwVsMaUMvIyEz4pP6NXTTPfroozP4pE3DCcwnrgCIMqkS3TJ4xNwXj75wJwMsnd+XyI3CBP7/xAJG3r7LXTcqlltU3UGfLZZbxrqRww8ZUkkhVVo29EOJifTJl1/e9JIdgMYG1oIUNUWNn0JvfPIZ3fdQbvUKnHs457799lvq1KkTzZw5U3QPms1m7LewtkOXL18Wk4O7dOlCfPMkIAXg5Z2n9MhTT9EP4U1pZPwhWmFJF1Dxti23KnQBzk1RUfjIcfTY8y/kfz+yu+jo6OsyI2+gKU3huyS0yj6kDb2MxaB6mQETx8DRKCctTmSGl7gLjIuLI86YRAMxffp04dAaMWIEde7cmUJCQujJJ5/MHwsA4PhzMjjbWvCPf/wjpl69el96+053FbfuYHWGVqWyofPvNyslw4JLbvTpi9SwV19685PPRTbE51V+o4qxnGeffVaUWMI4DvTPf/6T3n777QLno6K/PfscfVavAXVbtoKWGYwCimU1v0rZh/nGVPrSP5DuyLvZAxjQrYkuSQVU3sBSlnKHFoD++uuvFwdaco7WDULa0MtHz/Kd6DuDBg1q98svvyS///779MknnwgXFi4m3LkWFVqtls6fP09Lly4VtdpQFgcnO5/kdnQXlhRaxS7h5AEtVHgf1btRlYNWZbGh3yqkPAWQQGj4h+zcTZ2XraOfImM4a/uaXv3Xf+h2BgB02+13KOebMCpA9z6Q6yh8+tXX6I1PP6PwUeOo7dyFtIIzsLKElCJ8PsbBRp04T1/Ub5RvoIBgjhg4cCAtXrzYK0zKSwAWuggltG4tqp0NHVlFzZo1v/vyyy9rt2/f/oMbjfmUol5l/c6axTrLjR8cYKTT6Yh/58uteIHXQnBcYTAc0FKqBdwMtG6l7mBVqfBeWW3opS0lS0G32gKThWZr9DRi30FqzfBpOnYK+XfrRT9GRlPtdh3pl+g44bxrMXUGdVuzgYbs3kuTzl+mVQ5H7hgSy9t3lLawzYBi476D6PEX/uwCRFcm3HtKF6A3iJS33KGFrsGioMXXsSzhlBdPsNrxQak2NnSMFX3//fe/cYOs4v3G/AcT/3yRT5aNf//738e//PLL7d57771QvhN7Z8eOHS9wA/U0Hr19VgkFSH3OAqT2seAyLrXwBi10DZYUWoB4UdDq1PjFQks4VVZo+aoNvbwh5U2AAKRkXADQWodTaDWA5OTnWXheeS3k7bPKUti+lTlOihg9gf7+XI38Bh9zvPhmVACiIroAi1Jh0FK2HeLrT9Yd5KiWNnS+033u888/9+M7ruP8z89xPzFYLohPDiMr6e677z4IgD355JNDubGP/OOPP37w8/P73+nTp5/nkw3w8fodHsLr3ma1ZK1llSqkPGPNmjVeocX/68uA1ldffVUHXX+8Hd62NV/u0OL36/lYZeKzSlos19eh5Ys2dJwgOtaSm3D4VVcBlqNOnKXf4lqLtbf4fBXn/hdffCGuB0DB12ClyBNaGLcuDFr8WK3qDlZ7G/r69etfxhymZ555pj//4+HCA6QKnByeQoaCRp9PGDVD7BAa/ueff74Hq/ubb74ZDft4nz593lm8ePErgMGZM2cUSLVgLWGVKaQ8wx1abvtwU9Byq4ZRrLqDlaHCe1WzoVd3Ybxq5KGj9O/f/nA/3+m7774TxqQlS5Z4BYWvCCBVsj9MFyghtKpcSBu6h/gkefWXX375kbOnCXxsnCx3aLn4ZDCzdJyFYcY5sjC8xv3EQcMNC7mVT6BUFkAwh4/xvtdee21+8+bNN06cOPHS1q1bM2Dv3bdvH19SROnp6UI2my1/+QXeHuLGscC4FX7mRlP8jNciuGGktLQ08XNxAtBCMdHCoIWuwdKGFh3PNWL4YoV3X7ehA1I3a0OvrlK6Kftu2UVv/feL/LEfuBN//fVXGj9+vM9mVZ4qAbSyeD+vsA7z75u4fa8S0JI29BsIlSE++uijRtwQL+RjJboCASI+EVTcoC/mRroFZ6H13n777Sh0Cd577727WTsYYqe44Yf13M6vzeLH/JOJn8f70aUo5qrgZEORUAglXIKDg+m3336jmJgYsW4QStxMnTpVLM3AGRpNmzaNWrZsKe4KsagdSr3UqVOH/vGPfwj4MGAE8IobZQSt/Dla7tDyrDvoC8Vyq4sNvToKoFpqyaDfYtuINbn4vBTn93PPPScmAqOLDQDwBgdflQItdA26QwsAxr6hfeLrN43blVWPP/547wceeGAiP7eM2/tKCS1pQy+hgoKC/stA78gQOs/HDsBysuzcoJ9+/vnne6L0EboQuXF7tnPnzu/PmjXrNVSeCA8Pb8THd2JYWFgKIITyLVhhFRcLn0T0t7/9LR8QcCfhkU805aTL/10Rf5+4O1T+pgjP4RHAQ40y3g6RjZUkCoMWb9cFPk/63yq0vNcdrDho+aoNXUKq9ARYLdAZ6I+W7ei+h3KX18d1hMnAmA6yaNEiASxvUPB1uUMLdQdRaxHVRdA2sHBDrGVYjeWb3Le5/fknX48Y2ljM7X+lgJashn7zeppP6td++umnn1FVgk94M058nBT8cxZnIAs5s4nmC+CfKJPEr3e3oZ9jiXEpQATde3i8cuUK7dmzRxS7ZNCJSb6Y1ItMKTAwkH744Qcxux7ZFiZYYs4VJjGidhlqmX366adiETtUEcDdFUNR3GmdOXMGX3XTAWjh+xVo5e0joHWAt6V9SaDlrYRTcYvllhW0ytOGnpqRcVMOP8yVajF9ugTVLQqOxFEnz9JHv9bML1SLm0RcS+iZwPyqytINWJiw/QDu4MGDxTgcKtpgP3G93XvvvQc+/vjjBpzdPzt16tRXYmJi3vF1aFU7G3pZiRuzZ4cMGfL2J5980oihvzOvEc5v0Pn4TmRotNDr9Qv49TdtQ0cdNW4wBdjQpccNolj0jhtSMTHYZDKJ59A44nUI/A1R0ozKWwCmgBa6IN3maIl9vP/++zcUF1r4e2HQQtdgcSu8l4ZzUNrQq5+wNlb/bbupxtvvKQ24aMx/+eUXUf0FmVVVgRVudvlmOv96Zbn4mjv9zTff/AaXMp+34poEtL788suvAS3mgk+VcJLV0MtAfCf9HCYMv/POO5F33nnnJW6Es3GCoEHnuxnbgAEDstCAVfYoCloYz1Kg5e0YuUuBFroGi4JWUSWcbqVYrq/a0AEpaUMvG6ELEE7AmEnT6Zk33hLnLrrLMbYTGhoqxn4rO6gg7AOEivBff/11/pAAy4lrjTOrAD7Hn+bzt8A16UvQktXQy0HcaL06bNiwH+Pi4tY++uijNqXILIwT6L5DJWe1Ws2XTOUOBVroGvQGreJOLC4EWuLzAK3i1B28eGRJsaFV3jb0koxLSRt62Qrzq5Zn2Om7kAh65MmnlAZcjBNj4UeM9VRmWCkZFTLEvn37Cneje1bFSYqK26RJWLmBz2Gv1yPkAS10DZYbtKQNvRzE1wGOq5jQyw3ZLJvNdnH79u2ZqDUGUHEjLk4absjF5EMMhHJDx2+r3FEItG6q7qACLb6oSlR3sDjFcoty+HE25dTp9XaGTxpvi1c4KSoLG7oCqW+CgiSkykDIqPCIrGrKxQR656tv6I677lYacfrggw9o3Lhx+TZwbyDwZSmQAmwx7ta0aVNRjQMZFV9HYh/5Zx2Danrt2rW/43O1WOvblSe0pA29jASX3/Lly1/79NNP/TlbascnQPDp06c78t9ms86zxGCRMsa0cuVKYSVFlqWcPO+99x41aNCANmzYcMNitJUhAK1yrzsIaB1jaB0uHFpFQUpvNJElI5MybXYHy25OTc0xGI02b9BCtgVIlaYN/VBiItVjQEmHX668lV5SSjIptQMBHDyiFqHyHP6+0u6gdQ4nLTSn0pI0C029fIVmq9S0MM1Kw/YfplHHTlGL6bOo2fjJVOOd9/K7xtAFiEUVsYBiZYOVAilo7NixXiHF15/xnnvu2YnhCZSFwzVWUgFafE1+d//9909hrpQqtKQNvYyEQckpU6a8CZcfN8Bz+aRIzDvhHT/++GMmN2KZfN1cF4AWGnOcTHDt4WRCpoVH9CkjZd+7d2/eqyt3lFbdwRtBq32jGjS369uk3/o1WeO/IzrB4DrxA01jaP3+VQ0a3T+ctm5cThfOnfEKqbT0DMq051BWDt9QcCMH8e/50NLr9TZkUbwt0oZeDLlDRflZAQmeW+Xi31nL+ZijiOxKm108LsvMolkMldX8t9kqHS3LyKZxp87Q4J27OQu6Qv23bKdhh45Sr43bKGrcJGo+YQo17t2PGnbvRY37DKCGPfvQp3Xr079+qUlvf/kVfRMcSm9+9gU9yTeHKFL76NPP0Avv/pMefPRRuuf+++n2O+8SUs4lPr/E3EWYESoLrLCNCqgAqQ4dOoghBndI8WPmXXfddfKJJ54Y2a9fv3f5PMYY1XXjVMXVyZMnhXvwjTfeCOBreT9z5pagJW3oZSR3SD3++OOT4KhBA4yTAt16ABAWnMNSHEUFFp+7dOkS1a9fX6zpA2BB6CbEnAgM8MLhVxUCFTiKghYGeW/kHITQNegBLbHw5AP33U4vPnkvffD6QxTw/VPUOfglatu4BjX55Sl66Zn76IF77+D/y3MUxJkLGqFTp0/nQyqDG0p3SHkK0MrIyrZzluXQarV2T0iVhg3dFyHlDpeVfBwUqCCbwfOLOEtZ5QBgsvOyGDPNuJxAkxkqE89fpPlmKw0/cIT6b99J0ROnUPu586nL8jUUPW4ChY8YTb/GtKKardrSb7Gt6GuGyleNm9CL774vlhWp8fa79OJ7H4ifAZUHH3tMPN7L584jDBzREPO1ojTGd7p14ylS/qYI1xbeh5/5mhWPcP5h0j0euSEXy9VzYy4qrXsDg6/JHVIYZ/vmm2/oUQax+77D4IWxqdKAlKcUaDFjWvHxvSlo/Yc3cvFDDz3U8ocffviPhFTpCH27gBQf0189IYXJdlhcDlUluNEV1vHiBqznW7duFRcKTjR8Hi4qgC8iIkJ0G2o0aNoqf2A8q7TqDvLNQiTKXfGxSsSdo/J5heku/h/dyw3Tm/94mwaPGUdHzpwjo8XqFVD5ynGSle/2U/l1ao3GlZySkg8pdPlVNRu6AidozNGT1GfLLgocNFSsMdV80lSRxfh16kof16pDtdp0ok/q+NGHP/9Ob3/+P2FSeO7Nt+nJlziLqfGC+P2+v+ZOtAVo7uTjD911z71i2XjIEyieUqCiCNcZxOeLuFbwd0zgxQrDjzHQ3n33XXqBMyi+oRFzpdB4//777+IR8xNr164tFidt06aNqPIC4ecxY8YIobwSlq4HAHw5q1IgBfOEAikYQzwhxTeGy/Ig9Qyr1CDlKQVaGM8qMbR4o5vwRTzhgQce6PPll19+sW3bNgmsW9CWLVte+vnnn38qClK4Y0/ghgfjUjcTeC8Wevvoo4/ExER8PvrQcRIiUzt69Gj+XKnKHoBWUSWccKyLA61u3bq9Fxwc/Pl///vfBiguzHfI5x948EHN3x5/3PjG+x9a3//kM8fr7/6Tfg8MpWbd+tKs3Udo+vYD1HrQSIrt2IWmLFhCJzkTAHAKg5RWp4c7sACkSmpDVyA1nBsXX3b4AVKL0zKox7ot9Mq//i2A474YIQTguP/uTfy/LAAVPIceAwAFj3wnLm7GMIkdUAFwcC7gZ3SFAyooERYeHi4mwkdGRorSYd35uPXq1UtcJxAmuvINpBC67kaPHk2zZs0SmZHSPQajAa5NNO7ujxD+rjz6OqAgZTvdIeU5LgVIYVwKVWLcsimv109pyx1avD0lm1jsDi2+G/1QQqtkAqSaNm36CSDF4NiuQAonByCFbAgn+61AyjNOnTolKlOg7BK6J/B96DrDBT5o0KBSmdTrK3EjaGE8qzjQ+vTTT2Pf++CDpS169Vs2cObCnatOJ2YsOXaRlp+8QqvOJtH6y1ramKinDQk68QgtOHSG2gwZXQBaABXGrlIZRPmQYjgBVAqkSmJDx62FgVVZbOgwKkxJ0NAfrdoXuEvHTRO6yzAW8vTTT4tMBlkMlqUHWLBMPSqlYL4durVRqgilw/C/bdu2rRC6qgAbZC+jRo2iCRMmiMaXGzfxCKig61sBiSL8zfM5NNgKXPCIhlz53V2ejX1llbKfCqRwzD0hxddMSkVBylPozbvpahgSWiUTIIUuP77j6/zQQw8tVyAF4Y4Qd3+4aEoTUkrw9wsTBi5cdGHgpFTmZ2EA+KuvvhIlmKpS3Cy0ACmG+vLf/Buu7ztt7q41565lKDAqrhRoxXToQlPnL6JN27aLcShPSN2KDb0yzJVCFyDGo6YmJFMdPhbK/wFC6S4spw6wIItBo4k5gugyQxajAENZVRe/u8MFcoeIJ1g8G2epXCnHqigbOl8nwuHnAakKA5W7Nm3a9Nzzzz8fzNuZxBj6IZdGxYw8aK144oknIiW0rpcCKZgnvEEKFnNceDA+lDakPAMZFJb5QDaF2n/oVlG2Bf3yuINF7bKqFJ7Q4vNVTCy+y6Pu4I8//uivQKrr6AnrbwZSnhq1fAO98o936Mv/fSXGNfB/xhiV3mS+KRs6IFWZluwArJBZdVy6kmq8+15+rTxkVTjX0M3m3oh6+1mqdKRACrqRDd0XIcV6HKY+vsnezdu6ndFTI5dAJYx77733CUCLP2gmU89fQqugww9OMz4pEhVQAVLo8sMSHBs3bixzSHkGsqzU1FSxxDb69pUsCwLEUKAW21WVAtDyVsKJoXXqscceO/b5d9/vjunWa/nCg6cSSgNUUP9Zi+nzn36jO7mRRoPwCWcTvYcOpwPnznuFkqcquw1duP7sDoqbNov++sSTwgCBY49sPiwsTDSgALi3xlWqdIRjrICqvGzopazHWX//29/+NoC3eRbj5uYg5RkKtPiOfVR1hdaNbOiKeaIiIOUZMFegYjoGnbFdOIEhwAvdkujL3r9/f96rK394rTt4222uO+68M+ejr741N+va1zZp0x5aeeaqV/iURBjLGr5kLX1bu574HugOhtZzb75FTTt3ptn8/z+elOQVUqksX7ehF0fIqubrzdRmwXJ68uVX8o8DsvjGjRvnd+d5a2Slbl3ukKoIG/qtiE+dJ/hRQIrbz12Ml9KBlGco0MJ4lgItz42paiquDR228ZLY0MsjsHQIlgyBWwoD3TiZAS2lu2bLli1iDldVCW8lnG6/4w5hQ/++rj/F9hlMgJY3CJVEkzbupppNwuiOvEmi+I53vvyaarZoQ/9r0ICa9+pFW0+eJCPftABSnjb0yr5kB8arZl1LoTrtOtE99+e6UXFeweiD8So0pGhQvTW0UjcvBVK+YkMvifiUyYcUnytJvK3dGSllAyr3cIfWm2++WaeqQqs8bOjlEYcOHRInOE5u3gdxcsM9iFJOcBMiC1OWtK8KURi0HvjrwwJa7YePuyVobbiio6ge/emN9z4Qn4vPxzH9qnEQdVq8ksIGDaOaTZsKaK0+ccJn50rdjJT5VfONqWJyrrL/gBXs5bCEY7kMb42t1M3JG6R8yYZ+Az3J+vtzzz0XXa6Q8ow77rhDVL+oatCqCBt6eQQyqdatWxdw0iHLgq0Y87PQfcj7n/fqyh/eoIVs6KFHHr1laM2NP0ExvQfRS2/+g+6+917x2ffc/yA9/MST9EtMSxq89zCFM7R+CA2lEMzx8QFIKZUmUL4I1STw+wqbPfcxx0krnbl/h7y9HxKfkeOgrqs3079/qZnfWOIGDrXyYDWXsCodeULK123oXvT4Bx988HuFQsozqgq0FIdfRdjQyyt4P2np0qViRWDcCSv7h8YcjTqWta5q4a3u4N2cWZYGtDqMGE8/+wdSjVdfz4fWfQ8+RM+//a6A1sijp2htVnZ+6SFvACgr4fvwvcuz7bSSATM0fj8N2nOAoiZMpSYDhtHXQaH0dWAohQ4ZReEjxlHLGXNo4qVkmqMz0ioG1yqnS8DJ22dGjJlMzzKolfMHDWizZs2EdRoNrLfGV6p4UiBVWW3oLN+DlGfwgWzCG1fpoKVAyhds6OURsLrn5OSI+S9Yvhr93sr+YqD2xx9/FHNkqlp4gxbGsxRo9Z2xoMTQQpfguotqajd0LEOrsYCWciwrElr4nqWWdBp96iKDaSh93SSE3vjv56IwKxo9ZRvddScD/MG/P0bv/O9rqte5B7/3Mi1Jt9FqhzMfWnhcbLFS6zkL6OnX3sx/Lyaio1scjawcr7o5KZCCqrUNvTzDHVooEe+rzkFftqGXRwBY2C8+6emdd97Jn5+ljGdhsLwqrJ3lGega9AatZ198WUBryMKVJXYOAlprzicLaH1ds06h0Jp55VqZQgufu8Zmp1HHzlGLWQvoH1/+T3RNwrEotuWO2+n+O++gf/3tUfrfk4/TJ0/8nd56+CF66cEH6K7bb6PblDEQPhdQQqlWm4408vh5WmLNFtDC509P1lLTcZPp9jvvzLet44YO896QtcvMqmQCpBRQSRt6BQWgxRvvc3UHK5MNvTwC+3js2DFR6oaPhbhAIP6/0YcffijGIarC2lmeAWh5VsMoDWihbFNJoOUNOiUVPgcz6OakaKnd/KX01hf/o4cee0wABd/98N130n+e+BsN+s97tOir/9IJv58opdHvZA+rR9mhfrS75je0+JtPqeP7b9KT999Dd9yW20hiwu8jTz5JwUNGCmgtT8+m2Skaqt+9d/5+QUoXsrSsl0zukJI2dB8Id2iha7CioFUSG3pVWEK+sED1dggOQMVujywLWRQWdURBUGRXuGBwd4eiojCVYPkOq9UqXl+V4kbQQtegJ7Q2uf3sTesuaYqE1gvvfUBNx04W0Fp9C9DCnCcFUn027xKQevSpp/MhdQ///z5hSDV96xU6VPN7MgfWJkdoPaLw+kQMKvHoJkuT2nT0j++p14dvC8B5QitsxHgKGz6W3vv6e86+cutRcmMqVrFGNXLZBVg8KZCSNnQfjYqEVlWxod8oUHYJoVKpRK06XBQYqIVFHcVBMWmTj4MYq0LXDX6HiyswMFBUrEb3GAbKUWsQBUndLhxxnDA/69y5c1VqfpYSxYHW6rNXaUuigfUnsDbx75tZnsCCMJ6lQOuDz/6XDy3cBABa73/zA7VbuKLE0MLYkQIpdPl9H96MXv7Xv/MhBb344AMU9OqL10MKAqi86QbQwryq+x95RHQr8jUknkPlCtzg4DyTmVXR8gYpaUP34ShPaFVVG7p7wDAB88C6devEsgioXAHn4quvvpo/JoPuPTQu7ndu+fJ4DmDC8YHcn4eQcb3++uu0ZMkSkX0iI6tqURi0ABplYvFKVGjPA9Jm1o5rxgIA8xSghWVHAK1//Os/+c5BHGNA64sGAcWClieksGZUUZAyNP6jeJDylBu0Dv3+HdV+8ZkC0HLXQw89JNylsKxLWHmXAikAXdrQK1mUdd1BjEvNmDHjjZdeeqlTVbWhA1B79uwhf39/4eADmHDyK0YJZdG6p7mRffjJp+jN/35O73/7Pb3z1Xf0Uc1a9EntumKJh2+CQun973+k1/7zMb30wb/oyVdeFQvj/d9fuDHNm/TpLtHA3ncf/fDDD6JrEMePj3neVlWdALSQcSrQwrEAtD787AvqOX4qrTx6huKv6SnRnEbXUtNIb7XQUa2pyC7CG0EL41kKtDbxNijQghkDK/Aut6TnQ+r1T/5L9z/8SP7/BZD69bmnac6XH9PJuj/dHKQ8xe91hPgJaK36/jPRpegOLdwA4VxAto5CylgjCo2y7A7MlQIpSNrQK3mUFbRq1ar1PZ8UU/hESFcuZkAKi7YBUpXZho66flhiAbBAiRtkTco+ovF77q1/0I/NmpNfx+7UatZC6r1uk7BOr0jPoIVmC63KttNym4NWwJLs5AbQQWIeztJMG409cYaWZtto8L791GvzDooYOZY++rUmPf58DXrw0b/nfw+ECw6ARCN19erVvK2rWoGJxatXr6aaNWvmd4tiJeFnn3uOOvbsTZtOXaBdnFUd1ZgoPsXEQDLQugTvoHKXO7SQsXmDVteV6wW0tvF2LLf+CSlP8wQgBYiM+PifpQcpT7lBa9Jn/74OWg8//LDoqcAqu5MmTcpvoKsrtNwhVZlt6HzOz+NtrRw29PIKb3UHbwZaMFGEh4f/lz9nHZ8YRpwU6NbCxYQqDZXZ4YcsBnOjACmME2DfFL36r4/pq4Ag6rZ2M004c55WWCy02uGgVSx0HeHOXJFn15K78He8HiV1UOlgNWthqoXmGtIpauJU+iUqjj767Q8xZqFcdLgAsT0otYNFCKtaoJo9MnB038CphX3Gvj/+xJMUGB1Ha8+nCABtyJMnmArTWobayosqmr/3CHUdMY5efO1PaMG8AOt4zbi2FDFqAjUbP5He/urr6xx+CqSO1v6RskL9iCIalC6kPOUGLYxnKdDC9oht4uvsrbfeEtDCXL3qBi3spwIqaUOv4uENWh4Hs0gNHz78H88991wfPtAW5QKqUaMG9enTp9Lar7HduLuHEeLxxx/Pbxigf37/M9Vs3Z5GHDlGM9U6WuNw5YKGdSMwFVcKwFDVYAVnYePOXaKuqzfSr9Etc5fJyBtoR4aHytuYa1MVre6nT5+m2NhYevLJJ8X+ovF57+NPqd+sRbT2QrIYs3IHlvvPyt8wzoXHNQk62nJVT4e1JkrPspDVaqJTZ09S46AgeuWNN0TXGr4DLjzcGNzzwAOiwcNz7pDy6vArD3lA66PHHi0UWjATVAdouUNK2tCrUQBa/M8dBmhxmlysahhGo/HZ5s2b/+fuu+8+widIDk4OdN3A8VZZreiwmA8cOJA+++wzsS9Kg/X2V99Q3fZdaNi+A7SUsyj37MkbcEpDyucrmdccnYkG7NxHv8W2EtkrLkoId5KYs3Xy5Ml8d2JVCAsf51WrVom1wpTG59kXX6Luw0bQ2WQVXdCn0sEUkzBcbEsy0LarBjqiNtF5vZmupVnomNZMJ1mndal0SG2kkzqzGOfKsVnJlZNOjmwLOfnn1auW06+//FygexcSNvTH/0ZN3yzEhl7ewveyskPqkrrh7zeEFhZlVKDlrbGvrFIgJW3o1TxKUnfQYDA88/333//O7znN73HhJOH3ibthjD1UtsC8J4AK1SXgwsP+3PvgQ/TRbzWpw+LVooYb5tmUJaCKEqAFTb+mptBhY+iRp58WWRYG3WHygD0ewKoqkZ2dLVyQ7pnVk889Tz0nTKOdCWo6rDHTcYbRZVMqaRhsOmsapaRaKC2DgWRnGDGIcuxWsmdbGUrplMOPeN7FcrKSr16iY0f2U2hIEP3zn++L44jvgZ5/4H5q8HIN2vvrN2QKrFU241I3q2oKLW+QkjZ0Gf+PL9wf+IAWCa2MjIynMZeKM5D1/NosnCw4cZBZwVBRmQITdtGdgBV+sR/KvnwVGEy9t+ymRSbOphyuCgMVpGRaK11E880W6rpmI/3j8y/z13kCsD7++GM6depUlViCBDcPUVFR+dMB4A58/e13acDMBbTxspa2cCaFzCk9k2GETIkBBCBlZFkYVLlAwnPuwusUSHVs31ZAClmq8j+HeSL41Rfp8B/fkzqgJtnDymFc6maVBy10DXqDFs5fQOvzzz+nAQMGVFpoKZCSNnQZRQafDAXqDnpCa9CgQf948cUXu/I/Qsevc+HkQckgZCh6vV7MSfL14P2gbdu2CXs9HIzi5L/rbvr3L79Rv+17aKUlPXcMyUekdAsuy3bQoL2H6aeI5vlZATJCNE4zZszgV1TOgMECC1nOnj27QNHfpzmr+rVBAC05cj53PCpBLxyBZw2pZLBYrwOTp8xGTT6k/vOfj/h//VA+qMrEhl5e8gKtAiWcKim0FEhB0oYuo9gBaPFBv67u4MWLF58NCQn5lBv5xfwaYbLguxxhspg2bVqlGLu6du2asP9icBYXgmi83vuAGvbqT4tTGVQOp1doVLRElucg6rFuC73+n0/zi6fi+GO+UmWsepGamiomW+PGAY5H5f/x0MOP0He1/WjMyk1igjBMFJhfdUBlpHP6VM6mcrv4bgSpzz//Lz322N8LQKrMbejlJTdoKdUwvEELXYO+DC13SEkbuoybDm/QgtEiIiLiUwZUV/477OsOnFAwKGChwcWLF/t0NXHMo/rtt9/yG8a77r2XfghvRqOOnxF2cm+g8AUBVmIVWZOVQoaMoL8+8YTYfgjzwVasWFFpugMBqSNHjtC3335Lzz33XL7ZAe7H1976BwW3aEvzD5ykdQyoHUl6OsiQOq01k85qoWwGlbduvwyrSUBqxvTJ10HK3eFXbjb08pIXaGF/i4IW5kICEt7gUV7C9yugkjZ0GaUW7tBC1yCg1bFjx3++//77wXxHPItPLIxhOXGC8Yklat/5IrTQ5bR9+3ZhAce2Qnffdz9FjplAS9IsAgbeQOErEqYLBupstY5e+/d/8oGLYw6jCyztfAHxq3wzAClktii3hPE2d0fec88+S3Xq1KYdO7fTxZRkOqwy0DYGFTKqo9pUSs3I7frzNjaFcan5c2cVCSmfcPiVpYoBLZhXAK3BgwdXKLTcISVt6DLKJDyhNXLkyNfDwsI+efHFF7vdcccdF/kk82loYWn5Hj165I9VoWRSjbffpZ4bttJabuN9aazKm5TsCov2/d6yrcgKxX7cdptYI+vQoUM+CSsFUmiYPCH12ONPUN26tWn/vp1k1KVQdmaasJtDcP0lodyS2UI6/tnOz3lCavPGtQJSNZ5/Ph9SN6yGXpXlBi3UHfSEFsY5n3nmmQLQAjjKA1oKpKQNXUa5RR60VigTi4uCFqzhvgSt9u3bi+Kg2DbcbT792uvUf/tuUSfO1zMrCMBaanNS476D6MG//T3/Qod1efPmzSJ79JWAHV2BFJa5QFcxthV6nG9mvvjic5o8cRylJF0me1ZaARBBzpyM3DlSbt1+7jb0sNBgrw6/EldDr4ri/S2q7iDfcJYbtLxBStrQZZRbeKs7qEDrkUceme0NWqGhoQJaFRUwIcBcgQsF24SL5bHnnqfmE6eK7jVfz6wgbONyhlXo8NFiGXWlwgVs+Ch35QuwcocUxqWQZSvZ1JP881tvvkH9+vSkE0cPkD37ekgVphvZ0OHwA6Ruuhp6VdQNoIXxLAVauDZKE1oKpIqyoRdinvAGjYqQdPhVpfBWwqkQaImTsyKhBQPCpk2b6JNPPslv5LB+0O9xrWmO2lwpMivFZNF2wTJ66LHHxUWPbsCPPvqIJk+eXKGwwncDUihf5QmpBxkmCqQOH9xLNi+ZVGG6kQ0dDXCltKGXp9ygha5Bb9AqrbqDCqQgaUOX4XPhDVoMhhfr16//FaDF//gr/I+vUGhhHphWqxWLHCr14VDU9LX/fErD9h+mtQ7nTa8qW15CZjXhwhX6MSKK7shbrgSNwE8//STGrCoqFBt6UZDCuJRBl1JsUFUbG3p5ygNaRVXDKCm03CElbegyfD7cocUnpKiGMXTo0Le++eabWr4CLd4eeuONN8QFBMFoETx0NM1K0fk0rMRcK6eLBu45RM+98ZboAsT2o5oFFuhTltEvzyjMho7HNxlSLVrE0IESQqra2tDLU3nQ0gX8cUNoKV2DRUFLARVWLoANHcUC3CHFj8KG7osOP5a0oVfnuMNL3cEbQQv26x07duQ1g2UXaNRRMQFGC+ViwnpStdt3oUUmK61lIAgw+JDE9nDmN/FSEr30T24I8souAQqffvppua95dSMbul+ew68kkIKkDb0chWPHutW6gwAVhGsqOjpajIEp1xXE/0NpQ5fh++ENWhjP8gYtuMUALSwfX9bOQWQD3bt3FxcivhvLRcDG3nTsFFpmtogMy1eAhe1A99/kK9eoYa9+YoFCbDP00ksviXGB8hqrKsqGDvPErUBK2tArSHnQyggqGlrvvvtuodUwFixcTPMXLrT3GjAgmTPsM3zdJ9577727//rXv87r3bv3ewwFaUOXUTmC77Ty6w66Q+u9994LBbT47yjfJJyDCrTGjx9fZtBC437s2DHq2LGjuBDxvdDDTz5J/2sUSBNPX6D1NnuFVl5XILXCntv19+Z/P6N7+NjAUAFh/S3c0aLqPV98/Mqyi6Js6IDUl19+TpMn5drQSwopaUP3EeUdW4xnKdB6/v5786GFbj1cK+51B9F9v2z5clq4bIV+6dp1yw6eOvXvNZs2vTprwYLX/P39/zd58uTX+Nz0le4+aUOXUfxwh5ZSwulG0MIFUVbQOnr0KLVr104syY/vFN/LF+Q7X39LgQOG0nx9Kq2x55Q7tPBdKzlZmq0xUYuZC+jzBo3yJwFDjz32mNjush6nKq4N/fjRAzcFKWlD90G5QauouoO/16xJA4YMTZu9cOHB+EOH/sMgeJblK2DylHT4ybi5ALT4xClQd9AdWnxCoWuwXKDFJ7KoXI7Vgp999tn8RvOJF16if/30OzXuN4Rmp2hpdbaNNvDrvcGlNPRnJoWJvySW0cdS9w88/Ej+GAAqEODONj4+nnJycvjVZRPShi5VDGg5+drMev+DDyY0atToq1WrVr3iAQhfkISUjNIJd2iha7AoaKHBLKtqGFipNjExkXr37i2qgD/99NPigoQe5Czm3W++o9hpc2jM4eO0JDWNlmWXThch3q9oiTWD5hozKGz4WPomKJQeffoZ4VQEqNCgA6TNmzen3bt3l2mVdWlDlyogL9BC16ACLT4/bXwN655//vlemKriI9CSNnQZZROFQevNN9+Mvvfee/fzCVcu0MI8rEuXLtGgQYOEy06pdiFs4qzHarxAn9VvSA269qJWM+fT8AOHxSTdZRaryIpW2uwFSje5w0hkTQ5n7usc/JyLaLZKJ5av/6NVO/ouJIKeevkVuu+hv/Jd6x3ie5FJYUFCLHKJ8SksxV9WUZQNHZAKaORfpjb09KC60obuy7oBtG677baMO+6440IFQ0va0GWUT+RBa4UCrYqqO2i1WsX6XMuWLRNlYmBmADSUhhbrSSHjqfHOuwJgb3/5NTXuO5BChoyiFtPnUpeV62jAnv007PBR6rlhI3VZvYEzs9kUO30ONerZl36KiKZ3v/2e/gYo3HMv6x7xebzv4pEvNuJ9ps6dO9OWLVtEEd6yiqJs6E9wdvfTH7Vo9dbtdOZqEmnTUsmalU5Z2d7h5C5pQ6+icoOWtxJOFQEtPo2lDV1G+YcysZgbt+vqDnJWNbIoaJVFoIvw+PHjYsJjeHg4ffXVV2IuCYTvzxfGlVj3PfSw6L4DeG7nBhp66LHH8l18qJqB1+NnPCJ7AqCeeuop+uGHH4SZgS9wSklJEWNHZWVLL8qG/uhjj9NXv/1BszZspROJV0nPkNLycdBbLaIauiHdSpYM79CSNvRqIv6/FVV3kM9/XVlDi09jaUOXUfFRFLQwnuUGLXFxAFrlUQ0D4Dp//jytXbuWpk6dKuaFffnll8JRCKGbEgCCYwrjTOhKRKYEGPB+0AcffEC//vqrAFO9evVE1etZs2YJCzrqF5b1nClPGzofy3xI/Y0h9eGnn1GnoaNp4fa9dEproGupaZTKcLLZ0sXSHQ5WeqaFn7OQNdMqgJXDf5M29GoqN2iha7AoaE2ZMuXN5ORkuAa9wqcEkjZ0Gb4X7iWcvEGLT9YKK+EER567Ky8hIYEuXLgggLZhwwbh2kPNvsOHD9PZs2fFMh58sYqFEu12u1B5RVE29L89/rgoQdW3T0/asz+ezulMdEJnFlmUmqVKSyNzhoVsWVZycfYEOGFpeXu2lZISpQ1dilUItJRzAdDia3kPX8M9AS2DwYCJwt5AdCNJh58M3w53aPlq3UFfjKJs6Pfd/wA9/+rrFN6+G83fvIPUqWaROZk5a0pKTaXLZgtnVhbRBQgwua/UK23obsrbN2SNluA6ZG7yByU1/E08p21cs3oZR3g/iyqWC2jxNbzprbfeanb06NEaXmBUmCSkZFSuALT4ZC1R3cGQkJBqCa3CbOiAVA2GVEi7rjR65SZacvwyrb2kpaMaM5k4g6IcZE0Wysy0kMFqoUvGVLqamkaWTAYZQyr+YDy1adeGPv3sv6Kb0xNSVdGG7sAjQycn1I9cEfXptN+PdLjW9zTyk3+yPqAW/3iN/F54nv735GP05L330OdP/p2+ffZJavLqCzTnq4/JEFKXKLKaQCvvf466g5qGv1NPhta/H3uEHnDLuu++++79r7/+ess1a9a86gVM7pI2dBmVO+4oYd1B1DZDsU0++fOa8qobhdnQ77jzLgGpb2vXE5BaeuIyrb+spQ0JetqYqKd9KhNdYDAZOLMCsCBljOqaXkdr9+ylfmMm0L8++ZT+5gYp3DkrkKq0NvTwvEfebm0AZ0O87Vca/EI7fv+GFn3zKQ366D1q896b1JjhAxDVuP8+evCO2+k+GGluu00Ix8JTf2E9eOcd9B/OMGYwtCzu31XVlQctnA97a35D3z7zJN19R+5x+stf/mLj8/L477///n1GRoa3LkFpQ5dRteK22277gU/+oqCVzBdG1r/+9a8LkydPTrNYLA6+CPKa9aoVRdnQn3z6Gfril5oFIAVAKdrA2pSneIbWWYaW1pJGdls6XU28RPPmzKTP8jKpO7xAqtI4/LBtDCQ73/U7+PFCvZ/pfL1faMBH79LqHz6jdu++QQ1ffp5+4KzomfvvpSfvu4fuygPSbXB85h1PiLN8MaWBzzNhnIFhJTAwUKzlhKUyfvzxx/zX4v3//vujomvUp49PWQg3LpH+1OfDd+ip+3LLhvE16WTZ+SYy/PLly88pkOLTWNrQZVTt4BM/v+7gJ5988l3btm3f7tix4z9RULN58+afMMCCo6Ki4g8eOZJizcjIclYhYBVlQ3/8iSeobt3atGnndjpwKZH2XONMKg9O7qASj5xhbWJtuWqgrax1x87QuCUrRCb1LGdoSibl0zZ0ZRv4MTOojmgoz9f7iZIb/U7xNb+lZd99RrHvvEp1X3yO/vvEYwJKbzz84HUZEp9P+cdQHMfHH6f33nuP+HyiiIgI6tKlC40cOVJ0s2KeH+blYT4cTDNY6BPRqVMnUdmfb5jEZ7zwwH207sfPKbVJreoFLN5XC98cbP3lf/Sfxx9Vjq+Lj4uaM/++x44de4EPl7Shy6heAWjxyZ5fd7BWrVo/vf7668t/82+4vk3/wYtXHTp9cca6LbaxU6dTRGSkWLhwyZIlZVJ3sKyjKBv6I49x4/rxf6nD4FG0cvdeysxMJVt2OhmtFlJxxnTJlMYZlIG2MKR2XTPQEY2RDquNdMFgpqPnz9PBQ/HUqm0bYcf3dPhVuA0d3WhQBAMpuA7l8CPGyNIZTnv/+J62/vwVxb39OgW++gLVrPE0ffjYI/TmIw+KDAkQwiP2RcmU7rgjt2IIgFSjRg363//+R3zDI2CDVW/h7OS7fzG9APPuPF2g3gKvw7ml/E/QHfjSQw/QiTo/UhbGr6oLrDBO19SfDvz+HXV9n8Ht1l169913H3z55ZdbAFJ8nv0mISWjWgY3SrG33XbbpYf/9rfLtYLCNk7esOvMmnPXMtZd0tD4tdvp9Xff50YqtxHGmNZHH30kTBiVAVpF2dABKcU8MWHDLlp3WUu7k410VGum01oTJadZSM1KNKfRvhSjyKC2JxlpD79m3dGztGrXHmGeqHAbuvK5DCIh/j25UU1KaPAr7ar5DW3+5Ssa8PH71P+jd+nn556iL598nGFwPz17/33017vuLNAoukuZzP3NN9+IY4fuugkTJoh1mTC1AFMNsrKyhItSqcFY0rlveP/OnTtFlqscwyfuvYeCXnuREnn7ndgfz/2takLXX7OGdMn/V9rB/6uvn36CHrsndy02vjazGUxavjnoxbCKlJCSUZ2j3dMvvTStUcv2s/yiWiR9V9c/p1FcW5qx8xCtPpdMCw+dpZ6TZ9PP/o3FYoao+ycaFG70y6qEU2nEjWzoCqTGrd1Gq88nF+juwyPGozYnGvjRIB7F3xP0tOxUAo1bv5MCY1rS+//6l1hFWWlky8WGnvd59jA/utbod7IG12UgfUvxfDc+5Yv/UPt336A6LzxLHzz6CL321wfpOZgbGEhKpoSsBduqHAtMxv7rX/9Kb7/9tpiw3bNnT5o8ebKA0dKlS8U8ONRZxPEsKYiKE8jAMG2CMwexPdjGV/76AG368UvKUfbX8xhUFXlAKuCVGsIdieOQdyycDKeL99xzz16+mcSSQBJSMqplBNZ4+eVpTVp1nDVj895jy85cTV9+SUsrWXEDR9JPDZuQAq0lxy7SjB0HqVm3vvTcy68WgBZW4PU1aBXXhu7NPOFNANVyhtTEDTspoDlD6uOCDr8ytaHjM7hB03CGdsbvJ5r65X9ozKcf0nfPPkl1X3pOwOiZ++4T5obbPcaOUKYKwppe+B0uz38xYFGRvmvXrjRlyhSR1WBxTVTSB4yUTKkswOQtduzYIZZywXYCpHczVINee4ku+P1SdUGF/WrqT0a+0fAGqbz/3VUG1QlkVQytDXy9SkjJqHYR+PDDD89qHBYxf9mqleu0Rm26KSONzhtNtC3JQKvygKVA69s6DajrhJk3hFZZ1x0sTpTUhu4NTIoAqC18PLZfVtH8rbupy4hx9E+G1KPlaUPnzzEH1aH533wqxpNefOAB0aihQVcaNUWAMsaR4LR74YUXhLkhMjKSFi5cSGvWrKETJ07QxYsXRaX88gLRjQJgxJjXA7xfyn6888hf6WL9X8iZt/9ej0tlVmQDMvL/tChI8fl1EN19ElIyqmsE8sUw75+ff7G859iJm0+lqNIzsyzktFuJcqykT0+j+BSjgNUKN2DNjD9VKLR+aRjoFVrlXQ2jKBv6Y089Q18WYUMvSvMOnqLe46fRh598So/8rfxt6BkhfrTg60/p08f/JlyF6CLD97/88sv02muviXqJcXFxYtl01F48efKkMDdgVWSAAE47xW3ni7F9+3Z6/fXX8x2AgHDway+SNuCPqgcqhlQm7xMgNfCjd6+D1J133eW84447jHwsUvj/fJ6v1y9zL1sZMqpPiAnBX337zfJegwct33PlWvp+lZGSzGYxgRXVF5w2K9kYXFeMZlpzWZcPKncp0ELXYFHQUi6+8oBWUTZ0mCcUSC0+eqFkkDpwivrPXUbv/ecTeurZ5/IhVa42dP5MU+NawhSBMSdlv+A4hMkB3Xawf8NJVxkDQG3SpIkYL8N+wW2IKhbbf/laVHOoMrCCwy9vXGrUpx9eB6kHHvorvfHPf9Hfn3zKweeZ64U33tTyNduD9Yy4emXIqAYhIPXFV18tb9Wp06w9hw4eS0vVp6stqZRgMpPekkY52Si2mqvUjDRKMJpoR5KelLErb/IGrVXnrtGYVZsFtJ6u8WKZQ6s4NvTWg0bSxA27SgSp+Qypiet3UoPolvTq2+/mQwoqdxt63mdP/eJf9NbDD4ptwLgOrOOYu4T9x3GojIFuSKw9hrlYSlZ13513ULM3XiE9Z1XOqgAqN0gt/Oa/10EK1wgg9dJbb4ufG/L1NGvXYVpx/ELSkAXLj/9Yv+FJvoZjWRJaMqpsCEh9x5lU7x5dZx0/dujYRZUm3ZKeJjKoHM6kTPyz3poqsikAKz3DQkZrGiWnmukyg2x3soFWcobl3h3oKXdo9Zm5UEALGcywRavLDFrFtaG7Q2p9Alx9uTDaziCGyw8/Y86U4v5bdugMzdi0i4JjW9Fb3IAoNn2o3G3oivK+40ydH6nT+2/Syw/9Oa6DMTN0BbZt25Y0Gs0N5zH5WmD8LDY2Vjgp0bWJrAoTjtf98AXZQ/3K/tiWpTwcft898+R1oHr2pVfo+VdeE9eHf2wbmrydb/j4mtrI5+rWqzpaw+fu3MPnk3pOW3jgu3oSWjKqXjzBavf8Cy+sb9ul06wTxw8eS0/TpzsYTtbMNMpmMKF2HYBl558tDKiMTIZX3u/4u9lqoavmVDqmNtBWbsRXXPQOKneNWL2VPv/1jwLQmht/okhooaE6ffq0GE9xFaM6BhpjQKq4NnQACDbzLYkG2plkoONaE10xpTKkUSE9LW8elZkOJ1yj7fv2Uos2bejzz/5LD/laNXT+Lhc/OrgBn/LlR/R7jaepxgP35x9Ld2gZDIZKAS0lq8JE4vysirPFSGRVfDOg7Pd1x8LXdQMbOvTEs8/lQ+qbOg0EpHAN4aYQWs1axTeJq/O64peeTcmew9Bq3nfYYb4Zu8TXt4SWjEofga+++uq0HpxJneBMymTSpWMsSoETHt1/Rrdfji13vEr5G7IsM2dcmrQ0umQw0x7OrpbxBeMOpqLkDVoYz1Kgdf+DD+VDCxOL//GPfwhDxLZt24SDL42/F2NQaHABMWUdq4MHD9KcOXPo3//+t7Bge4OUp3kCGRMm8B5Sm+gc74uOIWwV43NWysyykkqrosOH4qlje4aUx1LyZWpDv1nxd8MdJ6D1xb+LhJZyDH0x8H/FtrXhmwOs9oxtv/v22+jZ+++lJd9+SqlN6lQ+UGF7b2BDB6Refutt+tvjT9CHn39F03fkQqq4ktCSURUi8JFHHpnVu1fXWZs3rlqHTEp09eUBqCRSxq6QZdn4dyODa3cyMhQtrb+Cuz3vF5Kn/n97ZwImWVXe/e9xBWOQVUARBpRFPlBhgAGCLAOooCiLooIIMXFLYjTqF5dEhBijGIm4RREjGELcEhgcmLWZGZiN2fe1Z7qn9+7aq9cZBjjf+3tvneZOze3u6u6q6qrq932e/1PVXbeqbt17zvmfd8c0GEVad/3iP4W07nCHHXEkkU86iSEeOgVDXOT/XHLJJe7aa6/VvBuKnKKF4Y/yUXCA9558xpnuqhtvdj95fF5khB+mvgXNSbe6M6VV0YPOvb2uryelfaV+/dAvDyKpiq+GznnUAGmR00WZJn/OaFU3nXKC6/vzm+R6VxlRjRCGDknhl+JxqpDUr55Z42Y3xtzs3HxCg8L8F04XGQ6etDANGmmZVItoGDp+qf9+5KG6Hsx9eeQzHnhTYYcseGs7Eur3mSUT7MmICTQUIC2fWPzvmOe2t7qHl6x1//qbx9xffvVON/Wdl7vDjzpKiQgC8qHvYbD48vrhQnB/ethh7lTZnb7/tk/o5/xxa1Nk8ARaFWSF+W9bIuPiQla+lfxv//vhYUmq5BF+xUCOtCCsKNIiCIPfRv7S0qVLK4q0qFZBySZ8VZwr95bCuL+76mK3r5oiAEcIQyfC78wcSeGf+vYjjx00P7zZTwkrZ/YrFEOQlolJRYmS1KVXXDHjgYcequsrMkmFgZZFj6Z4T9atbk+oD6hOdoXzRdOaL484gaMmUj6iSGvWznb3mGhED8xb4j79j//kvvAv97pb/uaL7j033+Kuv/0v3GXXvM994KO3uc9+7U53x+e+4L5674/dD373uJu5rfkgcspHEDSRcM+2J9X819i4yz01b5a7TEhqykknDZJURVdDLwQRpDXt2KP0d/H7Ko20+G6qipx22mmDvqrXilZFI8bkx693L1ZD36oCw9AhqXDwxAFzQuYNc2eWENRTe2JuYXNcNa1CtaswwqR19HHHL5T1wUjLZMJlMMLvR/f9YMbWHdvq2+NdvftCPqdSwQlp9fdnXWd3xtUnU25TPOlWtaO5EGnXNWyYexhh0sI0CGmFSYbAiCd3trmZojHNkse5MoGJ4qM2X/i4QkAtv5nrtrr5y5a7rwxRaHbCq6EXCyHSar31/Upabz/68INIC9PgRJIWWhUVNfBX+gjAs4863C0Q7YRzj/xtlYICwtDRpPBLDUlSecAM+CTWCkyCoMDNXxR+v3lP9y8WrFhrpGUykaIkdcVV02cQ4UcYuvdLeTIJPy8F+PwXBQRg9PUHSPVlNE+rPpl2i4W0hkokjsJIpDVekND7y3mL3V98/kvunPMvOIikJiQMvRyIIC0K2Q5HWuUSIgCXLFni3vrWtw5qVa875NXuS287Q7Wqir0HYwxDjxr35YCRlslEyHEyEX5z8sknz/mHO7/x8Jp1q9an07HesQROFAuUZeLRE1cim3Xru5JucWvcLWzC7t41quhBSOuid13rPnPnt4tCWlpods4zak5824UXa/ShT+qtiDD0ciH3u8KkhT8rirRWrFhRFtLat2+floU6/vjjg3MQvOPoI92T77nMddP0sdLuwzjC0MsBUkrQxOY2BMEZzD31gckj1ghytB6AtD5ipGVSWrn9Laed9uCdd9358PoNq9d3iyZFiDnJu/kEMhFQTUuIa0AIK9ObdanejGtNZ9yWWMo9K8SFaXCWTCKCMUayw0fVHRwtaRFoMUhS0y52Rxx99GBSb0WGoZcLI5AWGg6t5ktNWoSrNzQ0aMV33waESvGfOfMtruPWD+j5RZ7/RIBrNkIY+oknneTOetvb3LHHHe8uvuJK9+jytZqTOCu3WRs05wmhDJdUPx5ATpgPSc8gxWSx5hIm3e5UyrVlM25rLOnmNsbcfwlp3Z/TtGRdeUZgpGVSFLn9xDe/5cHPffUfHl60eNGSRCrWu7e/O6gykUcYlQA0LI0azJEo0YPNmbTbDGm14WsKtK2oyZaPsZDWHCHERzfscnf/4j81svAICs3mSKriw9DLCfnNPrF49Y1Xuw+/+cSykhYVNu65557BNiX4qs49+gj3q8umub5KigAsIAwdv9TxJ57kLr3ySrd2yyaNMqUiDBVgGhIZt01IYquM/zXtSbeiDSKJuyUtIKGbN8LWGe/FIDH9jNz8IqJwfmPcbY0nXY+cS6qn2y2XOeiJkyCM7/zXjA050vqNwMLdTcYktx9x5JEPv+/Gm/7wzZ/+om7G1qZeBvfOeMr19ve4cgRRjBtCWJpwK+RKYvGeVNqt60i6Otn9jWZiQlp/J6R12xdeqjs4FGmRX/W5b31v0KnNgnLYq1/pLj72KPfDi891q2+owgi/UmIE0sI0WArSol/WhRdeqOZHvsdXVqeLMecTea7lxAhh6K87/HD1fR7/ppPcCW8+VQscU6oLS4IWgpbxr37j3KbNb+IAlWP2yTG98pjuzbh2uabb4mm3VAiMqNpiaV6YBQFkuFw0rU1dKQ2AIjQ+fJyRlslYRcPQr7pq+owHfv1Q3ZbW9t6diaTb2EmYeMyt7Uy51nTaJWWQD+QmQiVjcMIKICzqDEJYTGxMIuFJMxwI1ngkR1rhxOIwUdFu/1cLlruzL7hocFF5lSyC5x9zlJt3zWUudfuNRlJDIURamAajSKtYdQe7urrcJz7xCY0A5LNpn3/WEa9zi6+7yr3wyQm+NyOEoVMN/sILL3AnT5miietf/trX3NL1G3U+JruzrrtPiGgg6FgQNR/CUPJ6LiAyNLHn9nW7FiGuVTI/MJsXi7TQrjZ0Jl1HlnJiSTd/iM1iHmlhGjTSMomUwQi/H9x374zeTLwX/09aBj/+n5Z0RnZHcY20G5BdGYs/gx0/UdREqDSw06TuIFXcm0TDWtWePGiyDAcSJL2vK6qEE2RFWPsXv/sDd8Y7znUvzy2yb/yTQ93P3nmeS2Fa+swtRlQjYQjS8ov1eEmLCMDly5e7U045ZbACyete/Sp3x2knu6xsJibs/hQQhn721PPVLwVJffMbX3e7d24JfMYCX+nFE1AhZBWGvi/3HOLaLpoW+VZjybMKIzALkrsVd7HujEsInhUta7iEYyMtk6FkMFfqW3cF1dCTyZiGoXsTGsC0sFZ2XE83J9yORHrQvFAtwH5PIjFBF22iGeL0xTSBAzpqwhSCfNJ66OlV7q/v/q6aAP0igwnw11dMc50shFGLlCEaeaRVrBJOENyPf/xjd8wxx+jn4Ku68Nhj3AOXnj8xXYALCEM/7k0nuVNOO90dIiT11X/4mtu+fXPkGC8GPGlle7Num8zzeXuKo2HVNSbUIkOR6k2iZZFwPNLnQlpW4d0EUZI6b+o5M6nht5EIv1AYuh+0aCTe3r0rkXILmuJuVUdCdkhZrdPX1d3tEj1CaAMHD/xKAb8J0wikSxuSjiw7vKxrFg1rrUycZ1oSWmdw1hhNHwRhQFq3fv7v3Ze+/2N3wyc+PbjQvFo0rA+c9Ea3/qb3TN5girGCayUoVt1BIgAXLFigNR99BODholV94ezTtbL68/47w+dQKhQYhn5iLgz9pltuFZLaonNRMQbtaTQg0rd/IKsbOiL8xktYaFZ7kmldJzp7Mu5pWUeijsuHFcud3KItO6iGDkltEZLqyRCG3qOJtXsjSIfFntd7+rKuQTQSFnbf6kLLHcnjrkRG35//3koBExuTCb/Da4wEieB3o/I5/qxt8ZT2zCq0ZFM+PGldddNHBB/WXlYsOn/6qle4qUcf6e77s3NdUhZdwpCNtEaBAknr1FNPdb///e+HJC3alfz85z8frFbxipe/zJ155OvcT+S+PI+ZNv97SwF+SwHV0Gl+eNSxx2mhWWpO7oyLViJzs5QElQ++C7PdstbkqOpvhgHJgScb4m6pbAp3yBxjg4iFZjQmRiOtySfasoPmh1s2CkmFaviheeDPSfZ2u6yAxTwcmo4dnL87RStZKZrV3D2BzXlGvQwkAZXQ2zNpddL691QasMXTgmRAdoyYBXvl9zIZaZu/VSYR4e1ELD3VPD5bPaQ1/YYPufMvv8qdcc5UNd+wCGESnPb6o9wsWaSMtMaAHGlBWJ60qDvoSWu4uoP4qubOneuuueaawQjAw175SvdXZ57qtt383vLchwLC0MPV0EnoDRb6mFvSklQztrdyRI3vYiPQ3rqFJNGwki/lao0SYa1Mfb/yOb431mhhFd5rX7Rlx7eEpObNDlp2MBj3iVZBc0NykdA6UNGb0xn1SWEqg5yYGH5yoJFAaDtlca8TNd5nqFP9nIU+2ROQQXjAVyL4rRr9RACJLABd3bTOT+vz7r6MW9OOL2to0wf/968xgYfK24K0Lv/ATe7cd17uppz+1uFJK2pxM0QjRFrD1R287bbb3LJly9zmzZu1Sebdd9+t0XQcQwQgJPfQpdNKX1l9hDD0cKHZ/GrofjNIRB3BTXtl7BaDrNQ0zjzI+z/wcx5geaBBKPP98V2dGkE73qCLMMb6WVbhvfZEw9CnXXbZjB8+8B91Ozvbe3vooySkpKWJurt1oUbLwIRHg0OIigRCcjEOaIIoz/vkPb29QlZyDA5SJhKYJSo+XW8r2Qw4FCAsCLtPrgGTk9+5SxYFTJ1DkpX+5pgmV+5Kptx2tLKupP4dJjIPT1okCR9/4pRo0vqELJhGWqNDAaRFcjH9yCipdNRRRw0SxBv+5DXus6JVUa2iZEQ1Qhh6IdXQH4McZOOkm0GZe6OtGONJh/dhHeknR1LmPwFTCfk8OnBTDDot6wLgPWhURALzfTQJXdwSDwizKabPV7QF/qah5sdogIZFWkgxSMtKOFWnvFsmw2/OvfSyGZ/6p3tmPL51Ty8l/+mltKaDPClKEWVdSzrtYqJBtWe6RZMKWm48K6hPZFy2T7Su0M6LwY7Pql2O3xQLFubZOVWePk1oWzqR1HQQvAdyywgJ+Nb1w4HvidrllRL+PP2EfvG5Xtctk5jESrLw8ycjf2O7R5taJhO2ia7Bokk6eR9tS5ozKfe0XOeoScxk/OK//thNjyCtE177Gnf76VOMtMaKPNL6lZDWGaJBHX3oIVrv79VCWrT98Nd6ymGvdXdNPcvt+NC1pSGqAsLQISn8UkORFNBae/JItYmkbCp9uogftyPBH5cREtqWSMncT7pFMj4XynylHNKzbQn1HT0jzynNtLglIUSU1E7WHLtUXocoOQc0q22JpKwLdDpIayWMebJhyz/niYIVy60+0Qg/SOpjX/zqww8uWVf/P5v39KL5MAjZ/bdk0m57LO2eloFJMMFKBmd7UsPSNwgJkRRIbT3KozAwSTJkFwZxkfXO3ynZiXFMoicTkFZDl1vfmXR7UuzS+H9WSXC3/I1ZsUuOx4ToJ0+/kBc5T5AlDteV8v3b40nXkEqrXR4tp5wJx0pUgkCrSmlNszDh+OdMWCYxgRht2bSSsL43R9BEF1LlQzP3Q+/3mLkr5h4msVhI65xLLnNTL73CSKuYyJHWC0JamdtvdOtverf77gVv0xJK3zrvbPeQPD7+7ku0SkVJIv8KCkN/qdDsSNXQlayELJgjzDvGmJ9DI8GPy5S8b4u8nw0lNQL5TP3sHNSEHTJlB6/H9BGriR/HvB5YE9jwUigaU3lhEX3lhJFW5csBJPXTuUvWQ1L+BrI7wq9Eoh8JvZj3eIRwICeS9eJCPARPtMsiDGHEhHTS6oMKfFXYt3lkImigggATGgEKG4UEKRKLxsH3gKdkYd8oGkqrfH4W8slFMvGIVgc5Mvgf25mbIPWB43VRk5CoLPiEx+8RotvLd+XOodCJOlrw+fw+zKBoRmhBfjJz/Tg/MFtIf7nsKDcLqe8WYqIaBqH9vD/Tm1FTzTz57f59w4ESTp//3o+UtM6/7Ap34sknu0NzCxumQSOtccCTUJiMckQ2CP//YqDAMPSxVkOfK+OO+YCGxFgrZB6oyU/m5/rOwL8cJp7xIPwZ4TlSacA0aKRVWaItO4498cQ5USTlwYBiAWYhRYtCYxosyZIjIPVPQUjy/z55nWM6hIhYlJtEQ4oJgWHDDjtleT9EtE00NXKV/C6N6KU5MsEwO1IpgoCFTbKQk6eFjRxNigmYf556rjli4LOebKRjacJtoMSTkB42dUjWf3+xoNdBSJQcLH4HjRvzmzf6Scm5YWPHl8AisAxTCgQrGuZoI5z4TEjry9//ibtQCOuyK690J59ystbC86T1xbedrqTlPntr8RdZw/jA/SDCbxRh6KMhKeD9wsyHOTIfGG/xbnKggjSTKOJCo9KKLTKeN3al3Cx5X6WSSqkRJi1ZL6nw/kFdOU3KKre/8c1vfnA4kgqDwQrQelYIeTQKAWGKU8drbpCj9TDIvQZFyCqaV4cGYWR1gmAq43WvUfBetLHVoimRnxRe1P13+u+noCXdR1VzkdfD55eP8Hsxn6kpU82FKU1CxgGsQR+YKPX5gRN2tMBfxW+ieSP+Pcgo/5zy4X8jz2fUdx7wd6HgeDTSR1ZscV8S0pompHXJ9CvdSaJp+QXPSKsCMYYw9Kj7Xyj8fNCAJtkULZQN0qaupJrZCZTQEks5czQbz45MVtMwyIMc7ZisRUBaViy3/HL7YUcc8TAk9f1H5ywZiaQ8GOQ8zhPCIAwW27PXdkiKbctSlRxz4EtRgDxiDsQcx2OsJ/A/pYXkeoQg8GVBYGgkmBDxia3tSGjEUNQEGc+kCc4fU2FM/WyQFhN1l2h+7B4hXzTBsUYkshuFfImOJGsfp3K5Jzm/7fertrov33mXu3z6dHfeRRe7N540ZQjSusVIayIwjjD0YoFNEZo/4/Mx2SRhuiYaF3/x/pz5b2s8rUTFvBlpYziZYKRVHtEw9Muvu+kPX/7h/XWFklQYmOeeojFaW0I7d6IJYSJgUGNuwx+zJ51W7ULNfQK0KtoHYNLDz0TyLJoUGhcRSpo8LMftY9GXR7Qeqjaz+4s6h/EiTFqcN45jIpq2C+lqlKPsKJvSRC1mI0kpCuxGAdra7mRazXpjDaUdF+S3zZf7sSuRditXLnMfvvlD7pIrprt3XHiRO3HKUJqWkVZZUIQw9FLhcSEsNHui+TC7A6wYapaPON5wEGnhzzLSKoIoSRE8MVaSyocmssqCz3Nv7qKg67xGzIRd2nOGiDgCHTC9EfRAmDrhrWSyU4GdQpfe38UiD3mhqUFqRBqivc2Szy3Fou/NbfooIPABTXFnMmhfwmRF+yIfDFNnPjlFAa2KIBOiGgnJLbdWBbgnYJn8FoI1yINbuHSJe9f1hLtf4d4+7WJ3Qh5pffO8s9yKD15jpFUqFCkMvZTQuSDwWhS+Uz83JmIcVxOMtIojgxF+n/mne2bIRe2IutiFwg/mBU0xVydQQtJma5gFCUlNunrRToLw87S2o67bA3GRixGQAVF/+Lswk1HhgkUes2GzaDOr2oOagaqd6WdkNPqQMNd58n2l1FTYVUK6aI7sKElYRnNsELKiO2lPf6Al5hOUh9esaEaHKZF8M3p3TcRE14VHfg/Xi2vOhoHrSuQgdQcJd6df1hty5kGfWPzDd1rdwaKiyGHohsoGpEWF9/OuuHqrrL1GWgXKsGHoYwWLH6YzaoxRWiglWgS+Jsx45HC0yyKN7weSWiPaxXp5JJ+IunlqVpAFk0UTElhHThU5UkIGy0WDmSv/I4eDBb41m9WIQq0luDeov7daCEx3e3IMtnafsY6GF3WuY4UnF28qpNIzfi1yxsjbGi6K0BMW+VZ0T0Uroz+Vb9E9EfAEHybNcDWM0952zkHVMP7rqouNtMaDAsPQvSY12jB0Q+XCiuUWLgWFoY8VumMXQBpEBBLGjsmrWUiHZFyIZ0tOE8KMB7FxLLlQNF2ExAhiIGmW9hop0agwuVGaiUx4OoHiM6LKBYs/JEi4ORFLJB+j8UB2BGDQRpscJUxdZMIvElJBg/MExrkRpjufXjpoTPI/8rj4HX4BHw7+t/IcnxzRfVSbIJAkn6TyCQyS5ZFyU6tEw9JcsNxnVRLCdQejSEtztDxpRS3KhgMBsRcQho7Jb6xh6IbqgJHW8PKV0YShjxYs+CzyaD5Um4AQWMwxm81viOsj/8PPRDIvf/MeHP5oQWgoGztTqm1sjSc1gAKCooZep5CWTzRGKyGMnBJLuxMpzXKf2xh836qOlPq1urJCaL30wAoCN1qz6Vy1d8o+UQYqrWbELN2JM5gl05q0TBHPevn+9XIehZoVPWGhadGiYBGJymiMQpKQNOSFv+0AssqBslHkonEuC5rleshvyP/8iQa/jzb7V17/QXfR5VdoEMahuRwtqzs4CpQ5DN1QGrDBZl3w0NJogqhjC4FVeD9QRpUrNVZAPPP2xNR8R4j5us6EaC1BgAWvYe6iqeIzsihznH8fmhDO/nohDMo0EZoOcdXJMc+KtgWB7U5mXKNoVG1CNFRn5hiCM/hMAh8gh9WiTUE0mOPIZeoXrQUCgohoSQLZeZKAIHwkoj4XPDcQPNfimj2BiY7kSM6Dc8T/9nRL3FFDjchAIgTDHYBV05LfCWlpwq/+5uBYIhw7hDDRpHpzvi3OA42L88jKOaMFLhpn25BSAe0Xv9aPfvYz99GP3OyuvupK9+ZQYrGVcBoGowxDR5uNugeGysEgYfEoKIarYbJXeNdcqfd+/JO//eeH/2d2qUjKQ6tByKK+SBZnFvktsaRoKhnVbLixLOSzc6ZBwsHRvgKigmyC6hFoIZj4UqLxYPrDvKdVJYQ8qMysgQCiuUFuS4U0+C7+FxdS6pb3NKE1CXr7epR8IIU+IQhIyBMVQLsh6TjKv6QkIhoc7+mW92rtQnmkoym5JRAOn0mlDWoWDhe664nLD+ygfmJCNLeEaF5BncJ18tvXCNFS3HehkDnXJOqzJgpKwgLOHTMquWf3/+J+N/2Ky420hkMFh6EbKheTrcJ70cPQCwWLGmY+FmRykLQuoGhERAHqgi1gMSbc/LF60bDk2PWyWJN3RBV2zGFoThSnxf+DZkVpIvK28IEReEEiYrovo9XW8V+RZY9fLC2kglZFQjGZ9UQSElLuK2VAQiTloslgQuR7COBok+M4lvdClrwH7apPNCBPbpAafqYBIbFu0dLo+EuB3d2p1AFa4kjQJMuc9vWEkDXmT7SW8DG8znUM/68SwDkTUEJ1EHyOW3fXuwd+eb+76srp7uqrr9ISTofmfFqYBictaVVBGLqhNGB+8+jnL35wNqBERrN2UTqNkmkLMfmHjotCrRfLPSAMvZwk5eFvwGK5IQua8U0FN4nAB14nEIH2IfhzCE0nRH1bnHylhJISQRcs/pj20NLAH2UxJ+x9MWHwsrNHC0PDgTzQciC7+XLcEiFEEo0hFipM9Aqp4JOidhm+IQiL12jeWJ9M6feRpKxtTeQ5Idwb5LzqRXPYLECrgzDxe3UJ0KTwezWlU6o5YnYkqGN5e3Cu+deiVqGkJfeEjQZRmvM2bXd33vcTd/6ll7uLLp/uppx8YN1BT1rurz4WRMFFLfC1AAtDr1nouqabNfItAxMgfioqe7DGLWuJ6xpGGs4c2YSythE4hTtEo4R18ytriGxw98pjYyro31VIG/9aI62ShKGPFn6XwO4BMsD/tKZDdhHyN3lX3ER25fijWOSIDGyVm0lEH9oPWgp9cIiMYzDwWSyM+IzobUV0IGWKiAgkarA5QyAFZZBkwZRjAttxzG2QXT/tDiAayAt/FTlQlIlpEY2LAIuGZEZ9YeR24XtC22MQoqERjcjncx4kKLfLe2gciTlwvww6QKAHbesZgPjFGHwkK2MS9Ode69D7Ldeb38x9emj5ZnfnD37qLpsuC7VoWpgH/SINadVs3UELQ69peKIiUni9rC1NMtcBViD67kFEtDViXRiQ9QA3hveDP7+vW6053kKj1h0Br0Fi5FoWQlgA02A1k1ZFkJSHN28RUEAUHL2pCCqgdNJaIQb+h7mtJZvVKus+Ag/TG4RAzhWE4T+LRwYIiz85WBAC7TW6+9mtBGY+7xPbLNrVdiELyKZOtDAqZODPgohUY5PnRCDSAoHvzspAeV4IB18XxXGpZfjE7k4lU0xzmDIJJQdoUHwvBXjDfi0eKXJL6SfOZWdCNC7ZUfnfMNnAvV8m13r9zp3uwV/er/6sd77zz4YhrVuqm7QKCEN/44knubdNHT4M3Tvr8/9vKB8gJNWWZOM1T9YcNs0LZAPMGsLagKZE4BguBu//hoTCa4EnI79GhF/LB4TFa2yosRjNHsbvnY8waQkHUOH9ImWDCpXjBF8pVa7UWKE7EMG8BvxQSSUhyIjAiDVCVoSFU+mBm4WmQqFaTGsQB0EWEAXvZ9GjHNDq9rgGWUAmJATjB2vtFoITVZrPxvdEwjHBCRzTkmZHw64Fkgz6XxG5Nzenmi8mClFIbLaAdiMQHgOG4AkSljfI50Bu/rfQA+tJOY81QpT43jAB0ukYkqWiBibIrIBzYNBtTwTh9mr2RMuTz2DwFyNSqBrAfUPTQpNOyvVZvXKp+8iHP1SbpFVAGPpZQlInnnSSu0q0zEVrN6ifIv+asUB6v6URVnmBReDR+k61ymD5IWIXa48PyALMbdYH/zfrBZ0ThiKhQkEA196BrKMZ7Fz5fvVl553fSIC0Kr1YblnC0McDDXNuxWwnhCSLFkm5qLvYcHeIFoQZjpbuDA78P+RFURuQhc4THgMJJz5BDISro1k9JTeVaEIIhR0P/qZVQmD4s5joS2VXv0MIkVJGDAgGGpoTdmLfWp/mhTznuxuSKQ0j18EjgITwmYUHDSSplTRE5VffmBIRpsqAXIlE5Bj+r2H0ct5qCpTfQtj6SvnNDMi17SklMX5D+FrVGihJ9ehOip3GtWEm13btqmU1RVovfuqjLnbbDe4Xl17gTnztnxxAUuEIvxPffKr7t5/+TCutAHICSX3Iv2bMl8myoZlIMK81MleuN2sFG1z85RpcJYTkS6WhMYVNd/xPn+c0qWKAz8OV0CVrG75yNiyjJSsPT1rv+chtFUNagy07yhGGPh5w0fH3UFUcElogj7q466QMgiZ4naALomUIY6fm3v/KQof5D+JBG0IVJ78KMxsBE0Tt4QvDpBg4N4Njee7tvhDXlljQZRefVFC9Pet6RdvSflQsHLqrCVqPYG/uz2liWgJKBjA7LU1clkc+H7Oer7zO53POBBesk99GmDzvJZoRc+RuOb9nBwMugtwsiG6f7KJ8/hZkjWY3T36jP3c+F0cteVssXBO1y+Z7ve+Px6hjPNR8lXdccD+CxYDfTfqAn/C/+uX9kaRVdXUHRavquOOD7s6Lp7ppJ57gDjnkEHfssce6d5x/gTv+TScNBk88smSta0Pbl0XQyULHTprNF5VauMdjXZwMo4cSlawXzDECtNhE+warnpjyCaUcwFe/KxVsYvwaNppxwbGsR1hyFm7f3fybmTM3fOov/3zCiuVOWBj6eMBF1EWMSSmDRCH/48ISzBCUVkqJ2p1y2wTrhCTIWSLgYXmbvCZEs0MWfhb3TB+9rbLawZeJj5rOpN8jBEHjN8o3bZFHEo7nyOdDGuRpEVyBBocfiT5ZkAUDJLxboqJ7nyyoaGAQzi4hR0xYBFOg0VHpYrVoRZi2WMB5hNDwe+FUdfIZfifGgoQfTAvVCoFRMorEYs6DRRs7tT8O0mQ3x+/DVAr4TR0ZCC8oL/WMDGDMl1HXtxQYJH4IKPT/QsFkIyWB+8tGg87P3K/8hSCftHzkYMWTFufy1x9zL/79Z9ze+77t9sx70j0zf5ZbvKjO3frRD2vY/le+/jX322Vrc6TfpZo1Y5wxsFfGBr+fOpKMyUId64YiQO4FgV07ZJNIJPHg/J9A8P2A9YKCAFh7MEeyRrJ26oYx9BtYPz2w4LARJleTPoAdslZhrtTGrp0tzQvmz97wyb+4o2ykVZUkFQUuLo/YZtGM2jJE0RE5I4OGBX5fr5rsUkJGRAZiqtMIQRlUfoHn5mLn9ZUfdKDJc/7HcyUmIaxlQnSEomOeC0x9adeMj0lex0/GTsoPFp7zefirOB8IigruFNbFt4Ymx6JCIuzi1sCuTSmlFW1BqD3Rf2htei45+OfBZwdaHOcZPgbwu/Qx99vYYQV+OPnN++V/8ojWRnAHGh2BJmhdnkjGQialhE4u0ajQmJlsLA5sQPD18dvzfz+AtG6RRR7SOu+8qQeRFqbBCSOtT8v3CZ6X5y/y99/c5pyQ1Is/+Gf3wrIFbm+83WXlfs2ZM9tNmTLFffMbX3e7dm7Re4hZh2uiPjy9NkGAECXA+N0v7AvCmFeIBj5Zg3HKgcGFvYGWQ0FHB/zmzHU//yYazAtdJ2Stw++NG4JNjD/3/HmO1QcfOuREh3U+w/vQ8udYTEhr9hMzVp57zjt2CJ+UhLQOyJV6cMm6+momKg/8O9Twg6z2DsjFlUVaL7A8srATko65D3Odv9jhi6+Lf+hvDzQWSIg8KGoIPivfQYAHkTyEmbbLjsXvpMLJwf7RP4c0eJ2EY0yAJBovEJLydQx1Jyy/wWuLLEDkjHHMTvletDY+K+ocR4Jeixxp+fMh4RntjbwvtDSiJYlI5PkKOReiG2cLOfiNQKXATy4Wau45fgEl4Nzvi0KYtDANDktaYUIpBXJh6PW3XOeevf5q9+Cl09wjV17s5n7qDvfC/D+6F5Kdcq963W4hppOFpG7/+Mfcrh1bBn8L94fNjbckcC3UtC3jhqR2tCzaw3MvN8sunzQPxlL4GhrGD649wRNEBTOnmZ9sTP389POsUsD5sLFlE8MmGMuEJy1+j7ZRasEtktKCBOGQ+KjP8xjoTe+FtB74+U/XHH/ccUWrO1hRYejFBo5NgJ+KXlRUtRgkLAHV1THZodIymSEufEkMLhZuzHhUnKCCxCAhyPvZuRNUQa1A+mRRCgifEMl4aExoKD5MNP9GevB5EBWaHia4BXKODBIWGZ+RPpQmwyKEP4tFmfwsHKZZ0RDxiY00kKLANemDfOX3ouYHn53Sa9Ar4BoEJsKgwjymgqjzmmhw/fApzhOtEFMtmq1uTOQ6D3VdhiOtq954XEBapaqGgeYWEYb+qle8wh366le7m953rXtq/myXSXUpQX38tltVk/Lnzm9inBHazP0KTDkHXo8gyjXwSdbJfdWyWvLcjzHD+OHnLfOSDR0VbrplXg837ioJnCOkhWWJdBwKeWPRwUdOrmlco6mDzX7U+4dCsUjrMEjqyNcfO7sWSSofTFhAa2wuPDfHDyLC2FfKoo/Z69k26gqmNbcK3xaRevTG2isEpv4f2d1SMqlJBuN6WRyosceCGPZLhT97OATmOnkugDTJRi+0Xb7uoHOTg4AKzHQrRU2HNCnbxCSJ+s58sEvKyvEd2W5NaGaBp0QLC/4c0RQxaxKswuI/qOFFnE+lgfD/x3Z2qj+R9AV8c9zDKNOox1CkVbK6gyOEoaNBXX31le7CC6e5j9360QNIKh8sNGx6dslunjQGHPpR18XD75wNYwPXjw0AnR50rsiiHvhzYm67bF69n7DQtaAS4M/Vrx2dsgHGQsRGVX3vMr7y31MoPGnhzxo1ab3qVa8681WHHvqLKWec+ce7f/37pUJU/VE3peYgAwvtYFMn4etoQkFjRiY45iMWYzW1yULNcWvluJgcQ7fgpnSgZbGgU2eLPCsGJtUsWAy7+3rcvogbNRwYHOyMsR1v6Aq0lsjzHgZMGogFRy61DBlYPjcj6jvDYJEjhwtSwrbO72WBZzLir6Ia++IWIUP5Wwky953VAsrSkJqA/4BITZplDndd2lp2K2lRd9BXw/Ck9dYjDysOaQlJDVcN/YgjDleCgqzOOP00PZ+oc82H/i5ZaFhsyPVjPBgpFRdcTwBJ7UoELYR8mgqPzGPuBZvA4UzQlQzGERj0fYf+l3/saDEEaRUmL3vZy+543THHPHLhu66tu29m3cZaJy2/4KKJ+PwqFnrMWrz2pCzQRPYRfYemRUIwEYL4BDDxNctOY72QClpXRgaq36kDTHD8HXWTCgFRemg3kA/nEnX+YfiFCHLFxMO5o7aTW0ZE4UiDi9dZ2NqEbDfFggLAdBEmwILSUjjn8cdB7ERLqs8s9P3VBLQsNiLUVsTUiSZMBJNqxLKo+Gvh72W7kBbVMCCt6aJpvWnKyYMNIPFnHVB3sFDSEpIarhp6mKSI8PPBE1H3bihw7mxU1Kyc23REXY9KAFYE/KD4ZqtlXHE9MZ9CVkT/Pr8/MI2FTf7+0TA0IK321oZ6SOuEE94wuhJOYdL62VPLCa6oedLikUmC+o6tn1qABDRQvy/bm1V/Db4nnIqY6xiQhIzTr8oHNhTibCwE3o9GZQpMi9iM8S1QyWKmnOujAs41aDBJdGAQ+UUEIpF7JBrjd1siWhCtTDB3YqakDthQwRf6nYKUaBtanYPfy/8FhLVqWLss7ORm4cOq5IUvDK6TX/z8I+cO0LTYmJAoDRlTzoaUAEBUZ6w7qKhPYAn+zY07d7q7f/RTd96lV7hzBcefOOUA0hpMLBYSGjJy8DNCZjmSiqqGfsghh7pp06a5c97x9jGTVBjcb4J7CFVfJGM6fG0qBcw/qsVgWmZs5ZuXtQpL6O+JAOOF82LOYWVg80rS+cq2uG4qSffAx2PkNHb0ZLq667dvXPuRD39wsdAQuF0JqRCZTKSFRkJU1NZESndJhJvjqA4CJIJFmwvKowcllSAu/B/FHqR8HgtNkDgclGLCl0X1DRZTFlECO3zfLTQxyJSdNITK+7ErU56JUlNUlid4xFfWiIJ+Z+4zlJCFvMjHogoEGiWRjUSZQeZVQ1aywABIid07i54nLQ8lL1kwATtl/9uCHBMW0Rw5y+9+bFene2j5Jvf57/1I2+xPzZGWJxtI63Nnn+b+512XuOTHb3T7hLSe/9SHXez2G13m9pvc2puucfOuvWzI8khTTj1dCesb//h111A/dpLy4J7qWJB72ihjms4A4d9eKfAbxqhxlX+/ygkdF/KIn5bqN1gXsFTgh/JzjnmCicxf66j7YCgIjds2rV13/PHHD8h8eFAoiJJ+oxNI67Ajj3zqk3d+a06tktZCGYxEvuDjgZzUdyQDkIvoB6AfjCzku9PpwSCErUIGPX0BuYQu/EFAO+uX9/L+Qga1/z59LhMisHsH2hGh2P4Yr9EdcHzuMXgtIB+fN8b/CwHXAEImshGSCvx40dev0uE1rGIufP/57Gb3gU98WknrrAsucm+Ycsog8VAC6ayjXuemv+H17qZT3uQuOf5od/7rj3RnHXm4O+qQV+sxL3v5ywdJKlwN/ZGla3Vj0Sa7de/3zL+vowX3nw0P9S+5BlGkYDgQFI/lelHqjG4MbPyYPzrPIuacYcxofGFf7/Lr3/++jpNPPnmOUM6UgHnGKK95zWuOg7Te9JZT62qFtJiwAPPDug5K86Q1xDSsSeWD/5NTBVGRh0DL/OXtaDpp9XNEvYfPI3cB/w/FZ0citWJjrJOJCcnOUaMTWwONKuo6Tnb88IkF7tLrbnBTL5vuzrv8SvfWc85zMlcUnrzCeO1hr3OHH3WUO3PqBe48ec8xx7/hgGroXsvDPEmuHcnf1K7Ev0Z055hSEtjcCOgOjenYyGp4EC2Mrxp/bUeG6LfgGhoxFRVKUn/z159tLApJ5Ysnrf97wbSqJy0mLMEIS2QxwC9BbpEGRsiFHGpQkrFNSSL6ZGGKIzwcBza7rvBxvJ9dMZnqXVkhKjl2U1fQXgRnPq979MtEIJ9rqO8cL/hcdtaQpi89hNYEaQJKSHkCxaRJ+PrgcUJYnO8e2VlSPd7K8wyNux/8rZLW9Bs+5D70mc+5mz/7t+5KeX72BRe6K95/o5v+gZvcHV/6mvvy93/svv+7P7qLrr7GXfzu9w7dVypnGtPcqJxJkihNIhkxRQ3IPeK+FTJuuI/qu5INGb5NI6uREHP/u5PySDGtL4lvulTzc7JBNvVpT1JvOuGE7UIrlwfsUiLxpIU/q9JJy09MzB9oB/gtlrYl3YqOpPZ/wkcVhJpGX9wwfCDCc7nsbezWEJwuGvJ3/vH4f8j2DpLrWGTSB5BVUnbLLDyxHkx0B78/H7yH99PIkRwxNEFIMWoi6XfIOXX3ksQbtA7ZKDtFagWi5dEEEh8duVP8j3JTRDiSW0b4beD/IkE4aEmCQzl8PQ3R+ML3fqSkdevn/5+79/cz3X88tdw9tnG3e7K+XQN4bvu7r7izp12sx0W9fzioXw2tS3b9dIim2zV1JINOsIF5ODwWws/ZkBG5Wq2m3HIhyCskD5MC0EFpJH8NDWNHmKRyfqm7hEqKq00NJ2HSksn3NKQVNQDKCRZTADnprlQeqadHUVeCJghMwH7Por//OQZikDgbteAXAiWFvP+FX4PUWPwBAz98PITArs0TQyHgWApG7pTfQ+8bzEMkJ2uia+i4wF/V47rkeyFK/HLkb9Eckhwq/CLkhtEMkqAN6iUSNUaDSsiX9wN8dxAukYZoolHX3HAwIKNrb73DfewLf+9++uRCJSn8U8VoJT84xkXjIh+PNAXy6tS/IpuNhBAY5BVsqLq1JQ3VFKibaJuNg8E10S4NonWu60zoNSQ9ZTzrgiGAXMMBSOree767bUJIKl8gLTmJH0wUaXly4vls2RURyUWxVxZkqk5gvvMBExOJYg58JhLmPaIFcfwSQOGz5T14nURlzJVEOGLq5FrQQ4fyTFo+St7nW+bjG+kUQt+f0xz953AMWhgJw/46GwoDpPWum291n/jaXSVtJe+1LvqtBX5YGvkFPduoL+mPMbI6GGhTaKvUDfURfkTGhjeWhtHjhed6t82c8YfKIKl8eeUrX6n1BctBWn7Saa2/VqoaJ7R3FAswEWwavSOLNf4ZrQocWnxrEd7vFAYTDdMQ2hjg72C3jWYWtDchmpGOybyOSRPS8+/1j0qM8hqBIuzeyd/Kvx+GygDzIti8BfeIzYX/X/6xY0UQ1h/9WrXBEzi5lfiiGeNGUONGY8WSVL6Ug7TYRaK6rxW1HTMVvZ1YUNWElbto6mN66QJOaoTJh2ALiBzSIkIRzcqbIqOuF/+D5AiDp0YYkVJR98RgqDYEZBXTTglJLdJ68Pg3FAzNlZp67jkpWf8XCRVULknlC/6sUpCW3yVSvYFKwN4XFHHxDMPAa2Ncu4Kun2hp+P3QZMP3wWCoVnitk8riiWxGN3K2lowapQ1DL6eESes7v318RTEiB9kRPdUY07BwLXVS42a+SgCaK5oY2fxPNBSHrKLMSeU0MVG1Qr9PxlPU64bahh/DWAsob6bRtbaWFIT9B4ehVy9J5Quk5Us4jZe01Ay4O6Zh11Gtyw3FxaD2JdeaSCkShZngOPP9hA/ygQ6+V/ngeEKo58l7SVLlPfhBKCrsO/2WkrAYO+ykqfVG/pj6O0VD53Es1e4N1QXGnh+zVKqgsSDjbo1swogUtrVkeIRJqir8UuORMGlhGhwradGJk0rN5ENEXdRiww9i/7hXFm5Mab19PZrrku0lOi9I9A2/r9pBgAo+LspF0W6/OZVx9bJJaM5kXEc2rYVfCZ+mav1cSEfuDWTjScg/p7dS0FIl6RbLIwmqkEOYmKLex//94sKjB0VFIUwqqPOZtNxm0SGXjggv9UfkNjVUHp8v37W2I+V2JYgSzWragFZdl99FKgO/lXbdELHlI9UG0JwBYwC3wepOXAcprfJOnmWrbLziPRlt6Y5mNaYKIZMEk4qk8uUA0qpbXv+7TXv6WYAYZH5xGg4MQNpgkPDIoqN9pGThYfdP4iwXmIE33sFHcEEQYNCjOSxNslhv7kq7zTLoSbQkQm5Ne9LVy//pbbMrmXFtmW6X6iVH6aVHze0SVMtk4Dfz2CfXkokMKczdg79KtI/dcVfXmHAr5fpvlGuwVMiHPCzuCV1o58l95H9oLguFpIi22tiZUpLbKddnEfUG5dio+xoEz3TJ58S06jydnZXghNzIheFvQNQnSbHcc+6/Box0ZzRlgXwy7g9djcmtI8+NKg6YjIe6B5h/KN7bnA7It5AxaKg8+M0M4wjtfXlbXJPvM71Bqga+Vx/15yOFGRO8RuRrtczPckGuyYBcs/Uz/ve3vtDs5CGpfPGkNf3a6+pmLl1ZP3dHS394tx0FHZCYi2TBI+GRxWWB7JxoiUFZmnWyMG6Ls4MOSCLqJkSBgeoDD1jcICfaxRMWTyUKKgf4hUwb+snCzaR4Qh59kiaLNQ3vlsq5UDuQc1rTnlKTJRUiaD8Rz2ZdtxCYVsCQyYKtnLJLWokg9/0TNWn890JWFLOlzxUkofUBc9oKv9nfixlyHdCm0HKUKOQ6bYqllSjWy31YLcRBRQCuG8B06O+h/wzuN39jCoSkIH+uO3lkXCON9BSw0JAUPTAQlLjyi41uJvzjviCqi/eQXxekLwSvD3dN9TVZrLqF3Eig5n6Gz9FQOfD3hbHIRgitfc6eoH0HGvQzMl7ZsBApjObMvQXB+Dj43huGRPWEoZdTIK0pbzm97rN3fXvOzws0DzJo1dwjj0Fb6WA3zkLXRnSPLFz7BAOyaFGQshDNhgrphLFSzoguwpiF5oYWWL4v/zzC8K9zLAse5jG0ksWCuubATzNLzhPtIKiwnVHNi/PlvMmBoq+Ubz0QdY6lBBOaBOOMXIMtXUk1182Q3+F/U/i3AjSk+UJUq4Vg6KrMPfAbCdp8U5RVe3Llmdb0WgpI5GbDweaCUlD4xEhShmz8IuPPbajnRQMmT3mkWLESdOh8DRMPP2aYY2wGqTbRJ2OV1AvMeTQNZeygOfn54zcqkffbMBTCLTuqKwy9XJJf4R3S+sOWpn4GJ7bnwUErfwN26YAFkte1c6doMAxWin0yiPek01piiMFN2aVh6+kJ2M1DUm1ptKq0aEcJ+WxMXwdOnEKhWogs3PhBOFdftsgv/GgbtM9HI2NnuFRIjIKltCyBYEuyKI8AtMrt8bReUzRIvd658/Xnzv94zu8JgiXiqmGGj/Fdhb0Pyr8GgvsVd7vlGreL9kZvLu6ZDx+eiN/Nd7K4sWFBq8bESUHT8HkbJhgypnRTKptImpTma0v++USMnxpA7YShl0s8ab192oV1X/nWv8yZsXRV/eqm9n523iwgq9qSWsIfTYRuvpQKwkwHWbEAspunFT1h1pQJYmePaYBFcbhQdwY45qZ4d9Do8JmWgEDQFMKLdangSZn+UbSn39SZkHPBFFbeyYcfiMK2tKmgQ3HUuUI+S+X6YN7Ep4Xpk/9znTwxDVdPkPB3TLbZPvlOuR9oUmwuKqI0lmhYmBjxg7FxeUY0Yg3aiPgdhvKDTR/FmQmMGI2Z3zAkjKTGK560brjhurr77v3enO1b1tf3ZGL9LGwkA7OoYpPmOcRFKCqLPfADO1hgYrrwEgVG7bvhFn6IjNpgOO8p9rqiPXDse79KeNKUCnwPCFrXU4iXViQs5KUnLT4f4HDG5r+mIzDt5Z/jTDk3gijicgwbANqnLJBFnY0BPip8Bvjo6FSMGdVfO//b+Ew2A7vkvlUCQUVBJrBqemjkbHryNUxD+cE9YF5sidMwNSg4G3XvDCMjHOFHrhRrrSy7RlTjkTBpPfDA/U9v2ri+nh0Vi2mmlwKt3VqElTYYaFdEpT3dwmLI85w/q4HK4yk9jvf6SuU8qiNeSIrP6sjSLj5YgHfKhFjRmpRFOalh0VGTp5TQxVFAiD5+L/xZ/FZPKPmDr5jwn4//jHYUS1uD3+8XbMya85tiupBzrTQ4oS+r4eygPxcEQYAE15ywdQIo5jfio4qJJpzUQBiIGHNrOX7TaMH5ECGIWZkgG/xrRlYTB8YeqQmrZC4QDarzNnefou6fIRqTOgy9XJKr8P6bd113Xd2//Ojfn/7D4pX1+HwwmwW+H3xC5NsEOTwQl0Z1ySB/bGew0GAiXNmW1PBzci6WCBER7ICPhlBsggIIGMBvRIAB2pr3NU3UQuVJCxPnwmaiCxNqAkH7CzSuQMv0C74P4SfSkKASIg05VjWz3HFRgzgf/jg+A+d1VzajmpBeG7l2tPzWnkqQlXwXhXP5DoIkCFMnUGGbaKf4DWOyCWiQ47nOmFhXC1GR+4LWi7+LqMldieQB3zvR8NeTDQJ5OXVCzlH3x1AeMP+Yi/UyTjIy7iplnFQLCEOHpCwMvYwSLpb7t7m6g37Hnz+48//GfAVh0Zp+riyS/I/3BoEAQmocI2Dn3yBaw9OyQOV/zkRBz1Wg4fJCwmgq+H0A/jn8eOs7CLMXMhGi2CKkwg60MR00YSSUnFwwele1C6G0Zog8zGokYq8QDj4jiA1yyg9E8Qs3YDe7V4Am5fOanhEShXCWCSAgzo9zRatlM8Gm4Um53jxSFdz/j98CuAe8H205PMEmCv63kk5Au415+C7lHPk9UffGUFr4sc+GlLSIftkYcX+i7p0hEhaGPpHy8pe//D2etIYrlsvCifmA5yw4+LTUB8Uimfu/vpYDx2/oFA1GMFueh4+pNPhz1t8iICKPv73fjjB5ctBIxKXZIuYs7ZIsEx4NicRdwv0higVyzLNCeiRbQ3iE7+PDQ1PrFSIjb40QYfxUhJqvleNYxAfPI3cOhVyv8DH+fWwi1GleQQsRZsz6ZFI3BmFfqKG80PEloD9XvYzfXtlEWEh6QQiT1IOybBpJTaTgzxqOtCAmEP7fUGBC4N+iJMtigZ8kUcdWE/zvwMyJKcWbTSlFRLIz2hn/98dC2PMbg/8T6UcwBMETmFchQP28HDGpZiSP+d85GmiIvxAteW1oepjeJjzSS0iaxGg0UDTXuXsOPm9D6eDH1oJcKS0Sz4lA3diVyKV2VGZgToVAc6Wuf//7OizCrwIF0ipGsVyijZgYRKyxaEcdM5mgxCRAsxgvKQ0F/7kauCFESjfjOBVIRuFjKzbYuRN4s28g8MvRkoZUhvxzNxQffjwskOtN/U9Mzpip9+bM1WjfIOq+TXJYGHo1yVhJiwmCdkHJFrSJ4fKEDONHlMYbLFKBP+vZtmTQATqZ1oCN1nRaCwgTyFFOAoO0+L420bBWtidVowyfs6H44Brj18QPSy5l/v2uFDNxpSA/DF2WQSOpapIwaRVS4Z2FEoJCsyKSkBJBfodnKB4gKEyK+LvyyzB5BGZBgbzOBgKtDlMQ5kvaeUBgBIl0ZtOq/WCyozI8mhjVJwgQYQderEUt+A4aUGa1DJP5r0oH5hz3n/u+qSulFVWMnKJhYeg1JoWSFouoBmMoDn7dUDxwfUdrYmURUyiRoX11Bf40IS8CSAgU4XEBkZ7y/9m7A2c8ldfH6/+CrIiCpNAtQSkWFVg6cI+5t1ShoWoNG5CoezKZ4Unq3nu+axF+tSjDkVZAVEGbC0Kr881ThsqC13j9o38OtJ6hPvL/wDm/K57SvmPj2aFTgikrn0E0Jfl3/nsN44cm7jeKNiXP65riGmnaRfuffkv8DUNzpZ7r3WZh6JNEIK1wsdwZW5v6KQmEaco0qtoDJiUSxYnupOYh/a+iFoKh4BdKEqA3diU1epKdf9R3GUaHR3d2BpVN9mDyS2oXAgjKm3CNpA6A5UpNRglXeP+UkNb9Tz2rmlZ4p26oHXitC/Pguo6ES3QHjRsjFoSDILtZNUUluzOuOR306lrYUtn5d5UOrt1TjXG3votqLDRHJOIyiPhTksoFtUTdj0kIa9lh8hJpYRpE0yokEMNQnVByEY2ISMN1HbldvJCQb7g5FHThxGcloFbgXllUW2WBpcBx1PcYhgb3gEr+mGYpb5bozWm55peKgoWhmxwsUaQVNdkM1Q+fgEy02Y54Unf1vkPzcGCnD2HR7Zkah5iv+Jyo7zAcDIgKzN0T0x5zlALTlj1513myQzT5DgtDNxlRwqQ1XAknQ/UjTFpU2KfVzEgLJ+WXCF8nUq2c+VYQ42wCgBqCIISoYyoZhPrTo43motSm7O0LNCoLnngJ+WHorEOyJBlRmQwv4WK5Rlq1DUiLMHpazNAmJipUWrUqfd7ruvt6tCgwVfBLHTXqTZcE/lAqi/w//o46tpKgWpRcVwJR2AzQ+4yCx1xffIBGUi8hn6QseMJkTGKkNUnAoiqEtVZIiNI+Qy2kNP7MyOsb5bglTUGVEyWUEqMc31EscK74BfHp0RaGqv9orVw/SApTqhGVkpS17DApvhRa4d1QvWCRRQsgsXh3kgaSB5oFeQ4IyMAcSMHdhc3VoemUC1xD1VTlkeRp8tL8tTOSOgAWhm5SWsGOXG7S8qYm/BWWrFw6sNCqBiOLLaT1TEtQ3Ztk4v7+IHydhWaQtOTvbbGklufS942AWr93/hpwPVaqb4pajqPLaZsECIehW8sOk9ILpFWMCu9DgYUNUwqJyoT54qugVQLlhaKONxQXWkhVNCauOwV16bNFQVW/6EBWzw30uEQ3jS3TqkVQqT8/qVwJUD5rlvx/QVNQpaEWE8/976SfGp2gk0Lyz4v26c1+ocV6skLD0K+3lh0mEyWlJC2/E+cR0wpgx2/aVXnA4ss1J0iATcPajoQ2oPTJxD7vikTW/aJBkDSsZZjkPeHPIQqurjEuhEaTy6CPWPj1WgJNPCH2/fuEqMzsByxXyqSyJExamAYtsbh2oOYtISw2Cus6Uy7Zk0smziMt/FhUg58nGnD+Z7DB4P1EHaoWEnpttOCz8An57teVAP+b0EI7splBU2newj1pEI7wy+VKXR6sFCYmFSJGWrUNuiQvbEq4HfG0S5NMDGkNLlDdrrs/6zZ3JpXcSqUBK1HJ51eaOfGxnYJdAaH39h+8gE8GWBi6SdWJkVbtwWtDmAXpq7W6Pem6skEABhUwIC20rGxfUI6JvCLMYrN2x92i5rh2Gaaqf/7n1gpI/KVH2U4hckLVg7y0yQEfhm4tO0yqUsLFcq3uYO3A+w/RbOaIpgUh7UhkXJsQF+SV7u127fLYnMlqg8i0kFeXPG6JJTXQIuozC0El+yr1esgjjTGzk6yEkrXsMKkZqWbSYoH0iHp9MsP7abRKg2hMtJmhASQa1ZZYym1PpN2WrqSrF02D9he0KKFVO1GeUZ83FAKzX6yifFRRWCha1ZZ4ShOnoxb1GoTlSpnUppSzwrsnmNF2442CEdXIIHIQ6HMBpMS115p+jXH1YXlyA/nvHwpce99njc8nh2lOA/c1+viJgv/tlKHq7M66/ft6oxb3WoHmSk0995yUkJS17DCpXSlXhXd28EY0E4PRENJwwMdFDULC3akNuLQt7ha1xHMV36PfMxHg9wam0bhb055w3X01aQq0MHSTySlW4d0wHDAvoqFRuQSyeqY5oS3113UmNUGc16PeV25AVJAnOWar2pNuVzLt+gaiCwJXIyLC0I2kTCanWLFcw3DAnDhHiInK5ZDVcnnENFgpZOVBTcUdcn6pXhKnq1+zsjB0E5MhxEjLEAW0qmWtCbexK6VVzClnROIxScbFMjcWC/iuiI4k8rGvrzrD142kTEwKFEyDlURa+L6KEahhGBtm7goCLFa0p1wjJrY+wuMFPVm3VoiL+oWVQlredzWnIe4Scn7PVZGGRa7U83u711vLDhOTUUqYtO785X8vmijS8pGFUa8ZSg8IAJBwuzmWcgMDJB/3KuLdGdG40hUWISjkKlrfgj0J15BIV0vregtDNzEZr0Bapazwbqh8oK0Qtr6sLeE6MlnRAnyh2G6tSVgvpACRLW6OV4SWhTkQbXxFK5GB2Uo2B4ZbdlgYuolJMcRIa/LC51utbE+6hiS+K8yBarrSIrpKBvK8NZvWKhK0K5lI0oKsCADZEktrA8YKJCsLQzcxKbWESQvToJFW7cObAsm1IuBiVgP9swi6SGoFeIgKTet50bgGRNPq6s643UJokBs1+8pNXJDVY4IVbUmXQbNSLfAAspgoGEmZmJRbCiUtzdeJ+L+hOoFvauEeqr/H3ZJcOHtvf659fI4UfNsS/k99QipLPCnvLWe4+0wh1eVtCSHOwAw4kWSVnyvF3JEpZERlYlJOGYm0WNxI2qy0qgeG0QMNiYoWJN82pYJCufTX6hFSIrcpf5F+cX+vc4L+gawetyORdguaSl/ZRDU5GW/zG2OuIZVRv9pEkJWFoZuYVJhYhffJAUxrsxu7tN0IJja0Fl8pAjIYihC8pkVXY1rOb48nS0ZYYbMjuWAbulIu3pPVNipR51YKEIYOSVkYuolJhUokaW1pMtKqEaAlk1e1sj2hFSOo7h4T8mGBLkRz8X6tdF/GbdKWJcXVth+t7xQi7XJrOhKuLZ1xzQJ6W1GJnWCQqHMqASwM3cSkWmSw7uC731v3qW9+e87PTdOqCRDCjkYEaS1tTbpV7dQKTLn2TMb1DwSLte9cPBQ8qRGI0dmdcc80x+UzY7lw80ArIm+LWoSr2hJuWVvcLW2Ju3mi0VE5Q3O6/PnkzoXzmiWv83ytEGm6N2htj6/K+6sKIdNxIkxSD8o0MJIyMakWKVeFd0P5oS1IGuKafEsPLUCR223xpEv1ZtVPFLGgKyAQJ8AsSGdjSGt7POV2J0UbEuIjNwo/FxUoOKavP+sGBBlBoifjYtmMa0rJe0Sz2yhkWZ9IuY5s1iVz3+sDPaK+uwTQXKnr3/++DovwMzGpcrEK75WNsfqPHtvZqZpQXWNMW+c/3RQX4kgKMi4jxEFIe8TiPggfUu7JBeDb4jEcbh7Wjvi/Ivca5r39+4Ik5TJqUcDC0E1MalWsWG7lAk1pNF2EA3NgzNXtiblNouG0ikaU7IGgRLPJRQaGCadWkB+GLsPaSMrEpFbFSKt2QMTdms6k1gkkmGE48181w8LQTUwmsWAaNNKqDmDuAwQxqFaV+z/PF7fE3Z5UZjDirpa0KU9S997zXYvwMzGZ7BImLSq8/2rphtb8xdJQfhBtp+3i5XFRU8KtbqdbcFr7WhEWvkeRcl09GZftz2owRNSCX40Qkhp44bnebRaGbmJicpBAWlYsd2KB34qk31miQZFTRcWJHXEhJ8LTc2WVniegQR41MCIX8JC/2Fc5LFfKxMRkZDHSKi8w72HOe7o5rtUlEjn/U1s24+KiNaExkT8FQdVi0EQI1rLDxMRk9BImLfxZRlqlwcz6Lre6I6nkRDRfODQcaDh47WlPYVgYuomJyfjFSKu0wPT3dEvgj9qP5lTbxDSI/Xt7OiwM3cTEpOgCaR125JFPQVqUcHp0S1P/WBNaDXnY3aX1/tZqNYqUS3RntYW9X9hrMcLPh6EzrmR4GVGZmJgUT6zCe+lAzlRQRikIsqAf1O5UynX3d6vGFbXwVxPyScqCJ0xMTEouRlqlg8+polninIagf1VrJuv27a1ODUvD0IWkrGWHiYnJhElUsVwjrdFBK57LIyZVTfgVkiJknWrnazuSriGZdqmebBBokUcEVQALQzcxMakcsQrvo4NWoxDMa4y5Ja0xtzmWcjsTSa1i/mxrwm3oSmrrD+0HRb0/WfirLPAiHIZuLTtMTEwqS6zCezS8aU9JSjQnfFIbO5Mupm3pg9YaNCn0mlOmP2hXz//ySKDSoWHo1rLDxMSkKsSK5QaAnHzZJBodrulIusZk2nWI1hQmpyo07+XDcqVMTEyqVyYjaakGJeREuaRlrXG3qi2pZr02zHq+GgX5VPJY7SQVjvDL5UpdHtx5ExMTkyoUTIOTibRI9J23J+7qU2ntxkunXSWnGkn4tTB0ExOTmpYwaVHh/ZE1O5JRi321Q81/ol3Naoi5LbGUey6U4FvN8GHo1rLDxMRkUgikVavFch8TkgKLmmJuezylwRO1YPKzlh0mJiaTVtpG6boAAAOfSURBVGqNtNCmntwdc0taEq4lnda2Huqfqm7zn+VKmZiYmCBh0sKfVY2k5UPTKZfUQFHaULRflUJzpaaee05KSMpadpiYmJh4qWbSgqi0L1VL3NUn01oeqUr7T1kYuomJiUkhAmlR4f09H/nY/GogrcGAil0x15jOuL25On7VRFQRYehGUiYmJiYjSTUUy/WmP6pSLGqOaXuPjnRamyhWi5/KwtBNTExMiiCVTFoQFY8LmxOqUQ0IST0vJPXic70VT1ZGUiYmJiYlkEqt8D5nT1ybJnZ1Z4WoqoKkBkTzW28tO0xMTExKKJVU4T3QrGJucUtcyyntH6h4P5WFoZuYmJiUUyqpwvvMhpjbGku5vbl2HhEkMdEIt+ywMHQTExOTckslFMtFw6I3FaWVBiorv8rC0E1MTEwqScpNWj4S8MmGLvfUnpi2/9idTLtsfzd+oSjiKCeMpExMTEwqWTANloO0SACe0xBzqzsSrimVUY1qH9GAQhYTFWSRnyvFtZBLYkRlYmJiUqkSJi0qvBc9cnB3UFV9tWhUbZl00KcqjzzKBQtDNzExMalygbRKVSyX6up/3B1zy9sSolmVn6wIQ4ekLAzdxMTEpEYkTFr3zazbWAzSosTSE7tiblVHwqV7gwaLUaRSIlgYuomJiUmtSpi08GeNlbR89YonRLPaEk+5bI6sykBYYZJ6UH6SkZSJiYlJrcpYSQttasauTjevocsta0m49V1JtyuRcqmeTKmJSnOlrn//+zosws/ExMRkkgmkRYX3m//qC/OGIi2vRT0uRLWoOe7WdiRdui8bRAAK9u8NUCLNysLQTUxMTEyii+U+vrWlf8GemJvXGCT8EkSxNZ5yPX1BeDrBFKXsV5Ufhi6naSRlYmJiYvISab3l9DPqvvWd78xZu35tfUeisx8tqrc/656noaIQSblIyoInTExMTEyGFE9aN9xwXd19935vztYt6+t7M/H+Epn5FJ6k7r3nuxbhZ2JiYmJSuIRJ699ypBVFNOOB5ko917vNwtBNTExMTMYlYdJ68D/uf7qIpGW5UiYmJiYmxRVfLLcIpGUtO0xMTExMSivjIC0LQzcxMTExKa9gGiyEtPbv7emwMHQTExMTkwmVMGktWjB3RU8m3p8jqQPC0DlODjeiMjExMTGZOIGMjj32mEcgrSf++NhvLFfKxMTExKRiJadp/VIevyx/GkmZmJiYmJiYmJiYmJiYmJiUVf7P//n/JnX6ooWn8bUAAAAASUVORK5CYII=;" vertex="1" parent="1">
          <mxGeometry x="410" y="81.74000000000018" width="61.63" height="62.64" as="geometry" />
        </mxCell>
        <mxCell id="OF40uoXXn-pdmVkBGDkX-32" value="User interaction" style="ellipse;whiteSpace=wrap;html=1;fillColor=#e1dfdf;strokeColor=none;" vertex="1" parent="1">
          <mxGeometry x="643.4400000000002" y="89.95000000000027" width="95" height="35.18" as="geometry" />
        </mxCell>
        <mxCell id="OF40uoXXn-pdmVkBGDkX-33" value="Audio output" style="ellipse;whiteSpace=wrap;html=1;fillColor=#e1dfdf;strokeColor=none;" vertex="1" parent="1">
          <mxGeometry x="566.6300000000001" y="89.88000000000028" width="76" height="35.25" as="geometry" />
        </mxCell>
        <mxCell id="OF40uoXXn-pdmVkBGDkX-34" value="&lt;font style=&quot;font-size: 11px;&quot;&gt;Dynamic images&lt;/font&gt;" style="ellipse;whiteSpace=wrap;html=1;fontSize=7;fillColor=#e1dfdf;strokeColor=none;" vertex="1" parent="1">
          <mxGeometry x="471.63" y="89.88000000000028" width="95" height="35.18" as="geometry" />
        </mxCell>
        <mxCell id="OF40uoXXn-pdmVkBGDkX-35" value="Define event tree and DAGs" style="rounded=1;whiteSpace=wrap;html=1;fillColor=#fff2cc;strokeColor=#d6b656;" vertex="1" parent="1">
          <mxGeometry x="400" y="259.51" width="90" height="30" as="geometry" />
        </mxCell>
        <mxCell id="OF40uoXXn-pdmVkBGDkX-36" value="&lt;span style=&quot;color: rgb(0, 0, 0); font-family: Helvetica; font-size: 12px; font-style: normal; font-variant-ligatures: normal; font-variant-caps: normal; font-weight: 400; letter-spacing: normal; orphans: 2; text-align: center; text-indent: 0px; text-transform: none; widows: 2; word-spacing: 0px; -webkit-text-stroke-width: 0px; background-color: rgb(255, 255, 255); text-decoration-thickness: initial; text-decoration-style: initial; text-decoration-color: initial; float: none; display: inline !important;&quot;&gt;CesiumJS&lt;/span&gt;&lt;br&gt;" style="rounded=0;whiteSpace=wrap;html=1;fillColor=#e5f2ff;strokeColor=none;verticalAlign=middle;" vertex="1" parent="1">
          <mxGeometry x="502" y="163" width="248" height="77" as="geometry" />
        </mxCell>
        <mxCell id="OF40uoXXn-pdmVkBGDkX-37" value="" style="shape=image;verticalLabelPosition=bottom;labelBackgroundColor=default;verticalAlign=top;aspect=fixed;imageAspect=0;image=https://pbs.twimg.com/profile_images/378800000723966304/85ba7259a6a0bbfa00ffd975240b3846_400x400.png;" vertex="1" parent="1">
          <mxGeometry x="677.0000000000001" y="176.5" width="50" height="50" as="geometry" />
        </mxCell>
        <mxCell id="OF40uoXXn-pdmVkBGDkX-38" value="&lt;span style=&quot;color: rgb(0, 0, 0); font-family: Helvetica; font-size: 12px; font-style: normal; font-variant-ligatures: normal; font-variant-caps: normal; font-weight: 400; letter-spacing: normal; orphans: 2; text-align: center; text-indent: 0px; text-transform: none; widows: 2; word-spacing: 0px; -webkit-text-stroke-width: 0px; background-color: rgb(255, 255, 255); text-decoration-thickness: initial; text-decoration-style: initial; text-decoration-color: initial; float: none; display: inline !important;&quot;&gt;AntV X6&lt;/span&gt;" style="rounded=0;whiteSpace=wrap;html=1;fillColor=#e1d5e7;strokeColor=none;" vertex="1" parent="1">
          <mxGeometry x="502" y="250" width="248" height="49" as="geometry" />
        </mxCell>
        <mxCell id="OF40uoXXn-pdmVkBGDkX-39" value="" style="shape=image;verticalLabelPosition=bottom;labelBackgroundColor=default;verticalAlign=top;aspect=fixed;imageAspect=0;image=data:image/png,iVBORw0KGgoAAAANSUhEUgAAAMgAAADICAYAAACtWK6eAAAbJElEQVR4nOydCXhV1dnv/2+YRAUEEcGpMiqKWixV0K8O1fvV9utgr+X72toq/W77IaCQBAIJEBKmEAiEMIbBWrHDbb11avtdsYptVS6odUKUKiAOJBCmMJMAOf/77J1NTSA5yTlnv2vvc7J+z7MeNOec/b5r7f3fa+211/uu1iRhsVgaJi1oByyWMGMFYrFEwQrEYomCFYjFEgUrEIslClYgFksUrEAslihYgVgsUbACsViiYAVisUTBCsRiiYJE+zCjB/uf1xOTz+qCW9t2wAWtzkLrtNan/UZiOGATRGpARoCaKvBIBU4c24uaE4cROXkUEQJo1RbSqj1aSSsITyBScwIR1ICnjIp4Dojnh3z+t9P/jfZZvP9G/U4T/kha45+7/50W/bciOAnBLhG8C8GzInhi5MNyKIHT0SRc1e/LAIYCGAKgF4BzNO35RATAHgAfAvgrgP8j93/4SWNfbvB6zujBa7pcgd917oP+rdqpOluPY3uAvZuAIzs/907ktP+uc7HVuzitQE7/7AAEcyQN80Ysl2o/zxMf7TsIQDGAr/h53IBw7r2PA8iRYZu3nf7hGQLJ7s+87oOQ165jQp1BTJysAireAA5t95w6/YKDFUgcAjn12ZsQfGfEMtnux7niL/pmAShMweH5UQAj5SebV9X9Yz0RTLyGKy4ejJ+ltTHo1W6gbC1QU93IhW4FkqhAnH/LRDD4gdLERMJH+swAMCmhEx5+cuQ/txSe+p9/CiSrF3Muux0Frdqa88QZSpW9DEQiUS50KxA/BOL8/5siuGn40viGW/x57x8C+LUvJz78DJP/tdXtSdxucsRZ7Nf9esxo1cYbkRkoVfuA7a+4D+YWM1wPYFw8P+TDvc8HsdjUtRGCspQP9+6JUwK5+l4Utu9qbkzpiKLs/wGRk6YsWjyylo9ix5h/FWEGIuzsziW2jHI2IpzlVF2WDOelAJyn91YaZ6Qhdm+ona1qaOgBO8TSGmKd+tt/Dl8iv2juueLyns4RnGeXHn5fByHH6Ut6pYEYCqKVqe6rpgrY90HQdW/R3BXTt4kBIHqEYNhjuoijjdYkblE7FQ1QuRVgTd3pAYthronp2+S1ap6En9tag7japMWDn5q0ZmmAC2P6NtlVzZPw07c1gM6mrDnDq+r9dZ4rLOGH7oCjpXKBM8Q6YcrasUpTlixRKIvp2+QONU/CT8QZYlUA6G7C2onDJqxYmuCtmL5Nvq3mSfipSAPxlqmZAfveIxQ8G8uX5aHPPgS5BSRaYNmQRuI5U/bszFXg7ATwdMy/IlaGYNo1iLLaeUh/BsABAJ1UTkkdWhtcOm9pkKnDl0hVzL8ilwB4EMClKl6FE0cTT6SNflSOgSg0oci25wZd5xbN8wBWxPNDSS87AuInICIhuKubKiWSXnbIXX9FYhGJcu0hVtuOgMml9JZ/8g6AocOXSiTeA0hG2RqQD4BkCJ4NtEs5yCKcWqw45jFx7hBZ6qoEcE5sr6ksifNHALc+UCoHEj2QZJavBHkPyIMhuIg1ywTJLD+CulFhJP43iXXatjteluhpsjSTLQDuHbFcvj1iWeLiOIWM3fGUu/qCWAXiZAiGQn6X9eDncS/15pVKfsRBAF7Tnm8qewWo2l9vletmEZTb1bxxr+ZtL4I0CCq8pA2rRfDyyIfjH1I1BxZ1d8YD3wFwE4CeADoAOOjT4c/yYlhMDsodiQyWrJ2vnfrDGUIouZePAPiJphdV+4Cyda71KgGGLqyUP2nasyQnnNPdGW+sBtDfkMlVMn7nsLp/OCNIikQOiUOaw6x2nYFzL3LNlVhxWBpDxu/8FOQoQ88dh0Fmn+7DGQLJ+I1UgJipPdbrcgXQ+ixsNNbaluSE2Gjo2WOGTKjYebr5hsNsifkgtmo61LodcMEAN+mYxdI45C0Geo+tIEsaMt/ow3jx9/lt7y27JlUArsj8rdgoEcsZsOCCtgDeB9Bb2dTdMnF3g9d6o4kaMn8rfwDxZ+Vu7SwQc1SrbkleiAwQvZWvwRcaEweazI5X62CNsoP/Ufzv/BeN9rUkL5zR9UKQk5SHVjUg06P5EVUgmY/L+ySWGJhEWDhvKFMtlaUlEYhZIDoo35xLZfKe96K50fRFSeSD2Kvs6EB3MZzF4lwO084fBHKY8l15H8i8pnxpUiBjfy+VBHJ19eGWgrnfiyOpmSWl4LQuAnAhQFG+4nJlyt59TfnTvGFNbcDMu8oK6QYi149GtiQxxA9ADFG+1jaCzVv63+w1V3P/J28H8GJClW+aEwCuHvekbFa2YwkhzO98DoAPAFysbOoOya9s1rXc7AfjcU/KX0g8qfyw3obEvISqbkleiGwQFyv3Hk81VxyIeRMUYhyIauUKfKvobn4tnva1JC+cct7lIMcpP5hXgxwbi18xCSTradkGGLnDFxfdzdYG7FjCAlHkvTjWvPkWy7T9Z2yzFo2Y3z2QKDAQnnsViZGx+mZJTji5060gv6fce5SDLIjVt7gCo+Z8mz8C8Mt4fhsDlQD6jv+D7FW2YwkQTurYCsAbAK5TNnW/zDz4WKw/iu/tNfFrLzRRszvsDGJ6XP5ZkgfipyCuU76WXgXju6HHHVo7+5u8AcCr8f6+mdQAGDjhT/Kush1LADCnw3kANgPQziA/WGYdiutajXv904Q/yWsAVsX7+2bidL8NrtO3pAC1y5i6Kvcej8UrDiS81zWRA+KwcgW/OvvfeHdCflpCByec29NAOO1hkDmJ+JmQQCb8t+wgMVN5RsspxYXfoE1cmlo8BEB7Kr9AZh8uT+QAfiwxnw/gIx+OE42eADKUbVhMQg5VvqtuA1mcqJu+5L8q/Lo7BHrKj2NF4TCAvtnPyhmB9ZbkglnnXAbgE2Uz35WiI7Fnsj8NX4KUsp+Vp0m8oDzMOpdEoR/+WgLncuXjr/FDHPB5DJjuJUnW3G/9vll3cWnOanlN0Uaz4ap+fQAMBzDQwFRlvES8bdfeBFAq938YfA9Mam61UeNdi77ga4rRgq9xMYBRfh6zAdYBuHnic0JlO1Hho31/CmAJgLZB+hEjBwB8X4ZtXh2kExx39s0AXlE6/FKZe9S3a9DfOHBiCohK5WnfISB+6KvfsVbzkT53IMLliLAtIkQSlU6I8Ek+0qdfkO3n5aHSGIdXgvQ16M5XgUz8s+wDjEQFzi74V55jwE7DkDNApmnPbSuV9m62kACRecd2em/Q/WaKzDvWZBhtLPifSYRYbiBd5MUgJvjue3Oqt7J3J0Qw2B3ZJ2+5PYi2q9+Q+K3P18R7IJb57abvApn4vJwkkW7gZpg1805qz4acCdkxBL1AoqWb8XY7syGXADzio0LSpfiY7/soq+SimvSCrAHxtHIvchaI2Rr+R4XcCfJkCC7yREpMQUMaSHFVhffM6se18BsprnpBw0/NZG1jAVQrHt/h32fewVuUbdRDhm87gQj/GIIH7kTKkybbrFFqk6Q/maA4nOH8A1ouqglk0hr5iMR8AzfEhTO+ajgrI5nrpa0MuieIp1SCDEViDCmpchz6IcCn4lTHOwDvkpKqQ1o+6l5YRAGIHcpDrevcoBuDyMhP3kOES0PQE8RTcmXkJ77O9CSClFRXg7gHxFgQR5t5ziMgloK4SUqqy1T90zy4w/TbeT+AR5XN7AbQN/cv/m1W2RRcdGlnb6PMLqZs+sBGAAPloc98f5j1A45p1w3AgwC+75zPBr6yC8ATABbJgupNJnzSF8htdGysB3CDsqni3L9KTCldEoULLhnpvU1PFu6UMdvXBO1Ec+Dothd7+4I4NyBnCLXNKbLwOE36oS4Qh+m3crC3RESTEwAG5P5NPlS2809YcnFrAG85dk3ZTICnJb3su0E7kWwYebjN/ZusJ/BL3UcRtGFtbIoxJL3sJIgxys9YfpRqd4xviRlzsz+1aSWPKF8I35h2C79urE6OSDLKXkSET4Xg4TtamS8ZZdpBbSmJMYFMeUnKTeyeC6J42ldocvN5uOksa9NaBj2F21DZAXKm0fZIIYy+P3CGQAS2KWvkSuovua+HjNtRG94ZvBgaKjkybsdhk+2RShgVSN7LUuUlwNbuRfKm/gsvMFk3N61lbXrLoAVRt7wGMuZsgpbPMTKLdTpTb+aLgPqK0mV5a2WEso16sPDCHwMI0wU5RLIr1ps0OPVmN/vMIADX1omyrPAiGt/MWysRk/4kSiACyb+Z13jTo5rhuc6JGJi/VjYo2qgHZ3UTbzr7RlM2o/BLydl1nylj+TfzMsANQfgBgM6NfK0cwMMA5uevlf2mfEuEQHaWzV8r77pbYOkOs9JALDBZL8nZRZBjQjC0OgIy21S982/iKBD/ADHSy6nc2Dm5yFvBuzn/JibFO5lAehCH/CE834sqa+xu4xffy18nTyjbqAdndl0FwNjduwEmyqQ9s7SN5A9xV0ksBeJeTTs+f50U+eyWrwS2N3n+OtlLIs/ADXVu3mCeZbRyEeQggsMBRQtuQ8TMC1Mvq+YDCZybOXmDOcyEr/ES9Ob9pQDeV7ZxOYBMZRv1kNw95d6sVhDDq3GSu6dKu455g3kbgITy3noszRvMXj4cR4VABTJ1vZwEkW5g2ndi3o28yGjlat+LbDMsjr/IlL3qwVB5N7INiFKfzk17NywipATdg2Dqq/I8iT8oXzvnmM7KKHn7qkFmGhRHjTtBYAASo0hc6aP7Q6fcQO2tn+MicIF4jAVwXNnGj6fcQKPTr5Jf+TQiXGNovdUKya9U32hoyg3uC9h8nw/rXIeh3OIiFAKZ9ppsAVFiYKi1YMqXaXbmrnYIWaNcr0rQSD4yx9YMEJ0U6hCGd0dnEAqBoLbbnkGiQnkkciOJH5msl0zfvxHkcuXhVZ5M36++2WnuIH6RxE+VqmE+hVMzCI1Apv9dDgEw8XKrMHcQzzVg53MizEWElUpDq/cRYamhmixQvGaCy5QZhdAIxIV4DMTrysORi9yt4wwiBQf3gZyi1HukS8FB9Rjz3C9xKIhbFM/LHu06xEOoBDL9DYmQGKM8zHLK2MnXs6fRyhHLvPSYfl5Uz8isQ89ruz75erYnUaR8TjRy9SZMqATiMONNWQfg18pm2gEwusRBCg+ddO72Pl5Rx0GOM+S+Y+cLyjZeVD5+XIROIC7EhBhyJMVb7pk80H0bbAyZffgFkM/4JJASmX14i7bPkwfyEi9cWvNc7APxf7XrEg+hFMiMt6SMxCwDQ60Fk75IzSX3Z0Jkgjie4AVV4U63mnCXmEPibOXzMH/GW6K+PCYeQikQj3kAPla2cS1gOCtj0ZGPABYneMvNlqIjauk2TzHpi7zJi+/Q5DPvXIeS0Apk5ttyDESWctfulBmTruN5RitXm5J1Z5z+vu7O9ikz6TqmgVhooP2z3HMdUkIrEIeZ78jvSfxNuXvvSvq+dCIqMvfoIZA5cTo8RuYeVQ9bJTGMxJeU2/5lEo9r1yURQi0Qj9FepIMmoyZeyyuVbdSHWBXHO59fy7xj2hkqMfFadgSgHXDl1GhMwYZgN2NtitALpGCDbDAQntva3avCIFJ8zLmHjo7ByaMAzWw7R0wC0U25zR8u2CBvGalPAoReIKjt7nNJ7Ffu7u/KGcBvmKyXFFetB/GrZl5Qs6S4SjXVv0POAPYhkaHc1gdJTNauix8khUBmbZQ9IKYaeGCcn3O18ayM2SAPNHFFbTG26Q1RDKKNcjtPnbVRdhmpT4IkhUA8FgP4h7KNfgAeUrZRD28DmHujbFe3D8B/SEm1+kxPztX8GoBvKZv5EMAiZRu+EVhWk3jIvso9gauVzRwE0LfwfbN3OI5pNwDANAB3AWgPYD+AJwFMlQXVn2rbz76KrQFsANBf2dS/Fb4voXxr3hBJJRCH7P78I4BvKptZUbhJhivbaBCObuv06h1l4XGjidWy+7vhuiXKZlYXbhKj2fcTJRkF0hfAewA0nxWckfL1hZvkbUUboSG7P7t6Oco0X5ieBDCgcJN8oGjDd5LpGcSlcJNsJlGiPMsiNJyVMUhITCdxnnKbLko2cSAZBeJSGxe9S3mm5ZYJV3Bo0FXVZsIVvBbEfym35W53FjIJSUqBzP5ADvqUtKwpZk24wn14TWU0w2hPMXn2B+Z2IPaTpBQIaocFj5J4Q3lY0JtEqFNjJsL4fryHxG3Kbfg26WZ0T0qS7iG9LuP78mYAryib2QWg75zNbq+VMozv6+Yr3uSlZtXk1jmb5SVlG2okbQ/iMGezrAXwW2Uz3QBDOafMMtaAOB5PZnEg2XsQh6w+vMR7O9te0Yy7B3vRFnN7sGuS1cdN8+nU5WxFM1UArizaIp8o2lAnqXsQh6Itsh1EofIsTBswvFFvMUPMBnG2cpvNSXZxIBUE4lEEQPtkfDOrt7vUJanJ6s0h3tovTbYDmK1swwgpIZCirW547njlO6JTSrJ6Je+0b1Yv1m5Lp99O44u2ytGg6+sHKSEQh6KP5HECLymf+ysJPBh0XeOFwH0EvqzcRmupP3FijKR/SK/LuJ78orfdsGa99gPoN3eb7Fa04TvjerKD92DeXdGMo5FBc7fJm4o2jJIyPYjD3G3yNoiVysOH80BMD7quMVMbRttduW1+kUriQKoJxCMXgPayhp+Nu5zXKdvwjXGXszeADGUzhwBMVLZhnJQTyNyPZReJqcrLJ9KSabUviXkk2iq3yfS5H0tF0HX1m5QTiMdiANpLq28d+4Xwr/Yd+wX+DwDfUTaz2Vv0mHKk1EN6XcZexq8D6gmRPwHQf96n4cwMOPYyd0r6HQBXKZv61rxP5U/KNgIhVXsQzPtUnjUgkC94WwOElREGxPFcqooDqdyDOGReyn4ANiqH5x4FcEXxZ7Jd0UbMZF7K872hT2dFMzUArin+TDYp2giUlO1BHIo/ExMpZs4GMEfZRjxMUxaHw+JUFgdSXSAuxDQv5FNz/v8HmZe4WwWEgsxLeA2I4cp13pOsYbSxkPICKd7uhnpOMmBqQeYlDEt7lgDQ3hgot3i7VCrbCJywnFBVSPycxFvK7wEGkbg/6LpmXMzvkviqcl03kFgZdF1NkNIP6XXJuIhfAaAd3VYBoN/88mDCczMucsNo3wegvYPv7fPL5a/KNkJBi+hBHOaXy8sAfqds5kJDw7nGyDAgjt+3FHGgJfUgDhk9eJmXAFs7PPeq+TtEfQfaumT04EXeat1zFM1UAeg/f4do7x0ZGlpMD+Iwf4d8SmCOcjxEGwLFputGoJDAOcp1m9eSxIGWJhCX2njsz5SnQL+V3t1ceG56dw4G8WPlOpWD6tuyhY4WJ5CSne66qfEGTM1P764fnpvenWIgK7vD+JKdcsSAnVDR4gTiQvwOxCvKd9z+IEYZqIvTc9yoXJd1IH6jXpcQ0qIe0usy5kJeD+DvBsJz+y6okD0aBx9zIc/1Hsx7aBzfw5HIjQsq5HVFG6GlZfYgABZUyJsgfq5859UNz60No+2hXIdVLVUcaMk9iMOYC9jNW/HaUdFMBMDABbtlg58HHXMBe3kvBdv5edzTOASg34LdslPRRqhpsT2Iw4Ld7j6E05TNpClF281TFofDzJYsDrR0gTiQWETiQ+W1S7eN7sp7/PJ5dFfeQeJuZZ+3kkZmx0JNixfIwj1yHECmAVNzR3d110olxOiu7tSxiQt37MI90tjW1C2GFi8Q1Irkv0GsVn7YvRx0txxIjNo4jwHKvj6/cI8840vjJjlWIJ+T4e3EqsnE0ee7Ww/Exejz2cXAM1ONgRxaSYMViMfCvfIPEouVx/Vnk/FnPffyfXVR9nHpwr3ynr+tm7xYgdRnKgDtnLv3PtTF3YIgJh7qwqu9LCWa7AOQp2wjqbACqcOifbIfRK7y+N4pCx7qHGN4LlECopWyX5MX7Uv9MNpYsAI5DQIrCbyjrJEvE7ivuT492Jl3E7hT2aeNTt11Wzf5aNFv0hvjwfN4C4C/KZupANB38X451IQv7bw35r2U/blj8X55UdlG0mF7kAZYvF9eAvG48nDmQmdI06QzRAaIXsq+PGXF0TBWII0zwQsx1ST9wU7s09iHD3ZiDwMx7tXeltCWBrACaYTFB+RjEkXKU6ptGWX3XBKzSJyr7EPx4gOyzWzrJg9WINEpBFCmbOPbozq6WxTUY1RH3oAYHuTjpBxAgbKNpMYKJApLDspREFnK43+nLBrVgZ1O2R3VgWeDKAUhynazlxyUw8G2crixs1hNMKqDG/P9CgDt3LsfA/i5t9zlfgBXKtt7FcCQJYeEynaSGiuQZjDyXH4JwOsp1l6Dlx6WV4N2IuzYIVYzWHpY3gDwi6D98JHHrDiahxVIcyEmgjhk4HlEuxwGkRN0cyYLViDNZOkRdwfXGUH74QMFS49IedBOJAtWIDFAooTEFuX3EpplG2k+LWoyYwUSA6VH5TiIzBAMk+ItmaVHbRhtLKTSrIwxRrTncwD+NWg/YmRN6TG5M2gnkg3bg8RHuheamizYMNo4sQKJg9JjsgnE4hAMmZpblpcek3eDbrdkxAokfqYCUMm56zOVAHKDdiJZsQKJk9IqqSSQG3zn0GSZUlol+4Jur2TFCiQRiJUg3g1aAVHKeyCWBd1MyYwVSAIsqxbn4Xd00H5EIX1ZtWjn+kpprEASZFm1u+PrE0H70QDPLKuWF4J2ItmxAvGD2piRqhAMqU6V476kObVYgfjBsuNuyGqjobMBMH/ZcdkatBOpgBWIf8zyQliDZieAmUE7kSpYgfjEsuNyhMT4ECxIzFl2PHquLUvzsQLxl98AWBeg/dcBrArQfsphFyv6zPA2bjaS9QG17ZDlJ2R9AHZTFtuD+MzyE/IaiMcCmLn6lRWH/1iB6JANwGQ6naOeTYvPWIEosPykuzOsyfDcguUnRTvBXYvECkSPEgAm3kV8BGCuATstEisQJZaflGoSYw1M62Y6toKub6piZ7GU+a9W/DOAM3Lv+sQLK2pE69gW24MYIUMpPLfGC/21KGIFosyKGnkPxFKFad1S99gWVaxAzJDrbbnmF9sNbKxjsQIxw4qIHABwL4CID4c7CeBHKyJy0IdjWZrACsQQKyKyBsR9ICIJDKtqQAxbERHtDUYtHnYWyzA/E34dwK8AdInxp3ucnmMl5Tkl1ywNYHsQw6ykPAvgagCPADjRjJ8431nu/MaKwzy2BwmQn4HdAQwFcCeA/gC6eR/t9vZGfx7A71fCXbpiCQAhGbQPFktosUMsiyUKViAWSxSsQCyWKFiBWCxRsAKxWKJgBWKxRMEKxGKJghWIxRIFKxCLJQpWIBZLFKxALJYo/P8AAAD//1OPv+p6aHacAAAAAElFTkSuQmCC;" vertex="1" parent="1">
          <mxGeometry x="679.9300000000002" y="252.44000000000005" width="44.13" height="44.13" as="geometry" />
        </mxCell>
        <mxCell id="OF40uoXXn-pdmVkBGDkX-43" value="" style="endArrow=classic;html=1;rounded=0;entryX=1;entryY=0.5;entryDx=0;entryDy=0;exitX=0;exitY=0.5;exitDx=0;exitDy=0;" edge="1" parent="1" source="OF40uoXXn-pdmVkBGDkX-46" target="OF40uoXXn-pdmVkBGDkX-49">
          <mxGeometry width="50" height="50" relative="1" as="geometry">
            <mxPoint x="633.0000000000001" y="265" as="sourcePoint" />
            <mxPoint x="632.7628130360205" y="209.01" as="targetPoint" />
          </mxGeometry>
        </mxCell>
        <mxCell id="OF40uoXXn-pdmVkBGDkX-44" value="" style="curved=1;endArrow=classic;html=1;rounded=0;exitX=0.015;exitY=0.359;exitDx=0;exitDy=0;entryX=0.976;entryY=0.969;entryDx=0;entryDy=0;entryPerimeter=0;exitPerimeter=0;" edge="1" parent="1" source="OF40uoXXn-pdmVkBGDkX-35" target="OF40uoXXn-pdmVkBGDkX-4">
          <mxGeometry width="50" height="50" relative="1" as="geometry">
            <mxPoint x="155.00000000000003" y="28" as="sourcePoint" />
            <mxPoint x="200.00000000000003" y="132" as="targetPoint" />
            <Array as="points">
              <mxPoint x="320" y="260" />
            </Array>
          </mxGeometry>
        </mxCell>
        <mxCell id="OF40uoXXn-pdmVkBGDkX-46" value="Draw" style="rounded=1;whiteSpace=wrap;html=1;fillColor=none;strokeColor=#080808;" vertex="1" parent="1">
          <mxGeometry x="502.9951457975986" y="166.25" width="86.83533447684391" height="29.999999999999947" as="geometry" />
        </mxCell>
        <mxCell id="OF40uoXXn-pdmVkBGDkX-49" value="Define actor&lt;br style=&quot;border-color: var(--border-color);&quot;&gt;for atom&amp;nbsp;event" style="rounded=1;whiteSpace=wrap;html=1;fillColor=#fff2cc;strokeColor=#d6b656;" vertex="1" parent="1">
          <mxGeometry x="400" y="166.25" width="88.83" height="30" as="geometry" />
        </mxCell>
        <mxCell id="OF40uoXXn-pdmVkBGDkX-51" value="" style="endArrow=classic;html=1;rounded=0;" edge="1" parent="1" source="OF40uoXXn-pdmVkBGDkX-38" target="OF40uoXXn-pdmVkBGDkX-35">
          <mxGeometry width="50" height="50" relative="1" as="geometry">
            <mxPoint x="505.00000000000006" y="282.8399999999999" as="sourcePoint" />
            <mxPoint x="491" y="283.8399999999999" as="targetPoint" />
          </mxGeometry>
        </mxCell>
        <mxCell id="OF40uoXXn-pdmVkBGDkX-52" value="" style="shape=flexArrow;endArrow=classic;html=1;rounded=0;exitX=1.006;exitY=0.112;exitDx=0;exitDy=0;exitPerimeter=0;entryX=0;entryY=0.187;entryDx=0;entryDy=0;entryPerimeter=0;fillColor=#fff2cc;strokeColor=#d6b656;endWidth=7.777777777777778;endSize=4.427777777777777;" edge="1" parent="1" source="OF40uoXXn-pdmVkBGDkX-18" target="OF40uoXXn-pdmVkBGDkX-30">
          <mxGeometry width="50" height="50" relative="1" as="geometry">
            <mxPoint x="470" y="160" as="sourcePoint" />
            <mxPoint x="520" y="110" as="targetPoint" />
          </mxGeometry>
        </mxCell>
        <mxCell id="OF40uoXXn-pdmVkBGDkX-55" value="Visualize" style="rounded=1;whiteSpace=wrap;html=1;fillColor=none;strokeColor=#080808;" vertex="1" parent="1">
          <mxGeometry x="502.9951457975986" y="206.25" width="86.83533447684391" height="29.999999999999947" as="geometry" />
        </mxCell>
        <mxCell id="OF40uoXXn-pdmVkBGDkX-56" value="Define action&lt;br style=&quot;border-color: var(--border-color);&quot;&gt;for atom&amp;nbsp;event" style="rounded=1;whiteSpace=wrap;html=1;fillColor=#fff2cc;strokeColor=#d6b656;" vertex="1" parent="1">
          <mxGeometry x="400" y="206.25" width="88.83" height="30" as="geometry" />
        </mxCell>
        <mxCell id="OF40uoXXn-pdmVkBGDkX-57" value="" style="endArrow=classic;html=1;rounded=0;entryX=1;entryY=0.5;entryDx=0;entryDy=0;" edge="1" target="OF40uoXXn-pdmVkBGDkX-56" parent="1" source="OF40uoXXn-pdmVkBGDkX-55">
          <mxGeometry width="50" height="50" relative="1" as="geometry">
            <mxPoint x="503" y="221" as="sourcePoint" />
            <mxPoint x="632.7628130360205" y="249.01" as="targetPoint" />
          </mxGeometry>
        </mxCell>
        <mxCell id="OF40uoXXn-pdmVkBGDkX-60" value="" style="curved=1;endArrow=classic;html=1;rounded=0;entryX=1;entryY=0.5;entryDx=0;entryDy=0;exitX=0;exitY=0;exitDx=0;exitDy=0;" edge="1" parent="1" source="OF40uoXXn-pdmVkBGDkX-56" target="OF40uoXXn-pdmVkBGDkX-21">
          <mxGeometry width="50" height="50" relative="1" as="geometry">
            <mxPoint x="291" y="158" as="sourcePoint" />
            <mxPoint x="336.34066513451376" y="133.9287999999999" as="targetPoint" />
          </mxGeometry>
        </mxCell>
        <mxCell id="OF40uoXXn-pdmVkBGDkX-62" value="" style="curved=1;endArrow=classic;html=1;rounded=0;entryX=0.5;entryY=1;entryDx=0;entryDy=0;exitX=0.5;exitY=0;exitDx=0;exitDy=0;" edge="1" parent="1" source="OF40uoXXn-pdmVkBGDkX-5" target="OF40uoXXn-pdmVkBGDkX-21">
          <mxGeometry width="50" height="50" relative="1" as="geometry">
            <mxPoint x="301" y="168" as="sourcePoint" />
            <mxPoint x="346.34066513451376" y="143.9287999999999" as="targetPoint" />
          </mxGeometry>
        </mxCell>
        <mxCell id="OF40uoXXn-pdmVkBGDkX-63" value="Link" style="rounded=1;whiteSpace=wrap;html=1;fillColor=none;strokeColor=#080808;" vertex="1" parent="1">
          <mxGeometry x="502.9951457975986" y="260" width="86.83533447684391" height="29.999999999999947" as="geometry" />
        </mxCell>
        <mxCell id="OF40uoXXn-pdmVkBGDkX-64" value="Atom event" style="rounded=0;whiteSpace=wrap;html=1;verticalAlign=top;align=left;" vertex="1" parent="1">
          <mxGeometry x="147.50000000000003" y="83.06" width="52.5" height="60" as="geometry" />
        </mxCell>
      </root>
    </mxGraphModel>
  </diagram>
</mxfile>
